<svg xmlns="http://www.w3.org/2000/svg" viewBox="0 0 3714 3067"><defs><clipPath id="a"><path d="M3565 2218h92v219h-92Zm0 0"/></clipPath><clipPath id="b"><path d="m3565.6 2365.9 218.7 140.7 125.3-123-280.5-165.3Zm0 0"/></clipPath><clipPath id="c"><path d="M3565 2218h108v227h-108Zm0 0"/></clipPath><clipPath id="d"><path d="m3565.6 2365.9 218.7 140.7 125.3-123-280.5-165.3Zm0 0"/></clipPath><clipPath id="e"><path d="M3568 2218h121v234h-121Zm0 0"/></clipPath><clipPath id="f"><path d="m3565.6 2365.9 218.7 140.7 125.3-123-280.5-165.3Zm0 0"/></clipPath><clipPath id="g"><path d="M3579 2225h126v235h-126Zm0 0"/></clipPath><clipPath id="h"><path d="m3565.6 2365.9 218.7 140.7 125.3-123-280.5-165.3Zm0 0"/></clipPath><clipPath id="i"><path d="M3589 2235h132v232h-132Zm0 0"/></clipPath><clipPath id="j"><path d="m3565.6 2365.9 218.7 140.7 125.3-123-280.5-165.3Zm0 0"/></clipPath><clipPath id="k"><path d="M3600 2245h136v230h-136Zm0 0"/></clipPath><clipPath id="l"><path d="m3565.6 2365.9 218.7 140.7 125.3-123-280.5-165.3Zm0 0"/></clipPath><clipPath id="m"><path d="M3611 2255h141v227h-141Zm0 0"/></clipPath><clipPath id="n"><path d="m3565.6 2365.9 218.7 140.7 125.3-123-280.5-165.3Zm0 0"/></clipPath><clipPath id="o"><path d="M3621 2265h147v224h-147Zm0 0"/></clipPath><clipPath id="p"><path d="m3565.6 2365.9 218.7 140.7 125.3-123-280.5-165.3Zm0 0"/></clipPath><clipPath id="q"><path d="M3632 2275h152v222h-152Zm0 0"/></clipPath><clipPath id="r"><path d="m3565.6 2365.9 218.7 140.7 125.3-123-280.5-165.3Zm0 0"/></clipPath><clipPath id="s"><path d="M3643 2285h157v219h-157Zm0 0"/></clipPath><clipPath id="t"><path d="m3565.6 2365.9 218.7 140.7 125.3-123-280.5-165.3Zm0 0"/></clipPath><clipPath id="u"><path d="M3653 2295h163v212h-163Zm0 0"/></clipPath><clipPath id="v"><path d="m3565.6 2365.9 218.7 140.7 125.3-123-280.5-165.3Zm0 0"/></clipPath><clipPath id="w"><path d="M3664 2306h168v201h-168Zm0 0"/></clipPath><clipPath id="x"><path d="m3565.6 2365.9 218.7 140.7 125.3-123-280.5-165.3Zm0 0"/></clipPath><clipPath id="y"><path d="M3675 2316h172v191h-172Zm0 0"/></clipPath><clipPath id="z"><path d="m3565.6 2365.9 218.7 140.7 125.3-123-280.5-165.3Zm0 0"/></clipPath><clipPath id="A"><path d="M3685 2326h178v181h-178Zm0 0"/></clipPath><clipPath id="B"><path d="m3565.6 2365.9 218.7 140.7 125.3-123-280.5-165.3Zm0 0"/></clipPath><clipPath id="C"><path d="M3696 2336h183v171h-183Zm0 0"/></clipPath><clipPath id="D"><path d="m3565.6 2365.9 218.7 140.7 125.3-123-280.5-165.3Zm0 0"/></clipPath><clipPath id="E"><path d="M3707 2346h188v161h-188Zm0 0"/></clipPath><clipPath id="F"><path d="m3565.6 2365.9 218.7 140.7 125.3-123-280.5-165.3Zm0 0"/></clipPath><clipPath id="G"><path d="M3717 2356h193v151h-193Zm0 0"/></clipPath><clipPath id="H"><path d="m3565.6 2365.9 218.7 140.7 125.3-123-280.5-165.3Zm0 0"/></clipPath><clipPath id="I"><path d="M6607 2218h92v219h-92Zm0 0"/></clipPath><clipPath id="J"><path d="m6354.3 2383.6 125.4 123 218.6-140.7-63.5-147.6Zm0 0"/></clipPath><clipPath id="K"><path d="M6591 2218h108v227h-108Zm0 0"/></clipPath><clipPath id="L"><path d="m6354.3 2383.6 125.4 123 218.6-140.7-63.5-147.6Zm0 0"/></clipPath><clipPath id="M"><path d="M6575 2218h121v234h-121Zm0 0"/></clipPath><clipPath id="N"><path d="m6354.3 2383.6 125.4 123 218.6-140.7-63.5-147.6Zm0 0"/></clipPath><clipPath id="O"><path d="M6559 2225h126v235h-126Zm0 0"/></clipPath><clipPath id="P"><path d="m6354.3 2383.6 125.4 123 218.6-140.7-63.5-147.6Zm0 0"/></clipPath><clipPath id="Q"><path d="M6543 2235h132v232h-132Zm0 0"/></clipPath><clipPath id="R"><path d="m6354.3 2383.6 125.4 123 218.6-140.7-63.5-147.6Zm0 0"/></clipPath><clipPath id="S"><path d="M6527 2245h137v230h-137Zm0 0"/></clipPath><clipPath id="T"><path d="m6354.3 2383.6 125.4 123 218.6-140.7-63.5-147.6Zm0 0"/></clipPath><clipPath id="U"><path d="M6512 2255h141v227h-141Zm0 0"/></clipPath><clipPath id="V"><path d="m6354.3 2383.6 125.4 123 218.6-140.7-63.5-147.6Zm0 0"/></clipPath><clipPath id="W"><path d="M6496 2265h147v224h-147Zm0 0"/></clipPath><clipPath id="X"><path d="m6354.3 2383.6 125.4 123 218.6-140.7-63.5-147.6Zm0 0"/></clipPath><clipPath id="Y"><path d="M6480 2275h152v222h-152Zm0 0"/></clipPath><clipPath id="Z"><path d="m6354.3 2383.6 125.4 123 218.6-140.7-63.5-147.6Zm0 0"/></clipPath><clipPath id="aa"><path d="M6464 2285h157v219h-157Zm0 0"/></clipPath><clipPath id="ab"><path d="m6354.3 2383.6 125.4 123 218.6-140.7-63.5-147.6Zm0 0"/></clipPath><clipPath id="ac"><path d="M6448 2295h163v212h-163Zm0 0"/></clipPath><clipPath id="ad"><path d="m6354.3 2383.6 125.4 123 218.6-140.7-63.5-147.6Zm0 0"/></clipPath><clipPath id="ae"><path d="M6432 2306h168v201h-168Zm0 0"/></clipPath><clipPath id="af"><path d="m6354.3 2383.6 125.4 123 218.6-140.7-63.5-147.6Zm0 0"/></clipPath><clipPath id="ag"><path d="M6417 2316h172v191h-172Zm0 0"/></clipPath><clipPath id="ah"><path d="m6354.3 2383.6 125.4 123 218.6-140.7-63.5-147.6Zm0 0"/></clipPath><clipPath id="ai"><path d="M6401 2326h178v181h-178Zm0 0"/></clipPath><clipPath id="aj"><path d="m6354.3 2383.6 125.4 123 218.6-140.7-63.5-147.6Zm0 0"/></clipPath><clipPath id="ak"><path d="M6385 2336h183v171h-183Zm0 0"/></clipPath><clipPath id="al"><path d="m6354.3 2383.6 125.4 123 218.6-140.7-63.5-147.6Zm0 0"/></clipPath><clipPath id="am"><path d="M6369 2346h188v161h-188Zm0 0"/></clipPath><clipPath id="an"><path d="m6354.3 2383.6 125.4 123 218.6-140.7-63.5-147.6Zm0 0"/></clipPath><clipPath id="ao"><path d="M6354 2356h193v151h-193Zm0 0"/></clipPath><clipPath id="ap"><path d="m6354.3 2383.6 125.4 123 218.6-140.7-63.5-147.6Zm0 0"/></clipPath><clipPath id="aq"><path d="M223 2233h92v220h-92Zm0 0"/></clipPath><clipPath id="ar"><path d="m223.5 2381.5 218.7 140.8 125.3-123L287 2234Zm0 0"/></clipPath><clipPath id="as"><path d="M223 2233h108v228H223Zm0 0"/></clipPath><clipPath id="at"><path d="m223.5 2381.5 218.7 140.8 125.3-123L287 2234Zm0 0"/></clipPath><clipPath id="au"><path d="M226 2233h121v235H226Zm0 0"/></clipPath><clipPath id="av"><path d="m223.5 2381.5 218.7 140.8 125.3-123L287 2234Zm0 0"/></clipPath><clipPath id="aw"><path d="M237 2241h126v234H237Zm0 0"/></clipPath><clipPath id="ax"><path d="m223.5 2381.5 218.7 140.8 125.3-123L287 2234Zm0 0"/></clipPath><clipPath id="ay"><path d="M247 2251h131v232H247Zm0 0"/></clipPath><clipPath id="az"><path d="m223.5 2381.5 218.7 140.8 125.3-123L287 2234Zm0 0"/></clipPath><clipPath id="aA"><path d="M258 2261h136v229H258Zm0 0"/></clipPath><clipPath id="aB"><path d="m223.5 2381.5 218.7 140.8 125.3-123L287 2234Zm0 0"/></clipPath><clipPath id="aC"><path d="M269 2271h141v227H269Zm0 0"/></clipPath><clipPath id="aD"><path d="m223.5 2381.5 218.7 140.8 125.3-123L287 2234Zm0 0"/></clipPath><clipPath id="aE"><path d="M279 2281h147v224H279Zm0 0"/></clipPath><clipPath id="aF"><path d="m223.5 2381.5 218.7 140.8 125.3-123L287 2234Zm0 0"/></clipPath><clipPath id="aG"><path d="M290 2291h152v222H290Zm0 0"/></clipPath><clipPath id="aH"><path d="m223.5 2381.5 218.7 140.8 125.3-123L287 2234Zm0 0"/></clipPath><clipPath id="aI"><path d="M301 2301h157v219H301Zm0 0"/></clipPath><clipPath id="aJ"><path d="m223.5 2381.5 218.7 140.8 125.3-123L287 2234Zm0 0"/></clipPath><clipPath id="aK"><path d="M311 2311h163v212H311Zm0 0"/></clipPath><clipPath id="aL"><path d="m223.5 2381.5 218.7 140.8 125.3-123L287 2234Zm0 0"/></clipPath><clipPath id="aM"><path d="M322 2321h167v202H322Zm0 0"/></clipPath><clipPath id="aN"><path d="m223.5 2381.5 218.7 140.8 125.3-123L287 2234Zm0 0"/></clipPath><clipPath id="aO"><path d="M333 2331h172v192H333Zm0 0"/></clipPath><clipPath id="aP"><path d="m223.5 2381.5 218.7 140.8 125.3-123L287 2234Zm0 0"/></clipPath><clipPath id="aQ"><path d="M343 2341h178v182H343Zm0 0"/></clipPath><clipPath id="aR"><path d="m223.5 2381.5 218.7 140.8 125.3-123L287 2234Zm0 0"/></clipPath><clipPath id="aS"><path d="M354 2351h183v172H354Zm0 0"/></clipPath><clipPath id="aT"><path d="m223.5 2381.5 218.7 140.8 125.3-123L287 2234Zm0 0"/></clipPath><clipPath id="aU"><path d="M365 2361h188v162H365Zm0 0"/></clipPath><clipPath id="aV"><path d="m223.5 2381.5 218.7 140.8 125.3-123L287 2234Zm0 0"/></clipPath><clipPath id="aW"><path d="M375 2372h193v151H375Zm0 0"/></clipPath><clipPath id="aX"><path d="m223.5 2381.5 218.7 140.8 125.3-123L287 2234Zm0 0"/></clipPath><clipPath id="aY"><path d="M3280 2233h92v220h-92Zm0 0"/></clipPath><clipPath id="aZ"><path d="m3027.4 2398.7 125.3 123 218.7-140.7-63.5-147.5Zm0 0"/></clipPath><clipPath id="ba"><path d="M3264 2233h108v227h-108Zm0 0"/></clipPath><clipPath id="bb"><path d="m3027.4 2398.7 125.3 123 218.7-140.7-63.5-147.5Zm0 0"/></clipPath><clipPath id="bc"><path d="M3248 2233h121v234h-121Zm0 0"/></clipPath><clipPath id="bd"><path d="m3027.4 2398.7 125.3 123 218.7-140.7-63.5-147.5Zm0 0"/></clipPath><clipPath id="be"><path d="M3232 2240h126v235h-126Zm0 0"/></clipPath><clipPath id="bf"><path d="m3027.4 2398.7 125.3 123 218.7-140.7-63.5-147.5Zm0 0"/></clipPath><clipPath id="bg"><path d="M3216 2250h132v232h-132Zm0 0"/></clipPath><clipPath id="bh"><path d="m3027.4 2398.7 125.3 123 218.7-140.7-63.5-147.5Zm0 0"/></clipPath><clipPath id="bi"><path d="M3201 2260h136v230h-136Zm0 0"/></clipPath><clipPath id="bj"><path d="m3027.4 2398.7 125.3 123 218.7-140.7-63.5-147.5Zm0 0"/></clipPath><clipPath id="bk"><path d="M3185 2270h141v227h-141Zm0 0"/></clipPath><clipPath id="bl"><path d="m3027.4 2398.7 125.3 123 218.7-140.7-63.5-147.5Zm0 0"/></clipPath><clipPath id="bm"><path d="M3169 2280h147v225h-147Zm0 0"/></clipPath><clipPath id="bn"><path d="m3027.4 2398.7 125.3 123 218.7-140.7-63.5-147.5Zm0 0"/></clipPath><clipPath id="bo"><path d="M3153 2290h152v222h-152Zm0 0"/></clipPath><clipPath id="bp"><path d="m3027.4 2398.7 125.3 123 218.7-140.7-63.5-147.5Zm0 0"/></clipPath><clipPath id="bq"><path d="M3137 2301h157v218h-157Zm0 0"/></clipPath><clipPath id="br"><path d="m3027.4 2398.7 125.3 123 218.7-140.7-63.5-147.5Zm0 0"/></clipPath><clipPath id="bs"><path d="M3121 2311h163v211h-163Zm0 0"/></clipPath><clipPath id="bt"><path d="m3027.4 2398.7 125.3 123 218.7-140.7-63.5-147.5Zm0 0"/></clipPath><clipPath id="bu"><path d="M3105 2321h168v201h-168Zm0 0"/></clipPath><clipPath id="bv"><path d="m3027.4 2398.7 125.3 123 218.7-140.7-63.5-147.5Zm0 0"/></clipPath><clipPath id="bw"><path d="M3090 2331h172v191h-172Zm0 0"/></clipPath><clipPath id="bx"><path d="m3027.4 2398.7 125.3 123 218.7-140.7-63.5-147.5Zm0 0"/></clipPath><clipPath id="by"><path d="M3074 2341h178v181h-178Zm0 0"/></clipPath><clipPath id="bz"><path d="m3027.4 2398.7 125.3 123 218.7-140.7-63.5-147.5Zm0 0"/></clipPath><clipPath id="bA"><path d="M3058 2351h183v171h-183Zm0 0"/></clipPath><clipPath id="bB"><path d="m3027.4 2398.7 125.3 123 218.7-140.7-63.5-147.5Zm0 0"/></clipPath><clipPath id="bC"><path d="M3042 2361h188v161h-188Zm0 0"/></clipPath><clipPath id="bD"><path d="m3027.4 2398.7 125.3 123 218.7-140.7-63.5-147.5Zm0 0"/></clipPath><clipPath id="bE"><path d="M3027 2371h193v151h-193Zm0 0"/></clipPath><clipPath id="bF"><path d="m3027.4 2398.7 125.3 123 218.7-140.7-63.5-147.5Zm0 0"/></clipPath><clipPath id="bG"><path d="M1824 1058h34v33h-34Zm0 0"/></clipPath><clipPath id="bH"><path d="M1824.8 1074.3a16.1 16.1 0 1 0 32.3 0 16.1 16.1 0 0 0-32.3 0m6.2 0a10 10 0 1 1 19.9 0 10 10 0 0 1-20 0"/></clipPath><clipPath id="bJ"><path d="M1734 1058h34v33h-34Zm0 0"/></clipPath><clipPath id="bK"><path d="M1734.8 1074.3a16.1 16.1 0 1 0 32.3 0 16.1 16.1 0 0 0-32.3 0m6.2 0a10 10 0 1 1 19.9 0 10 10 0 0 1-20 0"/></clipPath><linearGradient id="bI" x1="-.2" x2="1.2" y1="0" y2="0" gradientTransform="rotate(45 -368.3 2739.9)scale(32.29919)" gradientUnits="userSpaceOnUse"><stop offset="0" stop-color="#717070"/><stop offset=".1" stop-color="#717070"/><stop offset=".1" stop-color="#717070"/><stop offset=".1" stop-color="#717070"/><stop offset=".2" stop-color="#727171"/><stop offset=".2" stop-color="#737272"/><stop offset=".2" stop-color="#747373"/><stop offset=".2" stop-color="#757474"/><stop offset=".2" stop-color="#767575"/><stop offset=".2" stop-color="#767575"/><stop offset=".2" stop-color="#777676"/><stop offset=".2" stop-color="#787777"/><stop offset=".2" stop-color="#797878"/><stop offset=".2" stop-color="#7a7979"/><stop offset=".2" stop-color="#7b7a7a"/><stop offset=".2" stop-color="#7b7b7b"/><stop offset=".2" stop-color="#7c7b7b"/><stop offset=".2" stop-color="#7d7c7c"/><stop offset=".2" stop-color="#7e7d7d"/><stop offset=".2" stop-color="#7f7e7e"/><stop offset=".2" stop-color="#807f7f"/><stop offset=".2" stop-color="gray"/><stop offset=".2" stop-color="#818080"/><stop offset=".2" stop-color="#828181"/><stop offset=".2" stop-color="#838282"/><stop offset=".2" stop-color="#858383"/><stop offset=".2" stop-color="#868484"/><stop offset=".2" stop-color="#858585"/><stop offset=".2" stop-color="#868686"/><stop offset=".3" stop-color="#888686"/><stop offset=".3" stop-color="#898787"/><stop offset=".3" stop-color="#8a8888"/><stop offset=".3" stop-color="#8b8989"/><stop offset=".3" stop-color="#8c8a8a"/><stop offset=".3" stop-color="#8b8b8b"/><stop offset=".3" stop-color="#8d8b8b"/><stop offset=".3" stop-color="#8e8c8c"/><stop offset=".3" stop-color="#8f8d8d"/><stop offset=".3" stop-color="#908e8e"/><stop offset=".3" stop-color="#918f8f"/><stop offset=".3" stop-color="#909090"/><stop offset=".3" stop-color="#919191"/><stop offset=".3" stop-color="#939191"/><stop offset=".3" stop-color="#949292"/><stop offset=".3" stop-color="#959393"/><stop offset=".3" stop-color="#969494"/><stop offset=".3" stop-color="#959595"/><stop offset=".3" stop-color="#969696"/><stop offset=".3" stop-color="#989696"/><stop offset=".3" stop-color="#999797"/><stop offset=".3" stop-color="#9a9898"/><stop offset=".3" stop-color="#9b9999"/><stop offset=".3" stop-color="#9a9a9a"/><stop offset=".3" stop-color="#9b9b9b"/><stop offset=".3" stop-color="#9d9b9b"/><stop offset=".4" stop-color="#9e9c9c"/><stop offset=".4" stop-color="#9f9d9d"/><stop offset=".4" stop-color="#a09e9e"/><stop offset=".4" stop-color="#9f9f9f"/><stop offset=".4" stop-color="#a0a0a0"/><stop offset=".4" stop-color="#a1a1a1"/><stop offset=".4" stop-color="#a3a1a1"/><stop offset=".4" stop-color="#a4a2a2"/><stop offset=".4" stop-color="#a5a3a3"/><stop offset=".4" stop-color="#a5a4a5"/><stop offset=".4" stop-color="#a6a6a6"/><stop offset=".4" stop-color="#a7a7a7"/><stop offset=".4" stop-color="#a8a7a7"/><stop offset=".4" stop-color="#a9a8a8"/><stop offset=".4" stop-color="#aaa9a9"/><stop offset=".4" stop-color="#aaa"/><stop offset=".4" stop-color="#ababab"/><stop offset=".4" stop-color="#acacac"/><stop offset=".4" stop-color="#adadad"/><stop offset=".4" stop-color="#aeadad"/><stop offset=".4" stop-color="#afaeae"/><stop offset=".4" stop-color="#afafaf"/><stop offset=".4" stop-color="#b0b0b0"/><stop offset=".4" stop-color="#b1b1b1"/><stop offset=".4" stop-color="#b2b2b2"/><stop offset=".4" stop-color="#b3b2b2"/><stop offset=".5" stop-color="#b4b3b3"/><stop offset=".5" stop-color="#b5b3b3"/><stop offset=".5" stop-color="#b4b4b4"/><stop offset=".5" stop-color="#b5b5b5"/><stop offset=".5" stop-color="#b6b6b6"/><stop offset=".5" stop-color="#b7b7b7"/><stop offset=".5" stop-color="#b9b7b7"/><stop offset=".5" stop-color="#bab8b8"/><stop offset=".5" stop-color="#b9b9b9"/><stop offset=".5" stop-color="#bababa"/><stop offset=".5" stop-color="#bbb"/><stop offset=".5" stop-color="#bcbcbc"/><stop offset=".5" stop-color="#bebcbc"/><stop offset=".5" stop-color="#bfbdbd"/><stop offset=".5" stop-color="#bebebe"/><stop offset=".5" stop-color="#bfbfbf"/><stop offset=".5" stop-color="silver"/><stop offset=".5" stop-color="#c1c1c1"/><stop offset=".5" stop-color="#c3c1c1"/><stop offset=".5" stop-color="#c4c2c2"/><stop offset=".5" stop-color="#c3c3c3"/><stop offset=".5" stop-color="#c4c4c4"/><stop offset=".5" stop-color="#c5c5c5"/><stop offset=".5" stop-color="#c6c6c6"/><stop offset=".5" stop-color="#c7c7c7"/><stop offset=".6" stop-color="#c9c7c7"/><stop offset=".6" stop-color="#c8c8c8"/><stop offset=".6" stop-color="#c9c9c9"/><stop offset=".6" stop-color="#cacaca"/><stop offset=".6" stop-color="#cbcbcb"/><stop offset=".6" stop-color="#ccc"/><stop offset=".6" stop-color="#cecccc"/><stop offset=".6" stop-color="#cdcdcd"/><stop offset=".6" stop-color="#cecece"/><stop offset=".6" stop-color="#cfcfcf"/><stop offset=".6" stop-color="#d0d0d0"/><stop offset=".6" stop-color="#d1d1d1"/><stop offset=".6" stop-color="#d2d2d2"/><stop offset=".6" stop-color="#d2d2d2"/><stop offset=".6" stop-color="#d3d3d3"/><stop offset=".6" stop-color="#d4d4d4"/><stop offset=".6" stop-color="#d5d5d5"/><stop offset=".6" stop-color="#d6d6d6"/><stop offset=".6" stop-color="#d7d7d7"/><stop offset=".6" stop-color="#d7d7d7"/><stop offset=".6" stop-color="#d8d8d8"/><stop offset=".6" stop-color="#d9d9d9"/><stop offset=".6" stop-color="#d7d7d7"/><stop offset=".6" stop-color="#d5d5d5"/><stop offset=".6" stop-color="#d3d3d3"/><stop offset=".6" stop-color="#d1d1d1"/><stop offset=".7" stop-color="#d1cfcf"/><stop offset=".7" stop-color="#cecece"/><stop offset=".7" stop-color="#ccc"/><stop offset=".7" stop-color="#cacaca"/><stop offset=".7" stop-color="#c8c8c8"/><stop offset=".7" stop-color="#c6c6c6"/><stop offset=".7" stop-color="#c4c4c4"/><stop offset=".7" stop-color="#c4c2c2"/><stop offset=".7" stop-color="#c1c1c1"/><stop offset=".7" stop-color="#bfbfbf"/><stop offset=".7" stop-color="#bdbdbd"/><stop offset=".7" stop-color="#bbb"/><stop offset=".7" stop-color="#b9b9b9"/><stop offset=".7" stop-color="#b9b7b7"/><stop offset=".7" stop-color="#b7b5b5"/><stop offset=".7" stop-color="#b4b4b4"/><stop offset=".7" stop-color="#b3b3b3"/><stop offset=".7" stop-color="#b1b1b1"/><stop offset=".7" stop-color="#afafaf"/><stop offset=".7" stop-color="#aeadad"/><stop offset=".7" stop-color="#acabab"/><stop offset=".7" stop-color="#aaa"/><stop offset=".7" stop-color="#a8a8a8"/><stop offset=".7" stop-color="#a6a6a6"/><stop offset=".7" stop-color="#a3a3a3"/><stop offset=".8" stop-color="#a3a1a1"/><stop offset=".8" stop-color="#a19f9f"/><stop offset=".8" stop-color="#9f9d9d"/><stop offset=".8" stop-color="#9c9c9c"/><stop offset=".8" stop-color="#9a9a9a"/><stop offset=".8" stop-color="#989898"/><stop offset=".8" stop-color="#989696"/><stop offset=".8" stop-color="#969494"/><stop offset=".8" stop-color="#949292"/><stop offset=".8" stop-color="#929090"/><stop offset=".8" stop-color="#8f8f8f"/><stop offset=".8" stop-color="#8d8d8d"/><stop offset=".8" stop-color="#8d8b8b"/><stop offset=".8" stop-color="#8b8989"/><stop offset=".8" stop-color="#898787"/><stop offset=".8" stop-color="#878585"/><stop offset=".8" stop-color="#858383"/><stop offset=".8" stop-color="#828282"/><stop offset=".8" stop-color="#818080"/><stop offset=".8" stop-color="#7f7e7e"/><stop offset=".8" stop-color="#7d7c7c"/><stop offset=".8" stop-color="#7b7a7a"/><stop offset=".8" stop-color="#797878"/><stop offset=".8" stop-color="#777676"/><stop offset=".8" stop-color="#767575"/><stop offset=".8" stop-color="#747373"/><stop offset=".9" stop-color="#727171"/><stop offset=".9" stop-color="#717070"/><stop offset=".9" stop-color="#717070"/><stop offset="1" stop-color="#717070"/></linearGradient><linearGradient id="bL" x1="-.2" x2="1.2" y1="0" y2="0" gradientTransform="rotate(45 -413.3 2631.2)scale(32.29919)" gradientUnits="userSpaceOnUse"><stop offset="0" stop-color="#717070"/><stop offset=".1" stop-color="#717070"/><stop offset=".1" stop-color="#717070"/><stop offset=".1" stop-color="#717070"/><stop offset=".2" stop-color="#727171"/><stop offset=".2" stop-color="#737272"/><stop offset=".2" stop-color="#747373"/><stop offset=".2" stop-color="#757474"/><stop offset=".2" stop-color="#767575"/><stop offset=".2" stop-color="#767575"/><stop offset=".2" stop-color="#777676"/><stop offset=".2" stop-color="#787777"/><stop offset=".2" stop-color="#797878"/><stop offset=".2" stop-color="#7a7979"/><stop offset=".2" stop-color="#7b7a7a"/><stop offset=".2" stop-color="#7b7b7b"/><stop offset=".2" stop-color="#7c7b7b"/><stop offset=".2" stop-color="#7d7c7c"/><stop offset=".2" stop-color="#7e7d7d"/><stop offset=".2" stop-color="#7f7e7e"/><stop offset=".2" stop-color="#807f7f"/><stop offset=".2" stop-color="gray"/><stop offset=".2" stop-color="#818080"/><stop offset=".2" stop-color="#828181"/><stop offset=".2" stop-color="#838282"/><stop offset=".2" stop-color="#858383"/><stop offset=".2" stop-color="#868484"/><stop offset=".2" stop-color="#858585"/><stop offset=".2" stop-color="#868686"/><stop offset=".3" stop-color="#888686"/><stop offset=".3" stop-color="#898787"/><stop offset=".3" stop-color="#8a8888"/><stop offset=".3" stop-color="#8b8989"/><stop offset=".3" stop-color="#8c8a8a"/><stop offset=".3" stop-color="#8b8b8b"/><stop offset=".3" stop-color="#8d8b8b"/><stop offset=".3" stop-color="#8e8c8c"/><stop offset=".3" stop-color="#8f8d8d"/><stop offset=".3" stop-color="#908e8e"/><stop offset=".3" stop-color="#918f8f"/><stop offset=".3" stop-color="#909090"/><stop offset=".3" stop-color="#919191"/><stop offset=".3" stop-color="#939191"/><stop offset=".3" stop-color="#949292"/><stop offset=".3" stop-color="#959393"/><stop offset=".3" stop-color="#969494"/><stop offset=".3" stop-color="#959595"/><stop offset=".3" stop-color="#969696"/><stop offset=".3" stop-color="#989696"/><stop offset=".3" stop-color="#999797"/><stop offset=".3" stop-color="#9a9898"/><stop offset=".3" stop-color="#9b9999"/><stop offset=".3" stop-color="#9a9a9a"/><stop offset=".3" stop-color="#9b9b9b"/><stop offset=".3" stop-color="#9d9b9b"/><stop offset=".4" stop-color="#9e9c9c"/><stop offset=".4" stop-color="#9f9d9d"/><stop offset=".4" stop-color="#a09e9e"/><stop offset=".4" stop-color="#9f9f9f"/><stop offset=".4" stop-color="#a0a0a0"/><stop offset=".4" stop-color="#a1a1a1"/><stop offset=".4" stop-color="#a3a1a1"/><stop offset=".4" stop-color="#a4a2a2"/><stop offset=".4" stop-color="#a5a3a3"/><stop offset=".4" stop-color="#a5a4a5"/><stop offset=".4" stop-color="#a6a6a6"/><stop offset=".4" stop-color="#a7a7a7"/><stop offset=".4" stop-color="#a8a7a7"/><stop offset=".4" stop-color="#a9a8a8"/><stop offset=".4" stop-color="#aaa9a9"/><stop offset=".4" stop-color="#aaa"/><stop offset=".4" stop-color="#ababab"/><stop offset=".4" stop-color="#acacac"/><stop offset=".4" stop-color="#adadad"/><stop offset=".4" stop-color="#aeadad"/><stop offset=".4" stop-color="#afaeae"/><stop offset=".4" stop-color="#afafaf"/><stop offset=".4" stop-color="#b0b0b0"/><stop offset=".4" stop-color="#b1b1b1"/><stop offset=".4" stop-color="#b2b2b2"/><stop offset=".4" stop-color="#b3b2b2"/><stop offset=".5" stop-color="#b4b3b3"/><stop offset=".5" stop-color="#b5b3b3"/><stop offset=".5" stop-color="#b4b4b4"/><stop offset=".5" stop-color="#b5b5b5"/><stop offset=".5" stop-color="#b6b6b6"/><stop offset=".5" stop-color="#b7b7b7"/><stop offset=".5" stop-color="#b9b7b7"/><stop offset=".5" stop-color="#bab8b8"/><stop offset=".5" stop-color="#b9b9b9"/><stop offset=".5" stop-color="#bababa"/><stop offset=".5" stop-color="#bbb"/><stop offset=".5" stop-color="#bcbcbc"/><stop offset=".5" stop-color="#bebcbc"/><stop offset=".5" stop-color="#bfbdbd"/><stop offset=".5" stop-color="#bebebe"/><stop offset=".5" stop-color="#bfbfbf"/><stop offset=".5" stop-color="silver"/><stop offset=".5" stop-color="#c1c1c1"/><stop offset=".5" stop-color="#c2c2c2"/><stop offset=".5" stop-color="#c4c2c2"/><stop offset=".5" stop-color="#c3c3c3"/><stop offset=".5" stop-color="#c4c4c4"/><stop offset=".5" stop-color="#c5c5c5"/><stop offset=".5" stop-color="#c6c6c6"/><stop offset=".5" stop-color="#c7c7c7"/><stop offset=".6" stop-color="#c9c7c7"/><stop offset=".6" stop-color="#c8c8c8"/><stop offset=".6" stop-color="#c9c9c9"/><stop offset=".6" stop-color="#cacaca"/><stop offset=".6" stop-color="#cbcbcb"/><stop offset=".6" stop-color="#ccc"/><stop offset=".6" stop-color="#cecccc"/><stop offset=".6" stop-color="#cdcdcd"/><stop offset=".6" stop-color="#cecece"/><stop offset=".6" stop-color="#cfcfcf"/><stop offset=".6" stop-color="#d0d0d0"/><stop offset=".6" stop-color="#d1d1d1"/><stop offset=".6" stop-color="#d2d2d2"/><stop offset=".6" stop-color="#d2d2d2"/><stop offset=".6" stop-color="#d3d3d3"/><stop offset=".6" stop-color="#d4d4d4"/><stop offset=".6" stop-color="#d5d5d5"/><stop offset=".6" stop-color="#d6d6d6"/><stop offset=".6" stop-color="#d7d7d7"/><stop offset=".6" stop-color="#d7d7d7"/><stop offset=".6" stop-color="#d8d8d8"/><stop offset=".6" stop-color="#d9d9d9"/><stop offset=".6" stop-color="#d7d7d7"/><stop offset=".6" stop-color="#d5d5d5"/><stop offset=".6" stop-color="#d3d3d3"/><stop offset=".6" stop-color="#d1d1d1"/><stop offset=".7" stop-color="#cfcfcf"/><stop offset=".7" stop-color="#cecece"/><stop offset=".7" stop-color="#ccc"/><stop offset=".7" stop-color="#cacaca"/><stop offset=".7" stop-color="#c8c8c8"/><stop offset=".7" stop-color="#c6c6c6"/><stop offset=".7" stop-color="#c4c4c4"/><stop offset=".7" stop-color="#c4c2c2"/><stop offset=".7" stop-color="#c1c1c1"/><stop offset=".7" stop-color="#bfbfbf"/><stop offset=".7" stop-color="#bdbdbd"/><stop offset=".7" stop-color="#bbb"/><stop offset=".7" stop-color="#b9b9b9"/><stop offset=".7" stop-color="#b9b7b7"/><stop offset=".7" stop-color="#b7b5b5"/><stop offset=".7" stop-color="#b4b4b4"/><stop offset=".7" stop-color="#b3b3b3"/><stop offset=".7" stop-color="#b1b1b1"/><stop offset=".7" stop-color="#afafaf"/><stop offset=".7" stop-color="#aeadad"/><stop offset=".7" stop-color="#acabab"/><stop offset=".7" stop-color="#aaa"/><stop offset=".7" stop-color="#a8a8a8"/><stop offset=".7" stop-color="#a6a6a6"/><stop offset=".7" stop-color="#a3a3a3"/><stop offset=".8" stop-color="#a3a1a1"/><stop offset=".8" stop-color="#a19f9f"/><stop offset=".8" stop-color="#9f9d9d"/><stop offset=".8" stop-color="#9c9c9c"/><stop offset=".8" stop-color="#9a9a9a"/><stop offset=".8" stop-color="#989898"/><stop offset=".8" stop-color="#989696"/><stop offset=".8" stop-color="#969494"/><stop offset=".8" stop-color="#949292"/><stop offset=".8" stop-color="#929090"/><stop offset=".8" stop-color="#8f8f8f"/><stop offset=".8" stop-color="#8d8d8d"/><stop offset=".8" stop-color="#8d8b8b"/><stop offset=".8" stop-color="#8b8989"/><stop offset=".8" stop-color="#898787"/><stop offset=".8" stop-color="#878585"/><stop offset=".8" stop-color="#858383"/><stop offset=".8" stop-color="#828282"/><stop offset=".8" stop-color="#818080"/><stop offset=".8" stop-color="#7f7e7e"/><stop offset=".8" stop-color="#7d7c7c"/><stop offset=".8" stop-color="#7b7a7a"/><stop offset=".8" stop-color="#797878"/><stop offset=".8" stop-color="#777676"/><stop offset=".8" stop-color="#767575"/><stop offset=".8" stop-color="#747373"/><stop offset=".9" stop-color="#727171"/><stop offset=".9" stop-color="#717070"/><stop offset=".9" stop-color="#717070"/><stop offset="1" stop-color="#717070"/></linearGradient></defs><path fill="none" stroke="#000" stroke-linecap="round" stroke-linejoin="round" stroke-miterlimit="10" stroke-width=".2" d="M3766.6 34v48.2"/><path fill="#d9d9d9" stroke="#000" stroke-linecap="round" stroke-linejoin="round" stroke-miterlimit="10" stroke-width="2.8" d="m5840.8 2624-26.8 160.3c-.9 5.7-6.9 9.9-14 9.9H4464.2c-7.1 0-13.1-4.2-14-9.9l-26.8-160.2Zm0 0"/><path fill="none" stroke="#868686" stroke-linecap="round" stroke-linejoin="round" stroke-miterlimit="10" stroke-width="2" d="m4439 2624 28.2 170.2M4454.6 2624l27.5 170.2M4470.2 2624l26.9 170.2M4485.7 2624l26.3 170.2M4501.3 2624l25.7 170.2M4516.9 2624l25 170.2M4532.5 2624l24.4 170.2M4548 2624l23.8 170.2M4563.6 2624l23.2 170.2M4579.2 2624l22.5 170.2M4594.8 2624l21.9 170.2M4610.3 2624l21.3 170.2M4626 2624l20.6 170.2M4641.5 2624l20 170.2M4657 2624l19.5 170.2M4672.6 2624l18.8 170.2M4688.2 2624l18.2 170.2M4703.8 2624l17.5 170.2M4719.4 2624l16.9 170.2M4735 2624l16.2 170.2M4750.5 2624l15.7 170.2M4766 2624l15.1 170.2M4781.7 2624l14.4 170.2M4797.2 2624l13.8 170.2M4812.8 2624l13.2 170.2M4828.4 2624l12.5 170.2M4844 2624l11.9 170.2M4859.5 2624l11.3 170.2M4875.1 2624l10.7 170.2M4890.7 2624l10 170.2M4906.3 2624l9.4 170.2M4921.8 2624l8.8 170.2M4937.4 2624l8.2 170.2M4953 2624l7.5 170.2M4968.6 2624l6.9 170.2M4984.1 2624l6.3 170.2M4999.7 2624l5.7 170.2M5015.3 2624l5 170.2M5030.9 2624l4.4 170.2M5046.4 2624l3.8 170.2M5062 2624l3.2 170.2M5077.6 2624l2.5 170.2M5093.2 2624l1.9 170.2M5108.7 2624l1.3 170.2M5124.3 2624l.7 170.2M5139.9 2624v170.2M5155.5 2624l-.6 170.2M5171 2624l-1.2 170.2M5186.6 2624l-1.8 170.2M5202.2 2624l-2.5 170.2M5217.8 2624l-3.1 170.2M5233.3 2624l-3.7 170.2M5249 2624l-4.4 170.2M5264.5 2624l-5 170.2M5280 2624l-5.5 170.2M5295.6 2624l-6.2 170.2M5311.2 2624l-6.8 170.2M5326.8 2624l-7.5 170.2M5342.4 2624l-8.1 170.2M5358 2624l-8.8 170.2M5373.5 2624l-9.3 170.2M5389 2624l-9.9 170.2M5404.7 2624l-10.6 170.2M5420.2 2624l-11.2 170.2M5435.8 2624l-11.8 170.2M5451.4 2624l-12.5 170.2M5467 2624l-13.1 170.2M5482.5 2624l-13.7 170.2M5498.1 2624l-14.3 170.2M5513.7 2624l-15 170.2M5529.3 2624l-15.6 170.2M5544.8 2624l-16.2 170.2M5560.4 2624l-16.8 170.2M5576 2624l-17.5 170.2M5591.6 2624l-18.1 170.2M5607.1 2624l-18.7 170.2M5622.7 2624l-19.3 170.2M5638.3 2624l-20 170.2M5653.9 2624l-20.6 170.2M5669.4 2624l-21.2 170.2M5685 2624l-21.8 170.2M5700.6 2624l-22.5 170.2M5716.2 2624l-23.1 170.2M5731.7 2624l-23.7 170.2M5747.3 2624l-24.3 170.2M5762.9 2624l-25 170.2M5778.5 2624l-25.6 170.2M5794 2624l-26.2 170.2M5809.6 2624l-26.8 170.2M5825.2 2624l-27.5 170.2"/><path fill="#d9d9d9" d="M3784.3 2508q-.4 0-.8-.2L3565 2367q-.9-.7-.6-1.8l63.5-147.5a1.4 1.4 0 0 1 2-.7l280.5 165.3a1.4 1.4 0 0 1 .3 2.2l-125.3 123q-.4.4-1 .4"/><path d="m3629.1 2215.5-.8.1q-1.2.5-1.8 1.6l-63.5 147.6a3 3 0 0 0 1.1 3.5l218.7 140.7a3 3 0 0 0 3.5-.4l125.3-123a2.8 2.8 0 0 0-.6-4.5L3630.6 2216q-.7-.4-1.5-.4m0 2.8 280.5 165.3-125.3 123-218.7-140.7Zm0 0"/><g clip-path="url(#a)"><g clip-path="url(#b)"><path fill="none" stroke="#868686" stroke-linecap="round" stroke-linejoin="round" stroke-miterlimit="10" stroke-width="2" d="M3655.7 2196.2 3548.3 2436"/></g></g><g clip-path="url(#c)"><g clip-path="url(#d)"><path fill="none" stroke="#868686" stroke-linecap="round" stroke-linejoin="round" stroke-miterlimit="10" stroke-width="2" d="m3671.6 2206.3-112.7 237"/></g></g><g clip-path="url(#e)"><g clip-path="url(#f)"><path fill="none" stroke="#868686" stroke-linecap="round" stroke-linejoin="round" stroke-miterlimit="10" stroke-width="2" d="m3687.4 2216.4-117.8 234.4"/></g></g><g clip-path="url(#g)"><g clip-path="url(#h)"><path fill="none" stroke="#868686" stroke-linecap="round" stroke-linejoin="round" stroke-miterlimit="10" stroke-width="2" d="m3703.3 2226.4-123 231.8"/></g></g><g clip-path="url(#i)"><g clip-path="url(#j)"><path fill="none" stroke="#868686" stroke-linecap="round" stroke-linejoin="round" stroke-miterlimit="10" stroke-width="2" d="M3719.1 2236.5 3591 2465.7"/></g></g><g clip-path="url(#k)"><g clip-path="url(#l)"><path fill="none" stroke="#868686" stroke-linecap="round" stroke-linejoin="round" stroke-miterlimit="10" stroke-width="2" d="M3735 2246.6 3601.6 2473"/></g></g><g clip-path="url(#m)"><g clip-path="url(#n)"><path fill="none" stroke="#868686" stroke-linecap="round" stroke-linejoin="round" stroke-miterlimit="10" stroke-width="2" d="m3750.8 2256.7-138.6 223.8"/></g></g><g clip-path="url(#o)"><g clip-path="url(#p)"><path fill="none" stroke="#868686" stroke-linecap="round" stroke-linejoin="round" stroke-miterlimit="10" stroke-width="2" d="M3766.7 2266.7 3622.9 2488"/></g></g><g clip-path="url(#q)"><g clip-path="url(#r)"><path fill="none" stroke="#868686" stroke-linecap="round" stroke-linejoin="round" stroke-miterlimit="10" stroke-width="2" d="m3782.5 2276.8-149 218.6"/></g></g><g clip-path="url(#s)"><g clip-path="url(#t)"><path fill="none" stroke="#868686" stroke-linecap="round" stroke-linejoin="round" stroke-miterlimit="10" stroke-width="2" d="m3798.4 2286.9-154.2 215.9"/></g></g><g clip-path="url(#u)"><g clip-path="url(#v)"><path fill="none" stroke="#868686" stroke-linecap="round" stroke-linejoin="round" stroke-miterlimit="10" stroke-width="2" d="M3814.2 2297 3655 2510.1"/></g></g><g clip-path="url(#w)"><g clip-path="url(#x)"><path fill="none" stroke="#868686" stroke-linecap="round" stroke-linejoin="round" stroke-miterlimit="10" stroke-width="2" d="m3830 2307-164.4 210.6"/></g></g><g clip-path="url(#y)"><g clip-path="url(#z)"><path fill="none" stroke="#868686" stroke-linecap="round" stroke-linejoin="round" stroke-miterlimit="10" stroke-width="2" d="m3846 2317-169.8 208"/></g></g><g clip-path="url(#A)"><g clip-path="url(#B)"><path fill="none" stroke="#868686" stroke-linecap="round" stroke-linejoin="round" stroke-miterlimit="10" stroke-width="2" d="m3861.8 2327.2-174.9 205.3"/></g></g><g clip-path="url(#C)"><g clip-path="url(#D)"><path fill="none" stroke="#868686" stroke-linecap="round" stroke-linejoin="round" stroke-miterlimit="10" stroke-width="2" d="m3877.6 2337.2-180 202.7"/></g></g><g clip-path="url(#E)"><g clip-path="url(#F)"><path fill="none" stroke="#868686" stroke-linecap="round" stroke-linejoin="round" stroke-miterlimit="10" stroke-width="2" d="m3893.5 2347.3-185.3 200"/></g></g><g clip-path="url(#G)"><g clip-path="url(#H)"><path fill="none" stroke="#868686" stroke-linecap="round" stroke-linejoin="round" stroke-miterlimit="10" stroke-width="2" d="M3909.3 2357.4 3719 2554.7"/></g></g><path fill="#d9d9d9" d="M4776 1549.2c-267.6 286.4-581.4 543.9-850.5 829a29 29 0 0 1-36.6 5l-251.4-154.7c-10-6.1-13-19.1-7-29l796.8-1295.6 3.9 2.4a332 332 0 0 1 64.6 50.2c19.3 19.5 35 42.1 50.4 64.8 15.4 23 30.1 46.7 42.7 71.6a732 732 0 0 1 34.9 80.7 1124 1124 0 0 1 26.3 75c8.7 28.8 16 58.1 24.5 87a900 900 0 0 0 23 68q15.1 37.5 34.3 72.5 19.4 36 41.8 69.5 1 2.1 2.3 3.6"/><path fill="none" stroke="#000" stroke-linecap="round" stroke-linejoin="round" stroke-miterlimit="10" stroke-width="2.8" d="M4776 1549.2c-267.6 286.4-581.4 543.9-850.5 829a29 29 0 0 1-36.6 5l-251.4-154.7c-10-6.1-13-19.1-7-29l796.8-1295.6 3.9 2.4a332 332 0 0 1 64.6 50.2c19.3 19.5 35 42.1 50.4 64.8 15.4 23 30.1 46.7 42.7 71.6a732 732 0 0 1 34.9 80.7 1124 1124 0 0 1 26.3 75c8.7 28.8 16 58.1 24.5 87a900 900 0 0 0 23 68q15.1 37.5 34.3 72.5 19.4 36 41.8 69.5 1 2.1 2.3 3.6m0 0"/><path fill="#d9d9d9" d="M6479.7 2508q-.6 0-1-.4l-125.3-123a1.4 1.4 0 0 1 .2-2.2l280.5-165.3a1.4 1.4 0 0 1 2 .7l63.5 147.5q.4 1-.5 1.8l-218.7 140.7z"/><path d="M6634.8 2215.5q-.8 0-1.4.4L6352.9 2381a2.8 2.8 0 0 0-.5 4.5l125.3 123a3 3 0 0 0 3.5.4l218.6-140.7a3 3 0 0 0 1.1-3.6l-63.5-147.5a3 3 0 0 0-2.6-1.7m0 2.8 63.5 147.6-218.6 140.7-125.4-123Zm0 0"/><g clip-path="url(#I)"><g clip-path="url(#J)"><path fill="none" stroke="#868686" stroke-linecap="round" stroke-linejoin="round" stroke-miterlimit="10" stroke-width="2" d="m6608.3 2196.2 107.4 239.8"/></g></g><g clip-path="url(#K)"><g clip-path="url(#L)"><path fill="none" stroke="#868686" stroke-linecap="round" stroke-linejoin="round" stroke-miterlimit="10" stroke-width="2" d="m6592.4 2206.3 112.6 237"/></g></g><g clip-path="url(#M)"><g clip-path="url(#N)"><path fill="none" stroke="#868686" stroke-linecap="round" stroke-linejoin="round" stroke-miterlimit="10" stroke-width="2" d="m6576.5 2216.4 117.9 234.4"/></g></g><g clip-path="url(#O)"><g clip-path="url(#P)"><path fill="none" stroke="#868686" stroke-linecap="round" stroke-linejoin="round" stroke-miterlimit="10" stroke-width="2" d="m6560.7 2226.4 123 231.8"/></g></g><g clip-path="url(#Q)"><g clip-path="url(#R)"><path fill="none" stroke="#868686" stroke-linecap="round" stroke-linejoin="round" stroke-miterlimit="10" stroke-width="2" d="m6544.8 2236.5 128.2 229.2"/></g></g><g clip-path="url(#S)"><g clip-path="url(#T)"><path fill="none" stroke="#868686" stroke-linecap="round" stroke-linejoin="round" stroke-miterlimit="10" stroke-width="2" d="m6529 2246.6 133.4 226.5"/></g></g><g clip-path="url(#U)"><g clip-path="url(#V)"><path fill="none" stroke="#868686" stroke-linecap="round" stroke-linejoin="round" stroke-miterlimit="10" stroke-width="2" d="m6513.1 2256.7 138.6 223.8"/></g></g><g clip-path="url(#W)"><g clip-path="url(#X)"><path fill="none" stroke="#868686" stroke-linecap="round" stroke-linejoin="round" stroke-miterlimit="10" stroke-width="2" d="M6497.3 2266.7 6641 2488"/></g></g><g clip-path="url(#Y)"><g clip-path="url(#Z)"><path fill="none" stroke="#868686" stroke-linecap="round" stroke-linejoin="round" stroke-miterlimit="10" stroke-width="2" d="m6481.4 2276.8 149 218.6"/></g></g><g clip-path="url(#aa)"><g clip-path="url(#ab)"><path fill="none" stroke="#868686" stroke-linecap="round" stroke-linejoin="round" stroke-miterlimit="10" stroke-width="2" d="m6465.6 2286.9 154.1 215.9"/></g></g><g clip-path="url(#ac)"><g clip-path="url(#ad)"><path fill="none" stroke="#868686" stroke-linecap="round" stroke-linejoin="round" stroke-miterlimit="10" stroke-width="2" d="m6449.7 2297 159.4 213.2"/></g></g><g clip-path="url(#ae)"><g clip-path="url(#af)"><path fill="none" stroke="#868686" stroke-linecap="round" stroke-linejoin="round" stroke-miterlimit="10" stroke-width="2" d="m6433.9 2307 164.5 210.6"/></g></g><g clip-path="url(#ag)"><g clip-path="url(#ah)"><path fill="none" stroke="#868686" stroke-linecap="round" stroke-linejoin="round" stroke-miterlimit="10" stroke-width="2" d="m6418 2317 169.7 208"/></g></g><g clip-path="url(#ai)"><g clip-path="url(#aj)"><path fill="none" stroke="#868686" stroke-linecap="round" stroke-linejoin="round" stroke-miterlimit="10" stroke-width="2" d="m6402.2 2327.2 174.9 205.3"/></g></g><g clip-path="url(#ak)"><g clip-path="url(#al)"><path fill="none" stroke="#868686" stroke-linecap="round" stroke-linejoin="round" stroke-miterlimit="10" stroke-width="2" d="m6386.3 2337.2 180 202.7"/></g></g><g clip-path="url(#am)"><g clip-path="url(#an)"><path fill="none" stroke="#868686" stroke-linecap="round" stroke-linejoin="round" stroke-miterlimit="10" stroke-width="2" d="m6370.5 2347.3 185.2 200"/></g></g><g clip-path="url(#ao)"><g clip-path="url(#ap)"><path fill="none" stroke="#868686" stroke-linecap="round" stroke-linejoin="round" stroke-miterlimit="10" stroke-width="2" d="m6354.6 2357.4 190.5 197.3"/></g></g><path fill="#d9d9d9" d="M5488 1549.2c267.5 286.4 581.4 543.9 850.4 829a29 29 0 0 0 36.7 5l251.4-154.7c10-6.1 13-19.1 7-29L5836.6 903.8l-4 2.4a332 332 0 0 0-64.6 50.2c-19.3 19.5-35 42.1-50.3 64.8a676 676 0 0 0-42.7 71.6 732 732 0 0 0-35 80.7 1124 1124 0 0 0-26.2 75c-8.8 28.8-16.1 58.1-24.6 87q-10.2 34.6-23 68a672 672 0 0 1-34.2 72.5 890 890 0 0 1-41.9 69.5q-.9 2.1-2.2 3.6"/><path fill="none" stroke="#000" stroke-linecap="round" stroke-linejoin="round" stroke-miterlimit="10" stroke-width="2.8" d="M5488 1549.2c267.5 286.4 581.4 543.9 850.4 829a29 29 0 0 0 36.7 5l251.4-154.7c10-6.1 13-19.1 7-29L5836.6 903.8l-4 2.4a332 332 0 0 0-64.6 50.2c-19.3 19.5-35 42.1-50.3 64.8a676 676 0 0 0-42.7 71.6 732 732 0 0 0-35 80.7 1124 1124 0 0 0-26.2 75c-8.8 28.8-16.1 58.1-24.6 87q-10.2 34.6-23 68a672 672 0 0 1-34.2 72.5 890 890 0 0 1-41.9 69.5q-.9 2.1-2.2 3.6m0 0"/><path fill="#d9d9d9" d="M5923.5 2100.2c6.7-167.3 14-334.6 20.6-501.4q-1.8-.7-3.6-1c-20.1-3.5-40.3-10-57.3-21.5a127 127 0 0 1-36.5-38.7 203 203 0 0 1-21.8-54 424 424 0 0 1-14.2-71.5 796 796 0 0 1-3.1-83c0-30.3 0-61 .7-91.2 1.2-36 3.1-72.3 6-108q4.1-56.2 10-111.9c3.7-38.4 8-76.3 12-114.7q-2-.7-3.8-1.7l-23.5-8.4-27.3-9.6q-14-5-27.4-9.6l-27.8-9.3-27.4-9c-9.4-2.8-18.5-6-27.8-8.8l-27.9-8.2q-7-2.2-14-3.8l-14-4.3c-9.4-2.7-18.8-5-28.1-7.7q-14-3.8-28.1-7.5l-28.1-7.1-28.3-7q-14-3.5-28.3-6.5l-28.4-6.5-28.3-6c-18.5 22.4-36.5 44.4-59.7 59.8a203 203 0 0 1-76.6 27.3 534 534 0 0 1-78 6.5c-22.3.3-44.9 0-67.2 0h-8.4c-22.6 0-44.9.3-67.2 0-26.2-.7-51.8-1.9-78-6.5-26.9-4.5-54.2-12.7-76.6-27.3-23.2-15.4-41.2-37.4-59.7-59.8q-2.1.4-4.1 1l-24.2 5-28.4 6.5q-14.5 3.1-28.3 6.5-14.6 3.5-28.5 7l-28.1 7.1c-9.1 2.5-19 4.9-27.9 7.5q-14 3.8-28 7.7l-14.2 4.3q-6.8 1.6-14 3.8L4593 847q-13.8 4.4-27.8 8.9l-27.4 8.9q-13.8 4.6-27.8 9.3l-27.6 9.6-27.1 9.6-23.5 8.4q-1.9 1-4.1 1.7c4.3 38.4 8.6 76.3 12.2 114.7 3.9 37.2 7.5 74.4 10 111.9 2.7 35.7 4.9 72 5.9 108 1 30.2 1 61 1 91.2 0 27.8-.3 55.6-3.2 83a424 424 0 0 1-14.2 71.5c-5 18.7-11.7 37.2-21.8 54a127 127 0 0 1-36.5 38.7c-17 11.5-37.2 18-57.3 21.6-1.2.2-2.7.4-3.6 1q10 250.2 20.6 501.3c6 141.3 11.8 283.2 17.5 424.5v1c2.4 55 47.7 98.4 102.8 98.4h1342.2c55 0 100.4-43.4 102.7-98.4v-1c5.6-141.3 11.6-283.2 17.6-424.5"/><path fill="none" stroke="#000" stroke-linecap="round" stroke-linejoin="round" stroke-miterlimit="10" stroke-width="2.8" d="M5923.5 2100.2c6.7-167.3 14-334.6 20.6-501.4q-1.8-.7-3.6-1c-20.1-3.5-40.3-10-57.3-21.5a127 127 0 0 1-36.5-38.7 203 203 0 0 1-21.8-54 424 424 0 0 1-14.2-71.5 796 796 0 0 1-3.1-83c0-30.3 0-61 .7-91.2 1.2-36 3.1-72.3 6-108q4.1-56.2 10-111.9c3.7-38.4 8-76.3 12-114.7q-2-.7-3.8-1.7l-23.5-8.4-27.3-9.6q-14-5-27.4-9.6l-27.8-9.3-27.4-9c-9.4-2.8-18.5-6-27.8-8.8l-27.9-8.2q-7-2.2-14-3.8l-14-4.3c-9.4-2.7-18.8-5-28.1-7.7q-14-3.9-28.1-7.5-14-3.5-28.1-7.2-14-3.4-28.3-7c-9.4-2-18.7-4.5-28.3-6.4l-28.4-6.5-28.3-6c-18.5 22.4-36.5 44.4-59.7 59.8a203 203 0 0 1-76.6 27.3 534 534 0 0 1-78 6.5c-22.3.3-44.9 0-67.2 0h-8.4c-22.6 0-44.9.3-67.2 0-26.2-.7-51.8-1.9-78-6.5-26.9-4.5-54.2-12.7-76.6-27.3-23.2-15.4-41.2-37.4-59.7-59.8q-2.1.3-4.1 1l-24.2 5-28.4 6.5q-14.5 3.1-28.3 6.5-14.6 3.5-28.5 7l-28.1 7.1c-9.1 2.5-19 4.8-27.9 7.5q-14 3.8-28 7.7l-14.2 4.3q-6.8 1.6-14 3.8L4593 847q-13.8 4.5-27.8 8.9l-27.4 8.9q-13.8 4.6-27.8 9.3-13.6 4.6-27.6 9.6l-27.1 9.6-23.5 8.4q-1.9 1-4.1 1.7c4.3 38.4 8.6 76.3 12.2 114.7 3.9 37.2 7.5 74.4 10 111.9a2307 2307 0 0 1 6.8 199.2c0 27.8-.2 55.6-3.1 83a424 424 0 0 1-14.2 71.5c-5 18.7-11.7 37.2-21.8 54a127 127 0 0 1-36.5 38.7c-17 11.5-37.2 18-57.3 21.6-1.2.2-2.7.4-3.6 1q10 250.2 20.6 501.3c6 141.3 11.8 283.2 17.5 424.5v1c2.4 55 47.7 98.4 102.8 98.4h1342.2c55 0 100.4-43.4 102.7-98.4v-1c5.6-141.3 11.6-283.2 17.6-424.5m0 0"/><path fill="#d9d9d9" d="M5154.9 647.8C4914 647.8 4655 705 4655 705s-11.5 95.1 18 303c29.7 208 413.5 433.6 481.8 433.6 68.2 0 452-225.6 481.7-433.5s18-303.1 18-303.1-258.9-57.2-499.7-57.2"/><path fill="none" stroke="#000" stroke-linecap="round" stroke-linejoin="round" stroke-miterlimit="10" stroke-width="2.8" d="M5154.9 647.8C4914 647.8 4655 705 4655 705s-11.5 95.1 18 303c29.7 208 413.5 433.6 481.8 433.6 68.2 0 452-225.6 481.7-433.5s18-303.1 18-303.1-258.9-57.2-499.7-57.2M5154.9 647.8v793.8"/><path fill="none" stroke="#000" stroke-dasharray="5.332 5.332" stroke-linecap="round" stroke-linejoin="round" stroke-miterlimit="22.9" stroke-width="2.1" d="M5655.7 771.5s-259.5-57.2-500.8-57.2-500.8 57.2-500.8 57.2"/><path fill="none" stroke="#000" stroke-dasharray="5.332 5.332" stroke-linecap="round" stroke-linejoin="round" stroke-miterlimit="22.9" stroke-width="2.1" d="M5655.7 782.3s-259.5-57-500.8-57-500.8 57-500.8 57"/><path fill="#d9d9d9" stroke="#000" stroke-linecap="round" stroke-linejoin="round" stroke-miterlimit="10" stroke-width="2.8" d="m2504.8 2624-26.7 160.3c-1 5.7-7 9.9-14 9.9H1128.3c-7.1 0-13.1-4.2-14-9.9l-26.8-160.2Zm0 0"/><path fill="none" stroke="#868686" stroke-linecap="round" stroke-linejoin="round" stroke-miterlimit="10" stroke-width="2" d="m1103 2624 28.2 170.2M1118.7 2624l27.5 170.2M1134.2 2624l27 170.2M1149.8 2624l26.3 170.2M1165.4 2624l25.6 170.2M1181 2624l25 170.2M1196.5 2624l24.4 170.2M1212.1 2624l23.8 170.2M1227.7 2624l23.1 170.2M1243.3 2624l22.5 170.2M1258.8 2624l22 170.2M1274.4 2624l21.3 170.2M1290 2624l20.6 170.2M1305.6 2624l20 170.2M1321.1 2624l19.4 170.2M1336.7 2624l18.8 170.2M1352.3 2624l18.1 170.2M1367.9 2624l17.5 170.2M1383.4 2624l17 170.2M1399 2624l16.3 170.2M1414.6 2624l15.6 170.2M1430.2 2624l15 170.2M1445.7 2624l14.4 170.2M1461.3 2624l13.8 170.2M1476.9 2624l13.1 170.2M1492.5 2624l12.5 170.2M1508 2624l12 170.2M1523.6 2624l11.3 170.2M1539.2 2624l10.6 170.2M1554.8 2624l10 170.2M1570.3 2624l9.4 170.2M1586 2624l8.7 170.2M1601.5 2624l8.1 170.2M1617 2624l7.6 170.2M1632.6 2624l7 170.2M1648.2 2624l6.3 170.2M1663.8 2624l5.6 170.2M1679.4 2624l5 170.2M1695 2624l4.3 170.2M1710.5 2624l3.8 170.2M1726 2624l3.2 170.2M1741.7 2624l2.5 170.2M1757.2 2624l2 170.2M1772.8 2624l1.3 170.2M1788.4 2624l.6 170.2M1804 2624v170.2M1819.5 2624l-.6 170.2M1835.1 2624l-1.2 170.2M1850.7 2624l-1.9 170.2M1866.3 2624l-2.5 170.2M1881.8 2624l-3 170.2M1897.4 2624l-3.7 170.2M1913 2624l-4.4 170.2M1928.6 2624l-5 170.2M1944.1 2624l-5.6 170.2M1959.7 2624l-6.2 170.2M1975.3 2624l-6.9 170.2M1990.9 2624l-7.5 170.2M2006.4 2624l-8 170.2M2022 2624l-8.7 170.2M2037.6 2624l-9.3 170.2M2053.2 2624l-10 170.2M2068.7 2624l-10.6 170.2M2084.3 2624l-11.2 170.2M2099.9 2624l-11.8 170.2M2115.5 2624l-12.5 170.2M2131 2624l-13 170.2M2146.6 2624l-13.7 170.2M2162.2 2624l-14.3 170.2M2177.8 2624l-15 170.2M2193.3 2624l-15.5 170.2M2209 2624l-16.3 170.2M2224.5 2624l-16.8 170.2M2240 2624l-17.4 170.2M2255.6 2624l-18 170.2M2271.2 2624l-18.7 170.2M2286.8 2624l-19.3 170.2M2302.4 2624l-20 170.2M2318 2624l-20.6 170.2M2333.5 2624l-21.2 170.2M2349 2624l-21.7 170.2M2364.7 2624l-22.5 170.2M2380.2 2624l-23 170.2M2395.8 2624l-23.7 170.2M2411.4 2624l-24.3 170.2M2427 2624l-25 170.2M2442.5 2624l-25.5 170.2M2458.1 2624l-26.2 170.2M2473.7 2624l-26.8 170.2M2489.3 2624l-27.5 170.2"/><path fill="#d9d9d9" d="M442.2 2523.7q-.5 0-.8-.3l-218.7-140.7q-.8-.6-.5-1.7l63.5-147.6a1.4 1.4 0 0 1 1.3-.8q.4 0 .7.2L568.2 2398q.6.4.7 1 0 .8-.4 1.3l-125.4 123q-.3.4-1 .4"/><path d="M287 2231.2a3 3 0 0 0-2.6 1.7l-63.5 147.5a3 3 0 0 0 1 3.5l218.7 140.7a3 3 0 0 0 3.5-.3l125.4-123a2.8 2.8 0 0 0-.6-4.5l-280.5-165.3q-.6-.3-1.4-.3m0 2.8 280.5 165.3-125.3 123-218.7-140.8Zm0 0"/><g clip-path="url(#aq)"><g clip-path="url(#ar)"><path fill="none" stroke="#868686" stroke-linecap="round" stroke-linejoin="round" stroke-miterlimit="10" stroke-width="2" d="M313.6 2211.9 206 2451.6"/></g></g><g clip-path="url(#as)"><g clip-path="url(#at)"><path fill="none" stroke="#868686" stroke-linecap="round" stroke-linejoin="round" stroke-miterlimit="10" stroke-width="2" d="m329.4 2222-112.6 237"/></g></g><g clip-path="url(#au)"><g clip-path="url(#av)"><path fill="none" stroke="#868686" stroke-linecap="round" stroke-linejoin="round" stroke-miterlimit="10" stroke-width="2" d="m345.3 2232-117.9 234.5"/></g></g><g clip-path="url(#aw)"><g clip-path="url(#ax)"><path fill="none" stroke="#868686" stroke-linecap="round" stroke-linejoin="round" stroke-miterlimit="10" stroke-width="2" d="m361.1 2242.1-123 231.8"/></g></g><g clip-path="url(#ay)"><g clip-path="url(#az)"><path fill="none" stroke="#868686" stroke-linecap="round" stroke-linejoin="round" stroke-miterlimit="10" stroke-width="2" d="m377 2252.2-128.2 229.1"/></g></g><g clip-path="url(#aA)"><g clip-path="url(#aB)"><path fill="none" stroke="#868686" stroke-linecap="round" stroke-linejoin="round" stroke-miterlimit="10" stroke-width="2" d="m392.8 2262.3-133.4 226.5"/></g></g><g clip-path="url(#aC)"><g clip-path="url(#aD)"><path fill="none" stroke="#868686" stroke-linecap="round" stroke-linejoin="round" stroke-miterlimit="10" stroke-width="2" d="M408.7 2272.3 270 2496.2"/></g></g><g clip-path="url(#aE)"><g clip-path="url(#aF)"><path fill="none" stroke="#868686" stroke-linecap="round" stroke-linejoin="round" stroke-miterlimit="10" stroke-width="2" d="m424.5 2282.4-143.7 221.2"/></g></g><g clip-path="url(#aG)"><g clip-path="url(#aH)"><path fill="none" stroke="#868686" stroke-linecap="round" stroke-linejoin="round" stroke-miterlimit="10" stroke-width="2" d="m440.4 2292.5-149 218.5"/></g></g><g clip-path="url(#aI)"><g clip-path="url(#aJ)"><path fill="none" stroke="#868686" stroke-linecap="round" stroke-linejoin="round" stroke-miterlimit="10" stroke-width="2" d="m456.2 2302.5-154.1 216"/></g></g><g clip-path="url(#aK)"><g clip-path="url(#aL)"><path fill="none" stroke="#868686" stroke-linecap="round" stroke-linejoin="round" stroke-miterlimit="10" stroke-width="2" d="M472 2312.6 312.9 2526"/></g></g><g clip-path="url(#aM)"><g clip-path="url(#aN)"><path fill="none" stroke="#868686" stroke-linecap="round" stroke-linejoin="round" stroke-miterlimit="10" stroke-width="2" d="m488 2322.7-164.6 210.6"/></g></g><g clip-path="url(#aO)"><g clip-path="url(#aP)"><path fill="none" stroke="#868686" stroke-linecap="round" stroke-linejoin="round" stroke-miterlimit="10" stroke-width="2" d="m503.8 2332.8-169.7 208"/></g></g><g clip-path="url(#aQ)"><g clip-path="url(#aR)"><path fill="none" stroke="#868686" stroke-linecap="round" stroke-linejoin="round" stroke-miterlimit="10" stroke-width="2" d="m519.6 2342.8-174.8 205.3"/></g></g><g clip-path="url(#aS)"><g clip-path="url(#aT)"><path fill="none" stroke="#868686" stroke-linecap="round" stroke-linejoin="round" stroke-miterlimit="10" stroke-width="2" d="m535.5 2353-180 202.6"/></g></g><g clip-path="url(#aU)"><g clip-path="url(#aV)"><path fill="none" stroke="#868686" stroke-linecap="round" stroke-linejoin="round" stroke-miterlimit="10" stroke-width="2" d="m551.3 2363-185.2 200"/></g></g><g clip-path="url(#aW)"><g clip-path="url(#aX)"><path fill="none" stroke="#868686" stroke-linecap="round" stroke-linejoin="round" stroke-miterlimit="10" stroke-width="2" d="m567.2 2373-190.4 197.4"/></g></g><path fill="#d9d9d9" d="M1433.8 1564.9c-267.5 286.4-581.3 543.8-850.4 829a29 29 0 0 1-36.7 4.9l-251.4-154.6c-9.9-6.2-13-19.2-6.9-29.1l796.7-1295.5 4 2.4a332 332 0 0 1 64.6 50.2c19.3 19.5 35 42 50.3 64.8 15.4 23 30.2 46.7 42.7 71.6a733 733 0 0 1 35 80.6 1124 1124 0 0 1 26.2 75c8.8 28.9 16.1 58.2 24.6 87a900 900 0 0 0 23 68q15 37.6 34.2 72.6 19.5 36 41.9 69.4 1 2.1 2.2 3.7"/><path fill="none" stroke="#000" stroke-linecap="round" stroke-linejoin="round" stroke-miterlimit="10" stroke-width="2.8" d="M1433.8 1564.9c-267.5 286.4-581.3 543.8-850.4 829a29 29 0 0 1-36.7 4.9l-251.4-154.6c-9.9-6.2-13-19.2-6.9-29.1l796.7-1295.5 4 2.4a332 332 0 0 1 64.6 50.2c19.3 19.5 35 42 50.3 64.8 15.4 23 30.2 46.7 42.7 71.6a733 733 0 0 1 35 80.6 1124 1124 0 0 1 26.2 75c8.8 28.9 16.1 58.2 24.6 87a900 900 0 0 0 23 68q15 37.6 34.2 72.6 19.5 36 41.9 69.4c.5 1.5 1.5 2.6 2.2 3.7m0 0"/><path fill="#d9d9d9" d="M3152.7 2523.2q-.5 0-1-.5l-125.3-123a1.4 1.4 0 0 1 .3-2.2l280.5-165.2a1.4 1.4 0 0 1 2 .6l63.5 147.6q.3 1-.5 1.7L3153.5 2523q-.3.3-.8.3"/><path d="M3307.9 2230.6q-.8 0-1.4.4L3026 2396.3a2.8 2.8 0 0 0-.6 4.5l125.4 123a3 3 0 0 0 3.5.3l218.6-140.7a3 3 0 0 0 1.1-3.5l-63.5-147.5a3 3 0 0 0-2.6-1.8m0 2.9 63.5 147.5-218.7 140.7-125.3-123Zm0 0"/><g clip-path="url(#aY)"><g clip-path="url(#aZ)"><path fill="none" stroke="#868686" stroke-linecap="round" stroke-linejoin="round" stroke-miterlimit="10" stroke-width="2" d="m3281.3 2211.4 107.5 239.7"/></g></g><g clip-path="url(#ba)"><g clip-path="url(#bb)"><path fill="none" stroke="#868686" stroke-linecap="round" stroke-linejoin="round" stroke-miterlimit="10" stroke-width="2" d="m3265.5 2221.4 112.6 237.1"/></g></g><g clip-path="url(#bc)"><g clip-path="url(#bd)"><path fill="none" stroke="#868686" stroke-linecap="round" stroke-linejoin="round" stroke-miterlimit="10" stroke-width="2" d="m3249.6 2231.5 117.9 234.5"/></g></g><g clip-path="url(#be)"><g clip-path="url(#bf)"><path fill="none" stroke="#868686" stroke-linecap="round" stroke-linejoin="round" stroke-miterlimit="10" stroke-width="2" d="m3233.8 2241.6 123 231.8"/></g></g><g clip-path="url(#bg)"><g clip-path="url(#bh)"><path fill="none" stroke="#868686" stroke-linecap="round" stroke-linejoin="round" stroke-miterlimit="10" stroke-width="2" d="m3218 2251.7 128.1 229.1"/></g></g><g clip-path="url(#bi)"><g clip-path="url(#bj)"><path fill="none" stroke="#868686" stroke-linecap="round" stroke-linejoin="round" stroke-miterlimit="10" stroke-width="2" d="m3202 2261.7 133.5 226.5"/></g></g><g clip-path="url(#bk)"><g clip-path="url(#bl)"><path fill="none" stroke="#868686" stroke-linecap="round" stroke-linejoin="round" stroke-miterlimit="10" stroke-width="2" d="m3186.2 2271.8 138.6 223.9"/></g></g><g clip-path="url(#bm)"><g clip-path="url(#bn)"><path fill="none" stroke="#868686" stroke-linecap="round" stroke-linejoin="round" stroke-miterlimit="10" stroke-width="2" d="M3170.4 2281.9 3314 2503"/></g></g><g clip-path="url(#bo)"><g clip-path="url(#bp)"><path fill="none" stroke="#868686" stroke-linecap="round" stroke-linejoin="round" stroke-miterlimit="10" stroke-width="2" d="m3154.5 2292 149 218.5"/></g></g><g clip-path="url(#bq)"><g clip-path="url(#br)"><path fill="none" stroke="#868686" stroke-linecap="round" stroke-linejoin="round" stroke-miterlimit="10" stroke-width="2" d="m3138.7 2302 154.1 216"/></g></g><g clip-path="url(#bs)"><g clip-path="url(#bt)"><path fill="none" stroke="#868686" stroke-linecap="round" stroke-linejoin="round" stroke-miterlimit="10" stroke-width="2" d="m3122.8 2312.1 159.3 213.2"/></g></g><g clip-path="url(#bu)"><g clip-path="url(#bv)"><path fill="none" stroke="#868686" stroke-linecap="round" stroke-linejoin="round" stroke-miterlimit="10" stroke-width="2" d="m3107 2322.2 164.5 210.6"/></g></g><g clip-path="url(#bw)"><g clip-path="url(#bx)"><path fill="none" stroke="#868686" stroke-linecap="round" stroke-linejoin="round" stroke-miterlimit="10" stroke-width="2" d="m3091.1 2332.2 169.7 208"/></g></g><g clip-path="url(#by)"><g clip-path="url(#bz)"><path fill="none" stroke="#868686" stroke-linecap="round" stroke-linejoin="round" stroke-miterlimit="10" stroke-width="2" d="m3075.3 2342.3 174.8 205.3"/></g></g><g clip-path="url(#bA)"><g clip-path="url(#bB)"><path fill="none" stroke="#868686" stroke-linecap="round" stroke-linejoin="round" stroke-miterlimit="10" stroke-width="2" d="m3059.4 2352.4 180 202.6"/></g></g><g clip-path="url(#bC)"><g clip-path="url(#bD)"><path fill="none" stroke="#868686" stroke-linecap="round" stroke-linejoin="round" stroke-miterlimit="10" stroke-width="2" d="m3043.6 2362.5 185.2 200"/></g></g><g clip-path="url(#bE)"><g clip-path="url(#bF)"><path fill="none" stroke="#868686" stroke-linecap="round" stroke-linejoin="round" stroke-miterlimit="10" stroke-width="2" d="m3027.7 2372.5 190.4 197.4"/></g></g><path fill="#d9d9d9" d="M2161 1564.3c267.6 286.5 581.4 544 850.5 829.1a29 29 0 0 0 36.7 4.9l251.4-154.7c9.9-6 13-19 6.9-29L2509.8 919l-4 2.4a332 332 0 0 0-64.6 50.2c-19.3 19.4-35 42-50.3 64.7a677 677 0 0 0-42.7 71.7 733 733 0 0 0-35 80.6 1124 1124 0 0 0-26.2 75c-8.8 28.8-16.1 58.2-24.6 87q-10.2 34.7-23 68a672 672 0 0 1-34.2 72.6 890 890 0 0 1-41.9 69.4c-.5 1.4-1.5 2.6-2.2 3.6"/><path fill="none" stroke="#000" stroke-linecap="round" stroke-linejoin="round" stroke-miterlimit="10" stroke-width="2.8" d="M2161 1564.3c267.6 286.5 581.4 544 850.5 829.1a29 29 0 0 0 36.7 4.9l251.4-154.7c9.9-6 13-19 6.9-29L2509.8 919l-4 2.4a332 332 0 0 0-64.6 50.2c-19.3 19.4-35 42-50.3 64.7a677 677 0 0 0-42.7 71.7 733 733 0 0 0-35 80.6 1124 1124 0 0 0-26.2 75c-8.8 28.8-16.1 58.2-24.6 87q-10.2 34.7-23 68a672 672 0 0 1-34.2 72.6 890 890 0 0 1-41.9 69.4c-.5 1.4-1.5 2.6-2.2 3.6m0 0"/><path fill="#d9d9d9" d="M2593.3 2104.7c6.7-167 14-334.4 20.7-501.6q-2.3 0-4.4-.3a149 149 0 0 1-64-22.8 152 152 0 0 1-42.3-42.5q-6-9.3-11.5-19.6c-7.4-17.8-14.6-36-20.4-54.5a590 590 0 0 1-15.6-82.1c-4.3-31.2-8.6-62.4-10.3-93.6-1.5-32.9 0-65.8 2.6-98.6q3.9-49.4 12-97.5c5-30.5 11.5-61 19.7-90.7a662 662 0 0 1 26.4-78q1-1.9 1.7-3.8c-1.5-.3-2.9-1-4-1.2-7.8-3-15.7-5.3-23.9-8q-13.4-4.6-27.6-8.8c-9-3.2-18.4-5.8-27.8-8.7q-13.7-4-27.8-8.1-14.1-4.2-28.1-8.2l-28-7.4q-14.2-4.1-28.2-7.5-6.6-2-13.7-3.8-7-1.5-14.1-3.6-14-3.4-28.6-6.7-14-3.5-28.3-6.5-14-3.3-28.3-6.3-14.2-3-28.3-6l-28.6-5.7-28.6-5.3-24.4-4.3-4.5 3.2v.4c-1.5 29.7-7 59.3-16.9 87.6a321 321 0 0 1-44.2 85.4 418 418 0 0 1-59.5 65.8 246 246 0 0 1-53.3 38.1 205 205 0 0 1-83.2 22.1c-10.6.7-21.4.5-31.7.5-10.6 0-21.4.2-32-.5a205 205 0 0 1-83.2-22 258 258 0 0 1-53.3-38.2c-22-20-42.2-41.8-59.5-65.8a321 321 0 0 1-61-173.4l-4.5-3.2-24.3 4.3q-14.7 2.7-28.8 5.3l-28.5 5.7q-14.2 3-28.4 6-14.4 3-28.3 6.3c-9.6 2.1-19 4-28.3 6.5q-14.4 3.3-28.3 6.7c-5 1.4-9.4 2.6-14.2 3.6q-6.9 1.8-13.9 3.8-14 3.4-28 7.5l-28.2 7.4q-14 4-28 8.2-14.2 4-27.9 8.1c-9.3 2.9-18.7 5.5-27.8 8.7q-14.2 4.2-27.6 8.8c-8 2.7-16 5-23.5 8-1.5.2-3 1-4.4 1.2q.9 1.9 1.7 3.8c10.6 25.2 19 51.4 26.4 78a897 897 0 0 1 19.7 90.7q8.2 48.2 12 97.5c2.6 32.8 4 65.7 2.6 98.6-1.6 31.2-6 62.4-10.3 93.6-3.8 27.6-7.9 55.4-15.6 82a550 550 0 0 1-20.4 54.6 224 224 0 0 1-11.5 19.6 152 152 0 0 1-42.2 42.5 149 149 0 0 1-64.1 22.8q-2.2.4-4.3.3 10.5 250.9 20.6 501.6 9 212.4 17.8 424.8v1a102.5 102.5 0 0 0 102.4 98h1354a102.6 102.6 0 0 0 102.6-99q8.4-212.4 17.5-424.8"/><path fill="none" stroke="#000" stroke-linecap="round" stroke-linejoin="round" stroke-miterlimit="10" stroke-width="2.8" d="M2593.3 2104.7c6.7-167 14-334.4 20.7-501.6q-2.3 0-4.4-.3a149 149 0 0 1-64-22.8 152 152 0 0 1-42.3-42.5q-6-9.3-11.5-19.6c-7.4-17.8-14.6-36-20.4-54.5a590 590 0 0 1-15.6-82.1c-4.3-31.2-8.6-62.4-10.3-93.6-1.5-32.9 0-65.8 2.6-98.6q3.9-49.3 12-97.5c5-30.5 11.5-61 19.7-90.7a662 662 0 0 1 26.4-78q1-1.9 1.7-3.8c-1.5-.3-2.9-1-4-1.2-7.8-3-15.7-5.3-23.9-8q-13.4-4.6-27.6-8.8c-9-3.2-18.4-5.8-27.8-8.7q-13.7-4-27.8-8.1-14.1-4.2-28.1-8.2l-28-7.4q-14.2-4.1-28.2-7.5-6.6-2-13.7-3.8-7-1.5-14.1-3.6-14-3.4-28.6-6.7-14-3.5-28.3-6.5-14-3.3-28.3-6.3-14.2-3-28.3-6l-28.6-5.7-28.6-5.3-24.4-4.3-4.5 3.2v.4c-1.5 29.7-7 59.3-16.9 87.6a321 321 0 0 1-44.2 85.4 418 418 0 0 1-59.5 65.8 246 246 0 0 1-53.3 38.1 205 205 0 0 1-83.2 22.1c-10.6.7-21.4.5-31.7.5-10.6 0-21.4.2-32-.5a205 205 0 0 1-83.2-22 258 258 0 0 1-53.3-38.2c-22-20-42.2-41.8-59.5-65.8a321 321 0 0 1-61-173.4l-4.5-3.2-24.3 4.3q-14.7 2.7-28.8 5.3l-28.5 5.7q-14.2 3-28.4 6-14.4 3-28.3 6.3c-9.6 2.1-19 4-28.3 6.5q-14.4 3.3-28.3 6.7c-5 1.4-9.4 2.6-14.2 3.6q-6.9 1.8-13.9 3.8-14 3.4-28 7.5l-28.2 7.4q-14 4-28 8.2-14.2 4-27.9 8.1c-9.3 2.9-18.7 5.5-27.8 8.7q-14.2 4.2-27.6 8.8c-8 2.7-16 5-23.5 8-1.5.2-3 1-4.4 1.2q.9 1.9 1.7 3.8c10.6 25.2 19 51.4 26.4 78a897 897 0 0 1 19.7 90.7q8.2 48.2 12 97.5c2.6 32.8 4 65.7 2.6 98.6-1.6 31.2-6 62.4-10.3 93.6-3.8 27.6-7.9 55.4-15.6 82a550 550 0 0 1-20.4 54.6 224 224 0 0 1-11.5 19.6 152 152 0 0 1-42.2 42.5 149 149 0 0 1-64.1 22.8q-2.2.4-4.3.3 10.5 250.9 20.6 501.6 9 212.4 17.8 424.8v1a102.5 102.5 0 0 0 102.4 98h1354a102.6 102.6 0 0 0 102.6-99q8.4-212.4 17.5-424.8m0 0"/><path fill="#d9d9d9" stroke="#000" stroke-linecap="round" stroke-linejoin="round" stroke-miterlimit="10" stroke-width="2.8" d="M2306.4 2628.6v-255.1c-51.8-132-104.2-264.5-156-397H1442l-156 397v255Zm0 0"/><path fill="none" stroke="#393938" stroke-dasharray="5 5" stroke-linecap="round" stroke-linejoin="round" stroke-miterlimit="22.9" stroke-width="2" d="M2156 1991.6h-720M1287 2521.5c45.7-116.7 175.6-429.3 221-545M1286 2556.7c45.8-116.7 192.8-464.5 238.3-580.2M2303.7 2521.5c-45.8-116.7-175.6-429.3-221-545M2304.7 2556.7c-45.8-116.7-192.9-464.5-238.3-580.2M2079 971.4l-.7 1.4-.4.6-6.2 10.8-.3.5-6.7 10.6-.4.6-7.2 10.2-.3.3-7.6 10-.5.6-8 9.5-.3.4-8.4 9.2-.6.5-8.8 8.8-.5.5-9.3 8.3-.3.3-9.5 7.9-.6.5-10 7.4-.5.4-10.4 7-.5.3-10.5 6.5-.6.3-11 6-.3.2-11 5.7-.7.2-11.4 5.2-.5.2-11.5 4.7-.5.2-11.7 4.2-.5.2-12 3.7-.3.1-11.9 3.4-.7.2-12.1 2.7-.4.1-12.1 2.4-.7.1-12.2 1.8-.4.1-12.3 1.4h-.5l-12.3 1h-.7l-18.5.6h-14.9l-18.5-.5h-.7l-12.4-1h-.5l-12.3-1.5h-.4l-12.2-1.9h-.7l-12.1-2.5h-.4l-12-2.8-.7-.2-12-3.4h-.4l-11.8-3.8-.5-.2-11.8-4.2-.5-.2-11.5-4.7-.6-.2-11.3-5.2-.5-.2-11.1-5.7-.5-.2-10.9-6-.6-.3-10.5-6.5-.6-.4-10.2-7q-.2 0-.5-.3l-10-7.4-.5-.5-9.6-7.9q-.3 0-.4-.3l-9.3-8.3-.5-.5-8.9-8.8-.5-.5-8.4-9.2-.3-.4-8-9.5-.5-.6-7.6-10-.3-.4-7.1-10.2-.3-.5-6.8-10.6-.3-.5-6.2-10.8-.3-.5-1-2"/><path fill="#b2b2b0" stroke="#000" stroke-linecap="round" stroke-linejoin="round" stroke-miterlimit="10" stroke-width="3.2" d="m1739.5 987 50 .2h13.7l50-.3 31.3-1 19.8-1.5C1972.7 893 2011.2 790 2011.2 790c-62.1 5.8-125.5 9.5-214.8 11.6h-.5c-89.3-2-152.7-5.8-214.8-11.6 0 .2 38.6 103 106.9 194.4l20 1.5Zm0 0"/><path fill="#b2b2b0" stroke="#000" stroke-linecap="round" stroke-linejoin="round" stroke-miterlimit="10" stroke-width="2.8" d="m1875.4 986-28 1-45 .2h-12.2l-44.9-.2-28.1-1-18-1.3q0 0 0 0l11.6 15 .2.2q6 7.4 12.3 14.6 0 0 0 0 14.6 16.8 30.6 31.7h0a382 382 0 0 1 42.3 27 382 382 0 0 1 42.2-27 472 472 0 0 0 54.7-61.5q0 0 0 0Zm0 0"/><path fill="#d9d9d9" d="M2355.5 804.3s-21.6-169.3-94-281.9c-124.2-193.4-368-367.8-465.3-367.8h-.1c-97.3 0-341 174.4-465.3 367.8-72.4 112.6-94 281.9-94 281.9 9.7-39 88.1-39.6 203.9-25.5 129.4 15.7 202.4 24.3 355.2 27.9h.4c152.8-3.6 225.9-12.2 355.3-28 115.8-14 194.2-13.3 203.9 25.6"/><path fill="none" stroke="#000" stroke-linecap="round" stroke-linejoin="round" stroke-miterlimit="10" stroke-width="3" d="M2355.5 804.3s-21.6-169.3-94-281.9c-124.2-193.4-368-367.8-465.3-367.8h-.1c-97.3 0-341 174.4-465.3 367.8-72.4 112.6-94 281.9-94 281.9 9.7-39 88.1-39.6 203.9-25.5 129.4 15.7 202.4 24.3 355.2 27.9h.4c152.8-3.6 225.9-12.2 355.3-28 115.8-14 194.2-13.3 203.9 25.6m0 0"/><path fill="none" stroke="#393938" stroke-dasharray="5 5" stroke-linecap="round" stroke-linejoin="round" stroke-miterlimit="22.9" stroke-width="2" d="M1253.8 716.8c9.4-38.9 88-37.1 199.7-23 124.7 15.7 195.1 24.3 342.5 27.8h.3c147.3-3.5 217.8-12.1 342.5-27.9 111.7-14 191.4-11 200.8 28"/><path fill="none" stroke="#393938" stroke-dasharray="5 5" stroke-linecap="round" stroke-linejoin="round" stroke-miterlimit="22.9" stroke-width="2" d="M1248.7 738.9c9.4-39 93.1-41.1 204.8-27 124.7 15.7 195.1 24.3 342.5 27.8h.3c147.3-3.5 217.8-12.1 342.5-27.8 111.7-14.1 194.4-12.4 203.7 26.5"/><path fill="#d9d9d9" d="m1531.4 974.3 1.7 2.8 6.7 10.6 7.2 10.2 7.6 10 8 9.4 8.4 9.3 8.9 8.7 9.2 8.3 9.5 8 10 7.4 10.3 7 10.6 6.4 10.9 6 11 5.6 11.4 5.2 11.5 4.7 11.7 4.2 11.9 3.7 11.8 3.4 12.2 2.7 12 2.4 12.3 1.8 7.9 1 4.4.5 12.2 1 18.5.4h14.1l18.5-.5 12.4-1 4.4-.5c-.3-.4-50.5-74.6-223.1-120.7a928 928 0 0 0-84-18"/><path fill="none" stroke="#000" stroke-linecap="round" stroke-linejoin="round" stroke-miterlimit="10" stroke-width="2.8" d="m1531.4 974.3 1.7 2.8 6.7 10.6 7.2 10.2 7.6 10 8 9.4 8.4 9.3 8.9 8.7 9.2 8.3 9.5 8 10 7.4 10.3 7 10.6 6.4 10.9 6 11 5.6 11.4 5.2 11.5 4.7 11.7 4.2 11.9 3.7 11.8 3.4 12.2 2.7 12 2.4 12.3 1.8 7.9 1 4.4.5 12.2 1 18.5.4h14.1l18.5-.5 12.4-1 4.4-.5c-.3-.4-50.5-74.6-223.1-120.7h0a928 928 0 0 0-84-18m0 0"/><path fill="none" stroke="#000" stroke-linecap="round" stroke-linejoin="round" stroke-miterlimit="22.9" stroke-width="5.3" d="M1796 154.6v828.9"/><path fill="#d9d9d9" stroke="#000" stroke-linecap="round" stroke-linejoin="round" stroke-miterlimit="10" stroke-width="3" d="M1751.3 1046.2c-101.1-93-160-250.5-160-250.5-47-4.4-93.3-10-150.6-17-66-8-120-11.2-155.8-5.2-27 4.4-43.9 14-48 30.8-15.2 60.5 94.8 142.2 219.3 157 56.7 6.8 105.7 16.4 147.7 27.6a654 654 0 0 1 143.4 55.2l3.9 2.3Zm0 0"/><path fill="#d9d9d9" d="M2355.5 804.3c-4.2-16.7-21-26.4-48-30.8-36-6-89.8-2.7-155.9 5.3a5261 5261 0 0 1-150.6 16.9s-58.9 157.4-160 250.5l.1.2 4-2.3c35-19 81.9-38.8 143.3-55.2 42-11.2 91-20.8 147.7-27.5 124.5-14.9 234.5-96.6 219.4-157.1"/><path fill="none" stroke="#000" stroke-linecap="round" stroke-linejoin="round" stroke-miterlimit="10" stroke-width="3" d="M2355.5 804.3c-4.2-16.7-21-26.4-48-30.8-36-6-89.8-2.7-155.9 5.3-57.3 7-103.5 12.5-150.6 16.9 0 0-58.9 157.4-160 250.5l.1.2 4-2.3c35-19 81.9-38.8 143.3-55.2 42-11.2 91-20.8 147.7-27.5 124.5-14.9 234.5-96.6 219.4-157.1m0 0"/><path fill="none" stroke="#393938" stroke-dasharray="5 5" stroke-linecap="round" stroke-linejoin="round" stroke-miterlimit="22.9" stroke-width="2" d="M2291 771.5s-4.6 81.4-163.7 136.9c-199 69.3-263 114.7-263 114.7M1301.6 771.5s4.5 81.4 163.6 136.9c199 69.3 263.1 114.7 263.1 114.7"/><path fill="none" stroke="#393938" stroke-dasharray="5 5" stroke-linecap="round" stroke-linejoin="round" stroke-miterlimit="22.9" stroke-width="2" d="M1280 777.3s4.5 81.5 163.6 137c199 69.3 277.5 116.5 277.5 116.5M2305.3 777.3s-4.5 81.5-163.6 137c-199 69.3-277.5 116.5-277.5 116.5"/><path fill="#d9d9d9" d="M1977 992.3c-172.6 46-222.8 120.3-223.1 120.7l4.4.6 12.4 1 18.5.4h14.1l18.5-.5 12.3-1 4.3-.5 7.9-.9 12.2-1.8 12.2-2.4 12-2.7 12-3.4 11.8-3.7 11.7-4.2 11.5-4.7 11.4-5.2 11-5.6 11-6 10.5-6.5 10.3-7 10-7.4 9.5-7.9 9.2-8.3 8.9-8.7 8.4-9.3 8-9.5 7.6-10 7.2-10.1 6.7-10.6 1.7-2.8a928 928 0 0 0-84 18"/><path fill="none" stroke="#000" stroke-linecap="round" stroke-linejoin="round" stroke-miterlimit="10" stroke-width="2.8" d="M1977 992.3zc-172.6 46-222.8 120.3-223.1 120.7l4.4.6 12.4 1 18.5.4h14.1l18.5-.5 12.3-1 4.3-.5 7.9-.9 12.2-1.8 12.2-2.4 12-2.7 12-3.4 11.8-3.7 11.7-4.2 11.5-4.7 11.4-5.2 11-5.6 11-6 10.5-6.5 10.3-7 10-7.4 9.5-7.9 9.2-8.3 8.9-8.7 8.4-9.3 8-9.5 7.6-10 7.2-10.1 6.7-10.6 1.7-2.8a928 928 0 0 0-84 18m0 0"/><path fill="none" stroke="#393938" stroke-dasharray="4.979 4.979" stroke-linecap="round" stroke-linejoin="round" stroke-miterlimit="22.9" stroke-width="2" d="M1854 1111s66.8-78.2 122-118.6h0M1838.6 1113s63.5-74.7 118.8-115.1M1753.9 1113s-63.5-74.7-118.8-115.1"/><path fill="none" stroke="#393938" stroke-dasharray="5 5" stroke-linecap="round" stroke-linejoin="round" stroke-miterlimit="22.9" stroke-width="2" d="M1738.5 1111s-67.4-78.2-123-118.6h0"/><path fill="#b2b2b0" d="m1893.1 984.7-17.7 1.3-28 1-45 .2h-12.2l-44.9-.2-28.1-1-18-1.3 11.6 15 .2.2q6 7.4 12.3 14.6l22 .8 44.9.2h12.3l44.8-.2 21.8-.7a494 494 0 0 0 24-30"/><path fill="none" stroke="#000" stroke-linecap="round" stroke-linejoin="round" stroke-miterlimit="10" stroke-width="2.8" d="M1893.1 984.7q0 0 0 0l-17.7 1.3-28 1-45 .2h-12.2l-44.9-.2-28.1-1-18-1.3q0 0 0 0l11.6 15 .2.2q6 7.4 12.3 14.6 0 0 0 0l22 .8 44.9.2h12.3l44.8-.2 21.8-.7a494 494 0 0 0 24-30m0 0"/><g clip-path="url(#bG)"><g clip-path="url(#bH)"><path fill="url(#bI)" d="m1841 1042-32.4 32.3 32.3 32.3 32.3-32.3Zm0 0"/></g></g><path fill="none" stroke="#393938" stroke-linecap="round" stroke-linejoin="round" stroke-miterlimit="22.9" stroke-width="1.8" d="M1841 1084.3a10 10 0 1 1 0-19.9 10 10 0 0 1 0 19.9m0-26.1a16.1 16.1 0 1 0 0 32.3 16.1 16.1 0 0 0 0-32.3m0 0"/><g clip-path="url(#bJ)"><g clip-path="url(#bK)"><path fill="url(#bL)" d="m1751 1042-32.4 32.3 32.3 32.3 32.3-32.3Zm0 0"/></g></g><path fill="none" stroke="#393938" stroke-linecap="round" stroke-linejoin="round" stroke-miterlimit="22.9" stroke-width="1.8" d="M1751 1084.3a10 10 0 1 1 0-19.9 10 10 0 0 1 0 19.9m0-26.1a16.1 16.1 0 1 0 0 32.3 16.1 16.1 0 0 0 0-32.3m0 0"/><path fill="#3d3c3c" d="M1750.6 1882a7 7 0 0 1-7-7v-800.8a7 7 0 0 1 14 0V1875a7 7 0 0 1-7 7"/><path fill="none" stroke="#000" stroke-linecap="round" stroke-linejoin="round" stroke-miterlimit="10" stroke-width="2.8" d="M1750.6 1882a7 7 0 0 1-7-7v-800.8a7 7 0 0 1 14 0V1875a7 7 0 0 1-7 7m0 0"/><path fill="#3d3c3c" d="M1750.6 1883.5a8.4 8.4 0 0 1-8.5-8.5v-43.5q.2-1.3 1.5-1.4h14q1.2.1 1.4 1.4v43.5c0 4.7-3.8 8.5-8.4 8.5"/><path d="M1757.6 1828.6h-14a3 3 0 0 0-2.9 2.9v43.5a9.8 9.8 0 0 0 19.7 0v-43.5c0-1.6-1.3-2.9-2.8-2.9m0 2.9v43.5a7 7 0 0 1-14 0v-43.5Zm0 0"/><path fill="#3d3c3c" d="M1841 1882a7 7 0 0 1-7-7v-800.8a7 7 0 1 1 14 0V1875a7 7 0 0 1-7 7"/><path fill="none" stroke="#000" stroke-linecap="round" stroke-linejoin="round" stroke-miterlimit="10" stroke-width="2.8" d="M1841 1882a7 7 0 0 1-7-7v-800.8a7 7 0 1 1 14 0V1875a7 7 0 0 1-7 7m0 0"/><path fill="#3d3c3c" d="M1841 1883.5a8.4 8.4 0 0 1-8.5-8.5v-43.5q.1-1.3 1.4-1.4h14q1.3.1 1.4 1.4v43.5c0 4.7-3.7 8.5-8.4 8.5"/><path d="M1848 1828.6h-14a3 3 0 0 0-3 2.9v43.5a9.9 9.9 0 0 0 19.7 0v-43.5c0-1.6-1.2-2.9-2.8-2.9m0 2.9v43.5a7 7 0 0 1-14 0v-43.5Zm0 0"/></svg>