<svg xmlns="http://www.w3.org/2000/svg" viewBox="0 0 3926 2693"><path fill="#d9d9d9" d="M1560.2 958.4Q1046 1534.6 532 2111l-325.2-201.7 936.1-1509.8q2 .8 3.8 2a369 369 0 0 1 64.2 42.8q30.7 24.3 58.6 51.7c19.2 18.5 37.8 38 53.8 59.6 16.3 22.2 29.8 46.6 43.9 70.6 12.9 22.3 25.7 44.6 37.4 67.3 12.4 24 23.5 48.6 35 73q16.6 34.7 34 68.8c11 22.2 22.1 44 35.8 64.5a305 305 0 0 0 47.8 55.7z"/><path fill="none" stroke="#000" stroke-linecap="round" stroke-linejoin="round" stroke-miterlimit="10" stroke-width="2.8" d="M1560.2 958.4Q1046 1534.6 532 2111l-325.2-201.7 936.1-1509.8q2 .8 3.8 2a369 369 0 0 1 64.2 42.8q30.7 24.4 58.6 51.7c19.2 18.5 37.8 38 53.8 59.6 16.3 22.2 29.8 46.6 43.9 70.6 12.9 22.3 25.7 44.6 37.4 67.3 12.4 24 23.5 48.6 35 73q16.6 34.7 34 68.8c11 22.2 22.1 44 35.8 64.5a305 305 0 0 0 47.8 55.7zm0 0"/><path fill="none" stroke="#000" stroke-dasharray="10.128 10.128" stroke-linecap="round" stroke-linejoin="round" stroke-miterlimit="10" stroke-width="2.9" d="m238.3 1858.6 333 208.4M249.8 1844l333 208.4"/><path fill="#d9d9d9" d="M2341.6 958.4q514.2 576.2 1028.2 1152.6l325.2-201.7L2759 399.5q-2 .8-3.8 2a369 369 0 0 0-64.2 42.8 778 778 0 0 0-58.6 51.7 490 490 0 0 0-53.8 59.6c-16.3 22.2-29.8 46.6-43.9 70.6a1646 1646 0 0 0-37.4 67.3c-12.4 24-23.5 48.6-35 73q-16.6 34.7-34 68.8a578 578 0 0 1-35.8 64.5 304 304 0 0 1-47.8 55.7z"/><path fill="none" stroke="#000" stroke-linecap="round" stroke-linejoin="round" stroke-miterlimit="10" stroke-width="2.8" d="M2341.6 958.4q514.2 576.2 1028.2 1152.6l325.2-201.7L2759 399.5q-2 .8-3.8 2a369 369 0 0 0-64.2 42.8 778 778 0 0 0-58.6 51.7 490 490 0 0 0-53.8 59.6c-16.3 22.2-29.8 46.6-43.9 70.6a1646 1646 0 0 0-37.4 67.3c-12.4 24-23.5 48.6-35 73q-16.6 34.7-34 68.8a578 578 0 0 1-35.8 64.5 304 304 0 0 1-47.8 55.7zm0 0"/><path fill="none" stroke="#000" stroke-dasharray="10.128 10.128" stroke-linecap="round" stroke-linejoin="round" stroke-miterlimit="10" stroke-width="2.9" d="m3663.6 1858.6-333 208.4M3652 1844l-333 208.4"/><path fill="#d9d9d9" stroke="#000" stroke-linecap="round" stroke-linejoin="round" stroke-miterlimit="10" stroke-width="2.8" d="M2283 444h-647.2l57.7-189.2c27.8 9 55.6 18.2 84.2 22.7 30.4 5 61.5 5 92.4 5h170.1c31 0 61.8-1.3 92.4-5 30.3-3.4 61-9.4 88.5-24.1a157 157 0 0 0 14.3-8.5Zm0 0"/><path fill="#d9d9d9" d="M2392.4 447.3c0 262.8-195.8 476-437.2 476-241.5 0-437.3-213.2-437.3-476 0-56.7 9.1-111 25.8-161.5l87.7-32.4 1.8 4c9.6 24.3 32.2 40.5 55.2 56.7 29.5 9.6 59 19.5 89.3 24.3 30.4 5.1 61.5 5.1 92.4 5.1h170.1c31 0 61.8-1.4 92.4-5 30.3-3.5 61-9.4 88.5-24.2 24.3-12.7 46.5-32 56-57l1.8-3.9 87.7 32.4a513 513 0 0 1 25.8 161.5"/><path fill="none" stroke="#000" stroke-linecap="round" stroke-linejoin="round" stroke-miterlimit="10" stroke-width="2.8" d="M2392.4 447.3c0 262.8-195.8 476-437.2 476-241.5 0-437.3-213.2-437.3-476 0-56.7 9.1-111 25.8-161.5l87.7-32.4 1.8 4c9.6 24.3 32.2 40.5 55.2 56.7 29.5 9.6 59 19.5 89.3 24.3a558 558 0 0 0 92.4 5.1h170.1c31 0 61.8-1.4 92.4-5 30.3-3.5 61-9.4 88.5-24.2 24.3-12.7 46.5-32 56-57l1.8-3.9 87.7 32.4a513 513 0 0 1 25.8 161.5m0 0"/><path fill="none" stroke="#000" stroke-dasharray="10.128 10.128" stroke-linecap="round" stroke-linejoin="round" stroke-miterlimit="10" stroke-width="2.9" d="M1688.4 343.2c29.5 9.6 59 19.6 89.3 24.4a558 558 0 0 0 92.4 5h170.1c31 0 61.8-1.4 92.4-5 30.3-3.5 61-9.4 88.5-24.2"/><path fill="#d9d9d9" stroke="#000" stroke-linecap="round" stroke-linejoin="round" stroke-miterlimit="10" stroke-width="2.8" d="M1136 1030.4c11.6-.5 23.1-1.1 34.8-2.8 9.9-1.5 19.8-3.4 29-7.4a92 92 0 0 0 37.9-32.6c9.4-14.4 14.4-31.2 19.5-48q.5-1.5.9-3.3c4.8-22.4 6.2-45.6 5.7-68.6-.3-27.8-3.1-55.3-7.2-82.5-4.7-31.5-11-62.9-17.8-94q-11.5-51.5-25.8-102.5-15-54.1-32.9-107.4c-9.3-27.4-19.5-55-29.5-82.2l496.7-154 .8 4.1q9.6 43.4 29 83.9a466 466 0 0 0 48.5 79.9 379 379 0 0 0 63.7 68 265 265 0 0 0 77.4 44.3c27 9.6 55.8 14.4 84.2 13q2.1 0 4.2-.3 2.2.4 4.3.3c28.3 1.4 57.3-3.4 84.2-13a265 265 0 0 0 77.3-44.3 381 381 0 0 0 63.8-68 466 466 0 0 0 48.5-80q19.4-40.5 29-83.8l.8-4 496.6 154q-15.2 40.8-29.5 82.1-18 53.3-32.8 107.4-14.4 50.9-25.9 102.4-10.4 46.9-17.8 94c-4 27.3-6.8 54.8-7.1 82.6-.6 23 .8 46.2 5.7 68.6l.8 3.4a187 187 0 0 0 19.6 48 92 92 0 0 0 38 32.5c9 4 19 6 28.9 7.4 11.6 1.7 23.2 2.3 34.9 2.8v1392.4H1136V1031"/><path fill="#d9d9d9" d="M2222 231.2c-75.1 192.5-144 225.9-175.5 238.6a269 269 0 0 1-91.3 19.8c-30.5-1-61.8-7.8-91.4-19.8-31.5-12.7-100.4-46.1-175.5-238.6-14.5 3.1-52.5 17.4-52.5 20.7.1 8.1 4.2 14.8 6.1 20.6q1.6 4.5 3.4 9.2v.1a456 456 0 0 0 7.1 17.8 525 525 0 0 0 50 91.4c22.1 32.5 44.8 59 69.3 80.7q42.6 37.8 90.1 56.9c22.6 9.1 90.4 32.5 186.7 0 32.1-11 61.8-31.8 90-56.8l.2-.1a429 429 0 0 0 69.2-80.7 525 525 0 0 0 60.5-118.5c2-5.8 6-12.5 6.1-20.6 0-3.3-38-17.6-52.5-20.7"/><path fill="none" stroke="#000" stroke-linecap="round" stroke-linejoin="round" stroke-miterlimit="10" stroke-width="2.8" d="M2222 231.2c-75.1 192.5-144 225.9-175.5 238.6a269 269 0 0 1-91.3 19.8c-30.5-1-61.8-7.8-91.4-19.8-31.5-12.7-100.4-46.1-175.5-238.6-14.5 3.1-52.5 17.4-52.5 20.7.1 8.1 4.2 14.8 6.1 20.6q1.5 4.5 3.4 9.2v.1a456 456 0 0 0 7.1 17.8 525 525 0 0 0 50 91.4c22.1 32.5 44.8 59 69.3 80.7h0c28.3 25.1 58.6 44.2 90.1 56.9 22.6 9.1 90.4 32.5 186.7 0 32.1-11 61.8-31.8 90-56.8l.2-.1a429 429 0 0 0 69.2-80.7 525 525 0 0 0 60.5-118.5c2-5.8 6-12.5 6.1-20.6 0-3.3-38-17.6-52.5-20.7m0 0"/><path fill="none" stroke="#000" stroke-dasharray="10.128 10.128" stroke-linecap="round" stroke-linejoin="round" stroke-miterlimit="10" stroke-width="2.9" d="M2295 255.2c-7.5 24.6-51.4 216.6-246.8 302a226 226 0 0 1-93.4 16.8h.4a226 226 0 0 1-93.4-16.8c-195.4-85.4-239.3-277.4-246.9-302M1136 2366h1638.4M1136 2352h1638.4"/><path fill="#d9d9d9" d="M5204.5 978.6Q4690.3 1554.9 4176.3 2131l-325.2-201.6 936.1-1509.8q2 .7 3.8 2a369 369 0 0 1 64.2 42.7q30.7 24.5 58.6 51.8c19.2 18.5 37.8 38 53.8 59.6 16.3 22.1 29.8 46.5 43.9 70.6 12.8 22.3 25.7 44.6 37.4 67.2 12.4 24 23.5 48.6 35 73q16.6 34.8 34 69c11 22 22.1 44 35.8 64.4a304 304 0 0 0 47.8 55.7z"/><path fill="none" stroke="#000" stroke-linecap="round" stroke-linejoin="round" stroke-miterlimit="10" stroke-width="2.8" d="M5204.5 978.6Q4690.3 1554.9 4176.3 2131l-325.2-201.6 936.1-1509.8q2 .7 3.8 2a369 369 0 0 1 64.2 42.7q30.7 24.5 58.6 51.8c19.2 18.5 37.8 38 53.8 59.6 16.3 22.1 29.8 46.5 43.9 70.6 12.8 22.3 25.7 44.6 37.4 67.2 12.4 24 23.5 48.6 35 73q16.6 34.8 34 69c11 22 22.1 44 35.8 64.4a304 304 0 0 0 47.8 55.7zm0 0"/><path fill="none" stroke="#000" stroke-dasharray="10.128 10.128" stroke-linecap="round" stroke-linejoin="round" stroke-miterlimit="10" stroke-width="2.9" d="m3882.5 1878.7 333 208.4M3894.1 1864.1l333 208.5"/><path fill="#d9d9d9" d="M6043 978.6q514.3 576.3 1028.3 1152.5l325.2-201.6-936.1-1509.8q-2 .7-3.8 2a369 369 0 0 0-64.2 42.7 778 778 0 0 0-58.7 51.8 490 490 0 0 0-53.7 59.6c-16.3 22.1-29.8 46.5-44 70.6-12.8 22.3-25.6 44.6-37.3 67.2-12.4 24-23.5 48.6-35 73-11 23.3-22.6 46.1-34 69-11 22-22.1 44-35.8 64.4a304 304 0 0 1-47.9 55.7z"/><path fill="none" stroke="#000" stroke-linecap="round" stroke-linejoin="round" stroke-miterlimit="10" stroke-width="2.8" d="M6043 978.6q514.3 576.3 1028.3 1152.5l325.2-201.6-936.1-1509.8q-2 .7-3.8 2a369 369 0 0 0-64.2 42.7 778 778 0 0 0-58.7 51.8 490 490 0 0 0-53.7 59.6c-16.3 22.1-29.8 46.5-44 70.6-12.8 22.3-25.6 44.6-37.3 67.2-12.4 24-23.5 48.6-35 73-11 23.3-22.6 46.1-34 69-11 22-22.1 44-35.8 64.4a304 304 0 0 1-47.9 55.7zm0 0"/><path fill="none" stroke="#000" stroke-dasharray="10.128 10.128" stroke-linecap="round" stroke-linejoin="round" stroke-miterlimit="10" stroke-width="2.9" d="m7365 1878.7-333 208.4M7353.5 1864.1l-333 208.5"/><path fill="#d9d9d9" d="M6451.8 2439.2V1047.4h-4.3c-21.8 0-44.8-3.4-63.7-14.5-16-9.3-29-23.8-37.5-40.2a155 155 0 0 1-15-62.1c-2-27 0-53.8 3.4-80.5a913 913 0 0 1 18.7-95q13.4-53.4 29.8-106 17.9-57 37.4-113.4 20.1-58.7 41-116.7-257-95.4-513.8-190.2l-1.7 4c-9.6 24.8-31.8 44.1-56.1 56.9-27.5 14.7-58.2 20.7-88.5 24a778 778 0 0 1-92.4 5.2h-170c-31 0-62.1 0-92.5-5.1-30.3-4.8-59.8-14.8-89.3-24.4-23-16.2-45.6-32.3-55.2-56.7l-1.8-4q-256.6 94.9-513.9 190.3 21 58.1 41.1 116.7a4252 4252 0 0 1 37.5 113.4c10.7 35.2 21 70.3 29.7 106a913 913 0 0 1 18.7 95c3.4 26.7 5.4 53.5 3.4 80.5a156 156 0 0 1-15 62 100 100 0 0 1-37.4 40.3c-19 11-42 14.5-63.8 14.5h-4.3v1391.8h1655.5"/><path fill="none" stroke="#000" stroke-linecap="round" stroke-linejoin="round" stroke-miterlimit="10" stroke-width="2.8" d="M6451.8 2439.2V1047.4h-4.3c-21.8 0-44.8-3.4-63.7-14.5-16-9.3-29-23.8-37.5-40.2a155 155 0 0 1-15-62.1c-2-27 0-53.8 3.4-80.5a913 913 0 0 1 18.7-95q13.4-53.4 29.8-106 17.9-57 37.4-113.4 20.1-58.7 41-116.7-257-95.4-513.8-190.2l-1.7 4c-9.6 24.8-31.8 44.1-56.1 56.9-27.5 14.7-58.2 20.7-88.5 24a778 778 0 0 1-92.4 5.2h-170c-31 0-62.1 0-92.5-5.1-30.3-4.8-59.8-14.8-89.3-24.4-23-16.2-45.6-32.3-55.2-56.7l-1.8-4q-256.6 94.8-513.9 190.3 21 58.1 41.1 116.7a4252 4252 0 0 1 37.5 113.4c10.7 35.2 21 70.3 29.7 106a913 913 0 0 1 18.7 95c3.4 26.7 5.4 53.5 3.4 80.5a156 156 0 0 1-15 62 100 100 0 0 1-37.4 40.3c-19 11-42 14.5-63.8 14.5h-4.3v1391.8h1655.5m0 0"/><path fill="#d9d9d9" stroke="#000" stroke-linecap="round" stroke-linejoin="round" stroke-miterlimit="10" stroke-width="2.8" d="M5919.2 213.5a154 154 0 0 1-54 29.9 440 440 0 0 1-63.7 16c-30.3 5.1-61.5 5.1-92.4 5.1h-170c-31 0-62.1 0-92.5-5a440 440 0 0 1-63.6-16.1 154 154 0 0 1-54.1-29.9l-50.4 22.1c25.7 26.9 37.3 35.2 53.6 43.2q40 19.7 83 31 15.6 4.2 31.5 6.8c30.4 5 61.5 5 92.4 5h170.1c31 0 62 0 92.4-5q16-2.6 31.6-6.7 43-11.4 82.9-31c16.3-8 27-19.2 49.7-45Zm0 0"/><path fill="none" stroke="#000" stroke-dasharray="10.128 10.128" stroke-linecap="round" stroke-linejoin="round" stroke-miterlimit="10" stroke-width="2.9" d="M5266.6 241.2c25.7 26.9 49.2 44.8 65.5 52.9 26.6 13 54.3 23.6 83 31q15.6 4.1 31.5 6.7c30.4 5 61.5 5 92.4 5h170.1c31 0 62 0 92.4-5q16-2.6 31.6-6.7c28.6-7.4 56.3-18 82.9-31 16.3-8 37.2-27.5 60-53.3"/><path fill="none" stroke="#000" stroke-dasharray="10.154 10.154" stroke-linecap="round" stroke-linejoin="round" stroke-miterlimit="10" stroke-width="2.9" d="M4804.9 2382.5h1646.9M4804.9 2368.3h1646.9"/></svg>