<svg xmlns="http://www.w3.org/2000/svg" viewBox="0 0 3747 2693"><defs><clipPath id="a"><path d="M411 1698h143v198H411Zm0 0"/></clipPath><clipPath id="b"><path d="m411.8 1829.2 170.7 194.5 160.6-90.6-223.6-234.3Zm0 0"/></clipPath><clipPath id="c"><path d="M411 1698h155v208H411Zm0 0"/></clipPath><clipPath id="d"><path d="m411.8 1829.2 170.7 194.5 160.6-90.6-223.6-234.3Zm0 0"/></clipPath><clipPath id="e"><path d="M411 1710h168v206H411Zm0 0"/></clipPath><clipPath id="f"><path d="m411.8 1829.2 170.7 194.5 160.6-90.6-223.6-234.3Zm0 0"/></clipPath><clipPath id="g"><path d="M411 1724h180v202H411Zm0 0"/></clipPath><clipPath id="h"><path d="m411.8 1829.2 170.7 194.5 160.6-90.6-223.6-234.3Zm0 0"/></clipPath><clipPath id="i"><path d="M411 1738h192v198H411Zm0 0"/></clipPath><clipPath id="j"><path d="m411.8 1829.2 170.7 194.5 160.6-90.6-223.6-234.3Zm0 0"/></clipPath><clipPath id="k"><path d="M412 1752h204v194H412Zm0 0"/></clipPath><clipPath id="l"><path d="m411.8 1829.2 170.7 194.5 160.6-90.6-223.6-234.3Zm0 0"/></clipPath><clipPath id="m"><path d="M421 1766h207v190H421Zm0 0"/></clipPath><clipPath id="n"><path d="m411.8 1829.2 170.7 194.5 160.6-90.6-223.6-234.3Zm0 0"/></clipPath><clipPath id="o"><path d="M429 1780h212v186H429Zm0 0"/></clipPath><clipPath id="p"><path d="m411.8 1829.2 170.7 194.5 160.6-90.6-223.6-234.3Zm0 0"/></clipPath><clipPath id="q"><path d="M437 1794h216v182H437Zm0 0"/></clipPath><clipPath id="r"><path d="m411.8 1829.2 170.7 194.5 160.6-90.6-223.6-234.3Zm0 0"/></clipPath><clipPath id="s"><path d="M445 1808h221v178H445Zm0 0"/></clipPath><clipPath id="t"><path d="m411.8 1829.2 170.7 194.5 160.6-90.6-223.6-234.3Zm0 0"/></clipPath><clipPath id="u"><path d="M453 1822h225v174H453Zm0 0"/></clipPath><clipPath id="v"><path d="m411.8 1829.2 170.7 194.5 160.6-90.6-223.6-234.3Zm0 0"/></clipPath><clipPath id="w"><path d="M461 1836h229v170H461Zm0 0"/></clipPath><clipPath id="x"><path d="m411.8 1829.2 170.7 194.5 160.6-90.6-223.6-234.3Zm0 0"/></clipPath><clipPath id="y"><path d="M470 1850h233v166H470Zm0 0"/></clipPath><clipPath id="z"><path d="m411.8 1829.2 170.7 194.5 160.6-90.6-223.6-234.3Zm0 0"/></clipPath><clipPath id="A"><path d="M478 1864h237v160H478Zm0 0"/></clipPath><clipPath id="B"><path d="m411.8 1829.2 170.7 194.5 160.6-90.6-223.6-234.3Zm0 0"/></clipPath><clipPath id="C"><path d="M486 1878h242v146H486Zm0 0"/></clipPath><clipPath id="D"><path d="m411.8 1829.2 170.7 194.5 160.6-90.6-223.6-234.3Zm0 0"/></clipPath><clipPath id="E"><path d="M494 1892h246v132H494Zm0 0"/></clipPath><clipPath id="F"><path d="m411.8 1829.2 170.7 194.5 160.6-90.6-223.6-234.3Zm0 0"/></clipPath><clipPath id="G"><path d="M502 1906h242v118H502Zm0 0"/></clipPath><clipPath id="H"><path d="m411.8 1829.2 170.7 194.5 160.6-90.6-223.6-234.3Zm0 0"/></clipPath><clipPath id="I"><path d="M3946 1698h142v198h-142Zm0 0"/></clipPath><clipPath id="J"><path d="m3756.2 1933 160.6 90.6 170.7-194.5-107.6-130.4Zm0 0"/></clipPath><clipPath id="K"><path d="M3933 1698h155v208h-155Zm0 0"/></clipPath><clipPath id="L"><path d="m3756.2 1933 160.6 90.6 170.7-194.5-107.6-130.4Zm0 0"/></clipPath><clipPath id="M"><path d="M3921 1710h167v206h-167Zm0 0"/></clipPath><clipPath id="N"><path d="m3756.2 1933 160.6 90.6 170.7-194.5-107.6-130.4Zm0 0"/></clipPath><clipPath id="O"><path d="M3908 1724h180v202h-180Zm0 0"/></clipPath><clipPath id="P"><path d="m3756.2 1933 160.6 90.6 170.7-194.5-107.6-130.4Zm0 0"/></clipPath><clipPath id="Q"><path d="M3896 1738h192v198h-192Zm0 0"/></clipPath><clipPath id="R"><path d="m3756.2 1933 160.6 90.6 170.7-194.5-107.6-130.4Zm0 0"/></clipPath><clipPath id="S"><path d="M3883 1752h204v194h-204Zm0 0"/></clipPath><clipPath id="T"><path d="m3756.2 1933 160.6 90.6 170.7-194.5-107.6-130.4Zm0 0"/></clipPath><clipPath id="U"><path d="M3871 1766h208v190h-208Zm0 0"/></clipPath><clipPath id="V"><path d="m3756.2 1933 160.6 90.6 170.7-194.5-107.6-130.4Zm0 0"/></clipPath><clipPath id="W"><path d="M3859 1780h212v186h-212Zm0 0"/></clipPath><clipPath id="X"><path d="m3756.2 1933 160.6 90.6 170.7-194.5-107.6-130.4Zm0 0"/></clipPath><clipPath id="Y"><path d="M3846 1794h216v182h-216Zm0 0"/></clipPath><clipPath id="Z"><path d="m3756.2 1933 160.6 90.6 170.7-194.5-107.6-130.4Zm0 0"/></clipPath><clipPath id="aa"><path d="M3834 1808h220v178h-220Zm0 0"/></clipPath><clipPath id="ab"><path d="m3756.2 1933 160.6 90.6 170.7-194.5-107.6-130.4Zm0 0"/></clipPath><clipPath id="ac"><path d="M3821 1822h225v174h-225Zm0 0"/></clipPath><clipPath id="ad"><path d="m3756.2 1933 160.6 90.6 170.7-194.5-107.6-130.4Zm0 0"/></clipPath><clipPath id="ae"><path d="M3809 1836h229v170h-229Zm0 0"/></clipPath><clipPath id="af"><path d="m3756.2 1933 160.6 90.6 170.7-194.5-107.6-130.4Zm0 0"/></clipPath><clipPath id="ag"><path d="M3797 1850h233v166h-233Zm0 0"/></clipPath><clipPath id="ah"><path d="m3756.2 1933 160.6 90.6 170.7-194.5-107.6-130.4Zm0 0"/></clipPath><clipPath id="ai"><path d="M3784 1864h238v160h-238Zm0 0"/></clipPath><clipPath id="aj"><path d="m3756.2 1933 160.6 90.6 170.7-194.5-107.6-130.4Zm0 0"/></clipPath><clipPath id="ak"><path d="M3772 1877h242v147h-242Zm0 0"/></clipPath><clipPath id="al"><path d="m3756.2 1933 160.6 90.6 170.7-194.5-107.6-130.4Zm0 0"/></clipPath><clipPath id="am"><path d="M3759 1891h246v133h-246Zm0 0"/></clipPath><clipPath id="an"><path d="m3756.2 1933 160.6 90.6 170.7-194.5-107.6-130.4Zm0 0"/></clipPath><clipPath id="ao"><path d="M3756 1905h241v119h-241Zm0 0"/></clipPath><clipPath id="ap"><path d="m3756.2 1933 160.6 90.6 170.7-194.5-107.6-130.4Zm0 0"/></clipPath><clipPath id="aq"><path d="M4221 1890h113v221h-113Zm0 0"/></clipPath><clipPath id="ar"><path d="m4221.5 2038.4 204.2 158.8 140.7-119.2-263.8-188Zm0 0"/></clipPath><clipPath id="as"><path d="M4221 1890h127v230h-127Zm0 0"/></clipPath><clipPath id="at"><path d="m4221.5 2038.4 204.2 158.8 140.7-119.2-263.8-188Zm0 0"/></clipPath><clipPath id="au"><path d="M4221 1890h142v238h-142Zm0 0"/></clipPath><clipPath id="av"><path d="m4221.5 2038.4 204.2 158.8 140.7-119.2-263.8-188Zm0 0"/></clipPath><clipPath id="aw"><path d="M4224 1902h154v234h-154Zm0 0"/></clipPath><clipPath id="ax"><path d="m4221.5 2038.4 204.2 158.8 140.7-119.2-263.8-188Zm0 0"/></clipPath><clipPath id="ay"><path d="M4234 1913h159v232h-159Zm0 0"/></clipPath><clipPath id="az"><path d="m4221.5 2038.4 204.2 158.8 140.7-119.2-263.8-188Zm0 0"/></clipPath><clipPath id="aA"><path d="M4244 1924h164v229h-164Zm0 0"/></clipPath><clipPath id="aB"><path d="m4221.5 2038.4 204.2 158.8 140.7-119.2-263.8-188Zm0 0"/></clipPath><clipPath id="aC"><path d="M4254 1936h168v225h-168Zm0 0"/></clipPath><clipPath id="aD"><path d="m4221.5 2038.4 204.2 158.8 140.7-119.2-263.8-188Zm0 0"/></clipPath><clipPath id="aE"><path d="M4264 1947h173v222h-173Zm0 0"/></clipPath><clipPath id="aF"><path d="m4221.5 2038.4 204.2 158.8 140.7-119.2-263.8-188Zm0 0"/></clipPath><clipPath id="aG"><path d="M4273 1958h179v220h-179Zm0 0"/></clipPath><clipPath id="aH"><path d="m4221.5 2038.4 204.2 158.8 140.7-119.2-263.8-188Zm0 0"/></clipPath><clipPath id="aI"><path d="M4283 1970h184v216h-184Zm0 0"/></clipPath><clipPath id="aJ"><path d="m4221.5 2038.4 204.2 158.8 140.7-119.2-263.8-188Zm0 0"/></clipPath><clipPath id="aK"><path d="M4293 1981h189v213h-189Zm0 0"/></clipPath><clipPath id="aL"><path d="m4221.5 2038.4 204.2 158.8 140.7-119.2-263.8-188Zm0 0"/></clipPath><clipPath id="aM"><path d="M4303 1993h194v205h-194Zm0 0"/></clipPath><clipPath id="aN"><path d="m4221.5 2038.4 204.2 158.8 140.7-119.2-263.8-188Zm0 0"/></clipPath><clipPath id="aO"><path d="M4313 2004h198v194h-198Zm0 0"/></clipPath><clipPath id="aP"><path d="m4221.5 2038.4 204.2 158.8 140.7-119.2-263.8-188Zm0 0"/></clipPath><clipPath id="aQ"><path d="M4323 2015h203v183h-203Zm0 0"/></clipPath><clipPath id="aR"><path d="m4221.5 2038.4 204.2 158.8 140.7-119.2-263.8-188Zm0 0"/></clipPath><clipPath id="aS"><path d="M4333 2027h208v171h-208Zm0 0"/></clipPath><clipPath id="aT"><path d="m4221.5 2038.4 204.2 158.8 140.7-119.2-263.8-188Zm0 0"/></clipPath><clipPath id="aU"><path d="M4343 2038h213v160h-213Zm0 0"/></clipPath><clipPath id="aV"><path d="m4221.5 2038.4 204.2 158.8 140.7-119.2-263.8-188Zm0 0"/></clipPath><clipPath id="aW"><path d="M4353 2049h214v149h-214Zm0 0"/></clipPath><clipPath id="aX"><path d="m4221.5 2038.4 204.2 158.8 140.7-119.2-263.8-188Zm0 0"/></clipPath><clipPath id="aY"><path d="M7363 1889h112v221h-112Zm0 0"/></clipPath><clipPath id="aZ"><path d="m7129.8 2077.3 140.6 119.2 204.3-158.8-81.2-148.4Zm0 0"/></clipPath><clipPath id="ba"><path d="M7348 1889h127v230h-127Zm0 0"/></clipPath><clipPath id="bb"><path d="m7129.8 2077.3 140.6 119.2 204.3-158.8-81.2-148.4Zm0 0"/></clipPath><clipPath id="bc"><path d="M7333 1889h142v238h-142Zm0 0"/></clipPath><clipPath id="bd"><path d="m7129.8 2077.3 140.6 119.2 204.3-158.8-81.2-148.4Zm0 0"/></clipPath><clipPath id="be"><path d="M7318 1901h154v234h-154Zm0 0"/></clipPath><clipPath id="bf"><path d="m7129.8 2077.3 140.6 119.2 204.3-158.8-81.2-148.4Zm0 0"/></clipPath><clipPath id="bg"><path d="M7303 1912h159v232h-159Zm0 0"/></clipPath><clipPath id="bh"><path d="m7129.8 2077.3 140.6 119.2 204.3-158.8-81.2-148.4Zm0 0"/></clipPath><clipPath id="bi"><path d="M7289 1924h163v228h-163Zm0 0"/></clipPath><clipPath id="bj"><path d="m7129.8 2077.3 140.6 119.2 204.3-158.8-81.2-148.4Zm0 0"/></clipPath><clipPath id="bk"><path d="M7274 1935h169v225h-169Zm0 0"/></clipPath><clipPath id="bl"><path d="m7129.8 2077.3 140.6 119.2 204.3-158.8-81.2-148.4Zm0 0"/></clipPath><clipPath id="bm"><path d="M7259 1946h174v223h-174Zm0 0"/></clipPath><clipPath id="bn"><path d="m7129.8 2077.3 140.6 119.2 204.3-158.8-81.2-148.4Zm0 0"/></clipPath><clipPath id="bo"><path d="M7244 1958h179v219h-179Zm0 0"/></clipPath><clipPath id="bp"><path d="m7129.8 2077.3 140.6 119.2 204.3-158.8-81.2-148.4Zm0 0"/></clipPath><clipPath id="bq"><path d="M7229 1969h184v216h-184Zm0 0"/></clipPath><clipPath id="br"><path d="m7129.8 2077.3 140.6 119.2 204.3-158.8-81.2-148.4Zm0 0"/></clipPath><clipPath id="bs"><path d="M7214 1980h189v214h-189Zm0 0"/></clipPath><clipPath id="bt"><path d="m7129.8 2077.3 140.6 119.2 204.3-158.8-81.2-148.4Zm0 0"/></clipPath><clipPath id="bu"><path d="M7200 1992h193v205h-193Zm0 0"/></clipPath><clipPath id="bv"><path d="m7129.8 2077.3 140.6 119.2 204.3-158.8-81.2-148.4Zm0 0"/></clipPath><clipPath id="bw"><path d="M7185 2003h198v194h-198Zm0 0"/></clipPath><clipPath id="bx"><path d="m7129.8 2077.3 140.6 119.2 204.3-158.8-81.2-148.4Zm0 0"/></clipPath><clipPath id="by"><path d="M7170 2015h203v182h-203Zm0 0"/></clipPath><clipPath id="bz"><path d="m7129.8 2077.3 140.6 119.2 204.3-158.8-81.2-148.4Zm0 0"/></clipPath><clipPath id="bA"><path d="M7155 2026h208v171h-208Zm0 0"/></clipPath><clipPath id="bB"><path d="m7129.8 2077.3 140.6 119.2 204.3-158.8-81.2-148.4Zm0 0"/></clipPath><clipPath id="bC"><path d="M7140 2037h213v160h-213Zm0 0"/></clipPath><clipPath id="bD"><path d="m7129.8 2077.3 140.6 119.2 204.3-158.8-81.2-148.4Zm0 0"/></clipPath><clipPath id="bE"><path d="M7129 2049h215v148h-215Zm0 0"/></clipPath><clipPath id="bF"><path d="m7129.8 2077.3 140.6 119.2 204.3-158.8-81.2-148.4Zm0 0"/></clipPath></defs><path fill="#d9d9d9" stroke="#000" stroke-linecap="round" stroke-linejoin="round" stroke-miterlimit="10" stroke-width="2.8" d="m8941.8 623.7 2.7 3q11.7 11.4 22.5 23.4c10.6 11.8 20 25.2 27.7 39.2a260 260 0 0 1 26.6 73.9c5.7 27 7.4 55 8.5 82.7a934 934 0 0 1 .3 87c-1 27.8-3.6 55-6 82.6-2.3 27.2-4.7 54.5-3 81.5 1.5 26.8 6.5 52.7 13.6 78.3a213 213 0 0 0 29.7 65.5q1.3 1.9 2.4 3.8-537.8 424.2-1075.3 848.6L7739.7 1844ZM10193.7 623.7l-2.7 3a491 491 0 0 0-22.5 23.4 212 212 0 0 0-27.7 39.2c-12.7 23-21.3 48-26.6 73.9-5.7 27-7.4 55-8.5 82.7a934 934 0 0 0-.3 87c1 27.8 3.6 55 6 82.6 2.3 27.2 4.7 54.5 3 81.5a370 370 0 0 1-13.6 78.3 213 213 0 0 1-29.7 65.5q-1.3 1.9-2.4 3.8 537.8 424.2 1075.3 848.6l251.8-249.2Zm0 0"/><path fill="none" stroke="#000" stroke-dasharray="10 10" stroke-linecap="round" stroke-linejoin="round" stroke-miterlimit="10" stroke-width="2.9" d="m11098 2055.7 257.8-252.9M11087 2046l257.8-252.9"/><path fill="#d9d9d9" stroke="#000" stroke-linecap="round" stroke-linejoin="round" stroke-miterlimit="10" stroke-width="2.8" d="M9407 382.2 9292.3 493l101.4 266.6H9771l9.3-298.6-145.3-78.7Zm0 0"/><path fill="#d9d9d9" stroke="#000" stroke-linecap="round" stroke-linejoin="round" stroke-miterlimit="10" stroke-width="2.8" d="M10176.7 714.6a3232 3232 0 0 0-23 141.6 1155 1155 0 0 0-9.6 103.7 553 553 0 0 0 3.1 89.2 206 206 0 0 0 19.9 69.7 115 115 0 0 0 40.8 45.8c19.2 11.8 43 16.3 65.8 16.5h4.3c0 1.5-.5 3-.5 4.3q-.7 12-1.7 23.8-1.1 14-1.9 28.1l-1.7 27.8q-.9 14.1-1.6 28.1-1 14-1.7 28.1-.6 14-1.5 28c-.2 9-1 18.3-1.2 27.7q-.4 14-1.2 28-.3 14.1-1 28.1-.4 14-.9 28.1 0 13.7-.5 27.9-.5 14-.7 28t-.5 28.1l-.2 28.1q-.1 13.6-.3 27.6v56.2l.3 28 .2 27.9q.3 14 .5 28t.7 28.1q.5 14.1.5 28.1l1 27.9 1 27.8q.7 14 1.1 28c.3 9.4 1 18.8 1.2 28.2q.9 13.6 1.5 27.8.8 14 1.7 28 .7 14.1 1.6 28.2l1.7 28q.8 13.8 2 27.9l1.6 23.8c0 1.4.5 2.8.5 4.3 1.4 3.3 10.8 199.3 13.5 253.9-14.2.2.7.7-13.5 1.2q-39.2 1.2-78.7 2.1-39 1.5-78.3 2.2-39.1 1.7-78.5 2.4l-78.4 2q-39 .7-78.3 1.6-39 1-78.5 1.7-39 .4-78.4 1.2-39.2.4-78.3.5-39.6.6-78.4.5h-8.7q-38.9.1-78.5-.5-39-.1-78.2-.5c-26.4-.5-52.3-1-78.5-1.2q-39.2-.7-78.5-1.7l-78.2-1.7q-39.6-.8-78.5-2-39.5-.8-78.5-2.3-39.2-.7-78.2-2.2-39.6-.9-78.7-2.1c-14.2-.5 4.6-1-9.5-1.2 0 0 8.3-250.6 9.5-254q.2-2.1.4-4.2.7-12 1.7-23.8 1.1-14.1 2-27.9.8-14 1.6-28l1.7-28.1q1-14 1.7-28c.2-9.5 1-18.8 1.4-28 .3-9.3 1-18.7 1.2-28q.5-14 1.2-28.1.3-14 1-27.8.4-14.1 1-27.9 0-14 .4-28 .6-14.1.8-28.1l.4-28.1q.1-14.1.3-27.9l.2-28v-56.2l-.2-27.6q-.1-14-.3-28l-.4-28.2q-.2-14-.8-28-.4-14.2-.5-27.9-.4-14-1-28l-.9-28.1q-.7-14.1-1.2-28.1c-.2-9.4-1-18.7-1.2-27.6q-1-14-1.4-28-.7-14.2-1.7-28.2l-1.7-28q-.8-14.2-1.7-27.9-.7-14-1.9-28-1-12-1.7-23.9-.2-2-.4-4.3h4.3c22.8-.2 46.5-4.7 65.8-16.5a115 115 0 0 0 40.7-45.8 205 205 0 0 0 20-69.7c3.6-29.7 4.3-59.5 3-89.2-1.4-34.6-5-69.2-9.5-103.7a2941 2941 0 0 0-23-141.6h0q-8.3-45.6-17.3-91c135-67.4 270.2-135.3 405-202.8v4.1c.8 23.5 5.1 46.8 11.1 69.6 6.3 24.2 14.2 48 26.7 69.4a205 205 0 0 0 111.8 91.2c9.4 2.8 19.5 4.7 29 7a207 207 0 0 0 38.4 1.6q2.1 0 4.1-.3 2.1.4 4.1.3c12.7 1 25.7-.3 38.4-1.7 9.6-2.2 19.7-4 29-7 22.1-6.7 42.8-18.2 61-32.6 20.6-16 38-36.2 50.9-58.5a271 271 0 0 0 26.6-69.4c6-22.8 10.4-46 11-69.6v-4c135 67.4 270 135.3 405.2 202.7q-.3 2.3-1 4.1l-16.4 86.9"/><path fill="#d9d9d9" stroke="#000" stroke-linecap="round" stroke-linejoin="round" stroke-miterlimit="10" stroke-width="2.8" d="M9611.8 570.9h-86.4v462h86.4Zm0 0"/><path fill="#d9d9d9" stroke="#000" stroke-linecap="round" stroke-linejoin="round" stroke-miterlimit="10" stroke-width="2.8" d="M9611.8 570.9v490h-86.4V1023h86.4Zm0 0"/><path fill="#d9d9d9" d="M9568.6 745.8a17 17 0 1 1 0 33.9 17 17 0 1 1 0-33.9"/><path fill="none" stroke="#000" stroke-linecap="round" stroke-linejoin="round" stroke-miterlimit="10" stroke-width="2.8" d="M9568.6 745.8a17 17 0 1 1 0 33.9 17 17 0 1 1 0-33.9m0 0"/><path fill="#d9d9d9" d="M9568.6 845.6a17 17 0 0 1 17 17 17 17 0 0 1-17 16.9 17 17 0 0 1-17-17 17 17 0 0 1 17-16.9"/><path fill="none" stroke="#000" stroke-linecap="round" stroke-linejoin="round" stroke-miterlimit="10" stroke-width="2.8" d="M9568.6 845.6a17 17 0 0 1 17 17 17 17 0 0 1-17 16.9 17 17 0 0 1-17-17 17 17 0 0 1 17-16.9m0 0"/><path fill="#d9d9d9" d="M9568.6 944.6a17 17 0 1 1 0 33.8 17 17 0 1 1 0-33.9"/><path fill="none" stroke="#000" stroke-linecap="round" stroke-linejoin="round" stroke-miterlimit="10" stroke-width="2.8" d="M9568.6 944.6a17 17 0 1 1 0 33.8 17 17 0 1 1 0-33.9m0 0"/><path fill="#d9d9d9" d="M9427.9 462.9c92.1 8.4 189.3 8.4 281.4 0 29.7-39 45-73.5 62.6-116.3a2589 2589 0 0 1-406.7 0c18.4 44.3 33.1 77.4 62.7 116.3"/><path fill="none" stroke="#000" stroke-linecap="round" stroke-linejoin="round" stroke-miterlimit="10" stroke-width="2.8" d="M9427.9 462.9c92.1 8.4 189.3 8.4 281.4 0 29.7-39 45-73.5 62.6-116.3a2589 2589 0 0 1-406.7 0c18.4 44.3 33.1 77.4 62.7 116.3m0 0"/><path fill="#d9d9d9" d="M9568.6 570.1c-40.3 34.6-109.4 90.5-202.6 126.5-41.2-49.5-125.4-164.9-140.6-218.3 52.3-36.7 107-88 139.8-131.7 34.9 84.5 76.9 167 203.4 223.5"/><path fill="none" stroke="#000" stroke-linecap="round" stroke-linejoin="round" stroke-miterlimit="10" stroke-width="2.8" d="M9568.6 570.1c-40.3 34.6-109.4 90.5-202.6 126.5-41.2-49.5-125.4-164.9-140.6-218.3 52.3-36.7 107-88 139.8-131.7 34.9 84.5 76.9 167 203.4 223.5m0 0"/><path fill="#d9d9d9" d="M9568.6 570.1c40.3 34.6 109.4 90.5 202.6 126.5 41.2-49.5 125.4-164.9 140.6-218.3-52.3-36.7-107-88-139.8-131.7-34.9 84.5-76.9 167-203.4 223.5"/><path fill="none" stroke="#000" stroke-linecap="round" stroke-linejoin="round" stroke-miterlimit="10" stroke-width="2.8" d="M9568.6 570.1c40.3 34.6 109.4 90.5 202.6 126.5 41.2-49.5 125.4-164.9 140.6-218.3-52.3-36.7-107-88-139.8-131.7-34.9 84.5-76.9 167-203.4 223.5m0 0"/><path fill="none" stroke="#000" stroke-dasharray="10 10" stroke-linecap="round" stroke-linejoin="round" stroke-miterlimit="10" stroke-width="2.9" d="m8849.2 2274.3 69.3 2c23.8.5 47.8 1.5 71.8 2 23.8 1 47.9 1.4 71.9 2.1 23.8.5 47.8 1.5 71.9 2 23.8.4 48 1.1 71.8 1.6l72 1.5c23.7.2 48 .7 71.8 1.2l71.9 1c23.8 0 48 .4 71.8.6h151.8c23.9-.2 47.9-.7 72-.7 23.7-.2 48-.5 71.8-1q35.9-.7 71.9-1.1l71.8-1.5 71.9-1.7c23.8-.4 48-1.4 71.9-1.9 23.8-.7 48-1.2 71.8-2.1 24-.5 48.1-1.5 71.9-2l68.8-2M8851.4 2255.2l67 2.2c23.9.5 47.9 1.4 72 1.9 23.7 1 47.8 1.4 71.8 2.2 23.8.4 47.8 1.4 71.9 1.9l71.8 1.7 72 1.4c23.7.2 48 .7 71.8 1.2q35.9.6 71.9 1c23.8 0 48 .4 71.8.7h151.8q35.9-.6 72-.7c23.7-.3 48-.5 71.8-1q35.9-.8 71.9-1.2l71.8-1.4 71.9-1.7c23.8-.5 48-1.5 71.9-2 23.8-.7 48-1.1 71.8-2.1q36.1-1 71.9-2l68.8-2"/><path fill="none" stroke="#000" stroke-linecap="round" stroke-linejoin="round" stroke-miterlimit="10" stroke-width=".8" d="M9525.4 662v52.6M9610.3 714.6V662M9567.8 749.1v28.4M9582 763.3h-28.3M9567.8 848.5v28.3M9582 862.7h-28.3M9567.8 947.6V976M9582 961.8h-28.3M9525.4 714.6v346.3M9525.4 1060.9h85M9610.3 1060.9V714.6"/><path fill="#d9d9d9" d="m9847.5 1334 141.9-42.5V994h-283.5v297.5z"/><path fill="none" stroke="#000" stroke-linecap="round" stroke-linejoin="round" stroke-miterlimit="10" stroke-width="2.8" d="m9847.5 1334 141.9-42.5V994h-283.5v297.5zm0 0"/><path fill="none" stroke="#000" stroke-dasharray="10 10" stroke-linecap="round" stroke-linejoin="round" stroke-miterlimit="10" stroke-width="2.9" d="m9988.6 1053.1-282.7 1.7M9989.4 1038.5l-282.7 1.6"/><path fill="#d9d9d9" d="M582.5 2025.1q-.6 0-1-.5l-170.7-194.4q-.7-1 0-1.9L518.3 1698q.4-.5 1-.5t1.1.4l223.7 234.3a1.4 1.4 0 0 1-.4 2.2L583.2 2025z"/><path d="M519.5 1696h-.1q-1.3 0-2.1 1l-107.7 130.4c-.9 1.1-.8 2.7 0 3.7l170.8 194.5a3 3 0 0 0 3.5.6l160.6-90.6a2.8 2.8 0 0 0 .7-4.5l-223.7-234.3q-.8-.8-2-.9m0 2.9L743 1933l-160.6 90.6-170.7-194.5Zm0 0"/><g clip-path="url(#a)"><g clip-path="url(#b)"><path fill="none" stroke="#868686" stroke-linecap="round" stroke-linejoin="round" stroke-miterlimit="10" stroke-width="2" d="m552.3 1683.5-179.1 211"/></g></g><g clip-path="url(#c)"><g clip-path="url(#d)"><path fill="none" stroke="#868686" stroke-linecap="round" stroke-linejoin="round" stroke-miterlimit="10" stroke-width="2" d="m564.7 1697.5-183.4 207"/></g></g><g clip-path="url(#e)"><g clip-path="url(#f)"><path fill="none" stroke="#868686" stroke-linecap="round" stroke-linejoin="round" stroke-miterlimit="10" stroke-width="2" d="m577.1 1711.5-187.6 203"/></g></g><g clip-path="url(#g)"><g clip-path="url(#h)"><path fill="none" stroke="#868686" stroke-linecap="round" stroke-linejoin="round" stroke-miterlimit="10" stroke-width="2" d="m589.6 1725.4-192 199.1"/></g></g><g clip-path="url(#i)"><g clip-path="url(#j)"><path fill="none" stroke="#868686" stroke-linecap="round" stroke-linejoin="round" stroke-miterlimit="10" stroke-width="2" d="m602 1739.4-196.2 195.2"/></g></g><g clip-path="url(#k)"><g clip-path="url(#l)"><path fill="none" stroke="#868686" stroke-linecap="round" stroke-linejoin="round" stroke-miterlimit="10" stroke-width="2" d="m614.4 1753.4-200.5 191.2"/></g></g><g clip-path="url(#m)"><g clip-path="url(#n)"><path fill="none" stroke="#868686" stroke-linecap="round" stroke-linejoin="round" stroke-miterlimit="10" stroke-width="2" d="m626.8 1767.3-204.7 187.4"/></g></g><g clip-path="url(#o)"><g clip-path="url(#p)"><path fill="none" stroke="#868686" stroke-linecap="round" stroke-linejoin="round" stroke-miterlimit="10" stroke-width="2" d="m639.2 1781.3-209 183.4"/></g></g><g clip-path="url(#q)"><g clip-path="url(#r)"><path fill="none" stroke="#868686" stroke-linecap="round" stroke-linejoin="round" stroke-miterlimit="10" stroke-width="2" d="m651.6 1795.3-213.2 179.4"/></g></g><g clip-path="url(#s)"><g clip-path="url(#t)"><path fill="none" stroke="#868686" stroke-linecap="round" stroke-linejoin="round" stroke-miterlimit="10" stroke-width="2" d="m664 1809.2-217.4 175.6"/></g></g><g clip-path="url(#u)"><g clip-path="url(#v)"><path fill="none" stroke="#868686" stroke-linecap="round" stroke-linejoin="round" stroke-miterlimit="10" stroke-width="2" d="m676.5 1823.2-221.8 171.6"/></g></g><g clip-path="url(#w)"><g clip-path="url(#x)"><path fill="none" stroke="#868686" stroke-linecap="round" stroke-linejoin="round" stroke-miterlimit="10" stroke-width="2" d="m688.9 1837.2-226 167.7"/></g></g><g clip-path="url(#y)"><g clip-path="url(#z)"><path fill="none" stroke="#868686" stroke-linecap="round" stroke-linejoin="round" stroke-miterlimit="10" stroke-width="2" d="M701.3 1851.2 471 2014.9"/></g></g><g clip-path="url(#A)"><g clip-path="url(#B)"><path fill="none" stroke="#868686" stroke-linecap="round" stroke-linejoin="round" stroke-miterlimit="10" stroke-width="2" d="M713.7 1865.1 479.2 2025"/></g></g><g clip-path="url(#C)"><g clip-path="url(#D)"><path fill="none" stroke="#868686" stroke-linecap="round" stroke-linejoin="round" stroke-miterlimit="10" stroke-width="2" d="m726.1 1879-238.8 156"/></g></g><g clip-path="url(#E)"><g clip-path="url(#F)"><path fill="none" stroke="#868686" stroke-linecap="round" stroke-linejoin="round" stroke-miterlimit="10" stroke-width="2" d="m738.5 1893-243 152"/></g></g><g clip-path="url(#G)"><g clip-path="url(#H)"><path fill="none" stroke="#868686" stroke-linecap="round" stroke-linejoin="round" stroke-miterlimit="10" stroke-width="2" d="m751 1907-247.4 148"/></g></g><path fill="#d9d9d9" stroke="#000" stroke-linecap="round" stroke-linejoin="round" stroke-miterlimit="10" stroke-width="2.8" d="m1623.4 624 2.3 2.9q11.4 11.8 22.1 24c10 12.3 19 26 26.3 40.2a259 259 0 0 1 24.4 74.5c4.8 27.2 5.6 55.3 6 83.3.2 29-.2 57.9-2.1 86.8-1.8 25.1-4.9 49.8-8 74.6l.2-.7-1 8.3a569 569 0 0 0-5.7 81.5c.7 26.6 5 53 11.6 78.8a204 204 0 0 0 27.7 66.4q1 2 2 3.4a992156 992156 0 0 1-963 687.8c-8.4 6-20 4.9-27.1-2.6l-218.4-229.8c-7.3-7.7-7-19.8.7-27.2Zm0 0"/><path fill="#d9d9d9" d="M3916.8 2025q-.3 0-.7-.2l-160.6-90.6a1.4 1.4 0 0 1-.3-2.2l223.6-234.3q.5-.5 1-.5h.1q.7 0 1 .6l107.7 130.4q.7 1 0 1.9l-170.7 194.4q-.5.5-1 .5"/><path d="M3979.9 1695.8q-1.3 0-2.1 1L3754.1 1931a2.8 2.8 0 0 0 .7 4.5l160.6 90.5a3 3 0 0 0 3.6-.6l170.6-194.4c1-1 1-2.6.1-3.7L3982 1697q-.8-1-2-1zm0 2.8 107.6 130.4-170.7 194.5-160.6-90.6Zm0 0"/><g clip-path="url(#I)"><g clip-path="url(#J)"><path fill="none" stroke="#868686" stroke-linecap="round" stroke-linejoin="round" stroke-miterlimit="10" stroke-width="2" d="m3947 1683.4 179.2 210.9"/></g></g><g clip-path="url(#K)"><g clip-path="url(#L)"><path fill="none" stroke="#868686" stroke-linecap="round" stroke-linejoin="round" stroke-miterlimit="10" stroke-width="2" d="m3934.6 1697.4 183.4 207"/></g></g><g clip-path="url(#M)"><g clip-path="url(#N)"><path fill="none" stroke="#868686" stroke-linecap="round" stroke-linejoin="round" stroke-miterlimit="10" stroke-width="2" d="m3922.2 1711.3 187.7 203"/></g></g><g clip-path="url(#O)"><g clip-path="url(#P)"><path fill="none" stroke="#868686" stroke-linecap="round" stroke-linejoin="round" stroke-miterlimit="10" stroke-width="2" d="m3909.8 1725.3 192 199.1"/></g></g><g clip-path="url(#Q)"><g clip-path="url(#R)"><path fill="none" stroke="#868686" stroke-linecap="round" stroke-linejoin="round" stroke-miterlimit="10" stroke-width="2" d="m3897.4 1739.3 196.2 195.2"/></g></g><g clip-path="url(#S)"><g clip-path="url(#T)"><path fill="none" stroke="#868686" stroke-linecap="round" stroke-linejoin="round" stroke-miterlimit="10" stroke-width="2" d="m3885 1753.3 200.4 191.2"/></g></g><g clip-path="url(#U)"><g clip-path="url(#V)"><path fill="none" stroke="#868686" stroke-linecap="round" stroke-linejoin="round" stroke-miterlimit="10" stroke-width="2" d="m3872.5 1767.2 204.7 187.3"/></g></g><g clip-path="url(#W)"><g clip-path="url(#X)"><path fill="none" stroke="#868686" stroke-linecap="round" stroke-linejoin="round" stroke-miterlimit="10" stroke-width="2" d="m3860.1 1781.2 209 183.4"/></g></g><g clip-path="url(#Y)"><g clip-path="url(#Z)"><path fill="none" stroke="#868686" stroke-linecap="round" stroke-linejoin="round" stroke-miterlimit="10" stroke-width="2" d="m3847.7 1795.2 213.2 179.4"/></g></g><g clip-path="url(#aa)"><g clip-path="url(#ab)"><path fill="none" stroke="#868686" stroke-linecap="round" stroke-linejoin="round" stroke-miterlimit="10" stroke-width="2" d="m3835.3 1809.1 217.5 175.6"/></g></g><g clip-path="url(#ac)"><g clip-path="url(#ad)"><path fill="none" stroke="#868686" stroke-linecap="round" stroke-linejoin="round" stroke-miterlimit="10" stroke-width="2" d="m3822.9 1823.1 221.7 171.6"/></g></g><g clip-path="url(#ae)"><g clip-path="url(#af)"><path fill="none" stroke="#868686" stroke-linecap="round" stroke-linejoin="round" stroke-miterlimit="10" stroke-width="2" d="m3810.5 1837 226 167.7"/></g></g><g clip-path="url(#ag)"><g clip-path="url(#ah)"><path fill="none" stroke="#868686" stroke-linecap="round" stroke-linejoin="round" stroke-miterlimit="10" stroke-width="2" d="m3798 1851 230.3 163.8"/></g></g><g clip-path="url(#ai)"><g clip-path="url(#aj)"><path fill="none" stroke="#868686" stroke-linecap="round" stroke-linejoin="round" stroke-miterlimit="10" stroke-width="2" d="m3785.6 1865 234.6 159.8"/></g></g><g clip-path="url(#ak)"><g clip-path="url(#al)"><path fill="none" stroke="#868686" stroke-linecap="round" stroke-linejoin="round" stroke-miterlimit="10" stroke-width="2" d="m3773.2 1879 238.8 155.9"/></g></g><g clip-path="url(#am)"><g clip-path="url(#an)"><path fill="none" stroke="#868686" stroke-linecap="round" stroke-linejoin="round" stroke-miterlimit="10" stroke-width="2" d="m3760.8 1893 243 151.9"/></g></g><g clip-path="url(#ao)"><g clip-path="url(#ap)"><path fill="none" stroke="#868686" stroke-linecap="round" stroke-linejoin="round" stroke-miterlimit="10" stroke-width="2" d="m3748.4 1907 247.3 148"/></g></g><path fill="#d9d9d9" stroke="#000" stroke-linecap="round" stroke-linejoin="round" stroke-miterlimit="10" stroke-width="2.8" d="M2876 624c-1 1-1.5 1.9-2.3 2.8q-11.5 11.8-22.2 24-15.2 18.6-26.3 40.2a259 259 0 0 0-24.4 74.4 541 541 0 0 0-6 83.4c-.1 29 .3 57.9 2.2 86.8 1.7 25 4.8 49.8 7.9 74.6l-.2-.7 1 8.3c3.3 27.3 6.4 54.4 5.7 81.5-.7 26.5-5 53-11.6 78.8a204 204 0 0 1-27.7 66.4q-1 2-1.9 3.4 481.2 344.1 963 687.8c8.3 6 20 4.9 27-2.6l218.4-229.8c7.3-7.7 7-19.9-.7-27.2ZM2089.2 382.2 1974.5 493l101.3 266.6h377.4l9.3-298.6-145.3-78.7Zm0 0"/><path fill="#d9d9d9" stroke="#000" stroke-linecap="round" stroke-linejoin="round" stroke-miterlimit="10" stroke-width="2.8" d="M2858.9 714.6a3091 3091 0 0 0-23 141.6c-4.7 34.5-8.2 69.1-9.7 103.7a553 553 0 0 0 3.2 89.2 206 206 0 0 0 19.8 69.7 115 115 0 0 0 40.9 45.8c19.2 11.8 43 16.3 65.7 16.5h4.3c0 1.5-.4 3-.4 4.3q-.7 12-1.7 23.8-1.2 14-2 28.1-.7 13.8-1.6 27.8l-1.7 28.1-1.7 28.1c-.2 9.4-1 18.7-1.4 28-.3 9-1 18.3-1.2 27.7q-.4 14-1.2 28-.4 14.1-1 28.1-.4 14-1 28.1 0 13.7-.4 27.9c-.2 9.3-.7 18.7-.7 28q-.3 14.1-.5 28.1-.1 14-.3 28.1l-.2 27.6v56.2l.2 28q.1 13.8.3 27.9t.5 28c0 9.4.5 18.8.7 28.1q.4 14.1.5 28.1.4 13.8 1 27.9l.9 27.8q.8 14 1.2 28c.2 9.4 1 18.8 1.2 28.2q1 13.6 1.4 27.8l1.7 28 1.7 28.2 1.7 28q.7 13.8 1.9 27.9 1 11.9 1.7 23.8c0 1.4.4 2.8.4 4.3 1.5 3.3 10.9 199.3 13.5 253.9-14.1.2.7.7-13.5 1.2q-39.1 1.2-78.7 2.1-38.9 1.5-78.2 2.2-39.1 1.7-78.5 2.4l-78.5 2q-38.9.7-78.2 1.6-39.1 1-78.5 1.7c-26.2.2-52 .7-78.5 1.2q-39 .4-78.2.5-39.6.6-78.5.5h-8.6q-39 .1-78.5-.5c-26.2 0-52-.3-78.3-.5q-39.3-.8-78.5-1.2-39-.7-78.4-1.7l-78.2-1.7q-39.7-.8-78.5-2-39.5-.8-78.5-2.3-39.3-.7-78.3-2.2-39.5-.9-78.7-2.1c-14.1-.5 4.7-1-9.4-1.2 0 0 8.2-250.6 9.4-254 0-1.4.5-2.8.5-4.2q.7-12 1.7-23.8 1.1-14.1 1.9-27.9l1.7-28 1.7-28.1q1-14 1.6-28 .6-14.2 1.5-28c.2-9.3 1-18.7 1.2-28q.4-14 1.2-28.1.3-14 1-27.8.5-14.1.9-27.9.1-14 .5-28c.2-9.4.7-18.8.7-28.1q.2-14.1.5-28.1l.2-27.9.3-28v-56.2q-.2-14-.3-27.6l-.2-28q-.3-14.1-.5-28.2t-.7-28q-.4-14.2-.5-27.9-.4-14-1-28t-.9-28.1q-.8-14.1-1.2-28.1c-.2-9.4-1-18.7-1.2-27.6q-.9-14-1.5-28-.7-14.2-1.6-28.2l-1.7-28-1.7-27.9q-.8-14-1.9-28-1-12-1.7-23.9c0-1.4-.5-2.8-.5-4.3h4.4c22.7-.2 46.5-4.7 65.7-16.5a115 115 0 0 0 40.8-45.8 206 206 0 0 0 20-69.7 556 556 0 0 0 3-89.2c-1.4-34.6-5-69.2-9.6-103.7a2933 2933 0 0 0-23-141.6h.1q-8.4-45.6-17.4-91c135.1-67.4 270.3-135.3 405.1-202.8v4.1c.8 23.5 5 46.8 11 69.6 6.3 24.2 14.2 48 26.7 69.4 13 22.3 30.3 42.4 51 58.5a187 187 0 0 0 60.9 32.7c9.3 2.8 19.4 4.7 29 7 12.7 1.3 25.7 2.6 38.4 1.6q2 0 4-.3 2.1.4 4.2.3c12.7 1 25.6-.3 38.4-1.7 9.6-2.2 19.6-4 29-7 22-6.7 42.7-18.2 61-32.6 20.6-16 37.9-36.2 50.9-58.5a271 271 0 0 0 26.6-69.4c6-22.8 10.3-46 11-69.6v-4c134.9 67.4 270 135.3 405.2 202.7q-.3 2.3-1 4.1l-16.5 86.9"/><path fill="#d9d9d9" stroke="#000" stroke-linecap="round" stroke-linejoin="round" stroke-miterlimit="10" stroke-width="2.8" d="M2294 570.9h-86.5v462h86.5Zm0 0"/><path fill="#d9d9d9" stroke="#000" stroke-linecap="round" stroke-linejoin="round" stroke-miterlimit="10" stroke-width="2.8" d="M2294 570.9v490h-86.5V1023h86.5Zm0 0"/><path fill="#d9d9d9" d="M2250.8 745.8a17 17 0 0 1 17 17 17 17 0 0 1-17 16.9 17 17 0 1 1 0-33.9"/><path fill="none" stroke="#000" stroke-linecap="round" stroke-linejoin="round" stroke-miterlimit="10" stroke-width="2.8" d="M2250.8 745.8a17 17 0 0 1 17 17 17 17 0 0 1-17 16.9 17 17 0 1 1 0-33.9m0 0"/><path fill="#d9d9d9" d="M2250.8 845.6a17 17 0 0 1 17 17 17 17 0 0 1-17 16.9 17 17 0 0 1-17-17 17 17 0 0 1 17-16.9"/><path fill="none" stroke="#000" stroke-linecap="round" stroke-linejoin="round" stroke-miterlimit="10" stroke-width="2.8" d="M2250.8 845.6a17 17 0 0 1 17 17 17 17 0 0 1-17 16.9 17 17 0 0 1-17-17 17 17 0 0 1 17-16.9m0 0"/><path fill="#d9d9d9" d="M2250.8 944.6a17 17 0 1 1 0 33.8 17 17 0 1 1 0-33.9"/><path fill="none" stroke="#000" stroke-linecap="round" stroke-linejoin="round" stroke-miterlimit="10" stroke-width="2.8" d="M2250.8 944.6a17 17 0 1 1 0 33.8 17 17 0 1 1 0-33.9m0 0"/><path fill="#d9d9d9" d="M2110 462.9c92.2 8.4 189.3 8.4 281.5 0 29.6-39 44.9-73.5 62.6-116.3a2589 2589 0 0 1-406.7 0c18.3 44.3 33 77.4 62.6 116.3"/><path fill="none" stroke="#000" stroke-linecap="round" stroke-linejoin="round" stroke-miterlimit="10" stroke-width="2.8" d="M2110 462.9c92.2 8.4 189.3 8.4 281.5 0 29.6-39 44.9-73.5 62.6-116.3a2589 2589 0 0 1-406.7 0c18.3 44.3 33 77.4 62.6 116.3m0 0"/><path fill="#d9d9d9" d="M2250.8 570.1c-40.4 34.6-109.5 90.5-202.6 126.5-41.2-49.5-125.5-164.9-140.6-218.3 52.3-36.7 106.9-88 139.8-131.7 34.8 84.5 76.8 167 203.3 223.5"/><path fill="none" stroke="#000" stroke-linecap="round" stroke-linejoin="round" stroke-miterlimit="10" stroke-width="2.8" d="M2250.8 570.1c-40.4 34.6-109.5 90.5-202.6 126.5-41.2-49.5-125.5-164.9-140.6-218.3 52.3-36.7 106.9-88 139.8-131.7 34.8 84.5 76.8 167 203.3 223.5m0 0"/><path fill="#d9d9d9" d="M2250.8 570.1c40.3 34.6 109.4 90.5 202.5 126.5 41.3-49.5 125.5-164.9 140.7-218.3-52.4-36.7-107-88-139.9-131.7-34.8 84.5-76.8 167-203.3 223.5"/><path fill="none" stroke="#000" stroke-linecap="round" stroke-linejoin="round" stroke-miterlimit="10" stroke-width="2.8" d="M2250.8 570.1c40.3 34.6 109.4 90.5 202.5 126.5 41.3-49.5 125.5-164.9 140.7-218.3-52.4-36.7-107-88-139.9-131.7-34.8 84.5-76.8 167-203.3 223.5m0 0"/><path fill="none" stroke="#000" stroke-dasharray="10 10" stroke-linecap="round" stroke-linejoin="round" stroke-miterlimit="10" stroke-width="2.9" d="m1531.4 2274.3 69.2 2c23.8.5 47.9 1.5 71.9 2 23.8 1 47.8 1.4 71.9 2.1 23.8.5 47.8 1.5 71.8 2q35.9.7 71.9 1.6l71.9 1.5c23.8.2 48 .7 71.8 1.2l72 1c23.7 0 48 .4 71.8.6h151.8c23.8-.2 47.8-.7 71.9-.7q35.9-.3 71.8-1 36-.7 72-1.1l71.8-1.5 71.9-1.7c23.8-.4 48-1.4 71.8-1.9q35.9-.9 71.9-2.1c24-.5 48-1.5 71.9-2l68.7-2M1533.6 2255.2l67 2.2c23.8.5 47.9 1.4 71.9 1.9 23.8 1 47.8 1.4 71.9 2.2 23.8.4 47.8 1.4 71.8 1.9l71.9 1.7 71.9 1.4c23.8.2 48 .7 71.8 1.2s48.1.7 72 1c23.7 0 48 .4 71.8.7h151.8q35.7-.6 71.9-.7 35.9-.4 71.8-1 36-.8 72-1.2l71.8-1.4 71.9-1.7c23.8-.5 48-1.5 71.8-2 23.8-.7 48-1.1 71.9-2.1q36-1 71.9-2l68.7-2"/><path fill="none" stroke="#000" stroke-linecap="round" stroke-linejoin="round" stroke-miterlimit="10" stroke-width=".8" d="M2207.5 662v52.6M2292.5 714.6V662M2250 749.1v28.4M2264.2 763.3h-28.4M2250 848.5v28.3M2264.2 862.7h-28.4M2250 947.6V976M2264.2 961.8h-28.4M2207.5 714.6v346.3M2207.5 1060.9h85M2292.5 1060.9V714.6"/><path fill="#d9d9d9" d="m2529.7 1334 141.8-42.5V994h-283.4v297.5z"/><path fill="none" stroke="#000" stroke-linecap="round" stroke-linejoin="round" stroke-miterlimit="10" stroke-width="2.8" d="m2529.7 1334 141.8-42.5V994h-283.4v297.5zm0 0"/><path fill="none" stroke="#000" stroke-dasharray="10 10" stroke-linecap="round" stroke-linejoin="round" stroke-miterlimit="10" stroke-width="2.9" d="m2670.8 1053.1-282.7 1.7M2671.5 1038.5l-282.6 1.6"/><path fill="#d9d9d9" stroke="#000" stroke-linecap="round" stroke-linejoin="round" stroke-miterlimit="10" stroke-width="2.8" d="M12125.2 623.7q1.4 1.5 2.4 2.8c7.6 8 15.1 15.7 22.1 24 10.3 12 19.6 25.8 26.8 39.8a258 258 0 0 1 25 74.6c4.6 27.2 6.2 55.1 6.5 83.1.6 28.9.4 58-1.6 87-1.5 27.5-5 55-8 82-2.6 27.3-5.6 54.6-4.6 81.6.6 26.5 5.2 52.7 11.9 78.7a212 212 0 0 0 28.2 66.1l2.1 3.6c-81.8 59-163 117.9-244.8 177l-332.7-344.6Zm0 0"/><path fill="none" stroke="#000" stroke-dasharray="10 10" stroke-linecap="round" stroke-linejoin="round" stroke-miterlimit="10" stroke-width="2.9" d="m12034.6 1392-338-347.8M12046 1382.7l-338-347.8"/><path fill="#d9d9d9" stroke="#000" stroke-linecap="round" stroke-linejoin="round" stroke-miterlimit="10" stroke-width="2.8" d="m13378.2 624-2.4 2.8c-7.6 8-15.1 15.7-22.1 24a210 210 0 0 0-26.8 39.9 258 258 0 0 0-25 74.6 538 538 0 0 0-6.5 83c-.6 29-.4 58.1 1.6 87.1 1.5 27.5 5 55 8 82 2.6 27.3 5.6 54.6 4.6 81.6a344 344 0 0 1-11.9 78.6 212 212 0 0 1-28.2 66.2l-2.1 3.6c81.8 59 163.1 117.8 244.8 177l332.7-344.6Zm0 0"/><path fill="none" stroke="#000" stroke-dasharray="10 10" stroke-linecap="round" stroke-linejoin="round" stroke-miterlimit="10" stroke-width="2.9" d="m13468.8 1392.3 338-347.8M13457.4 1383l338-347.7"/><path fill="#d9d9d9" stroke="#000" stroke-linecap="round" stroke-linejoin="round" stroke-miterlimit="10" stroke-width="2.8" d="M12590.9 382.2 12476.2 493l101.4 266.6h377.3l9.3-298.6-145.3-78.7Zm0 0"/><path fill="#d9d9d9" stroke="#000" stroke-linecap="round" stroke-linejoin="round" stroke-miterlimit="10" stroke-width="2.8" d="M13360.6 714.6a3232 3232 0 0 0-23 141.6c-4.6 34.5-8.2 69.1-9.6 103.7a553 553 0 0 0 3 89.2 206 206 0 0 0 20 69.7 115 115 0 0 0 40.8 45.8c19.2 11.8 43 16.3 65.8 16.5h4.3c0 1.5-.5 3-.5 4.3q-.7 12-1.7 23.8l-2 28.1q-.7 13.8-1.6 27.8l-1.7 28.1q-.8 14-1.7 28.1c-.2 9.4-1 18.7-1.4 28-.2 9-1 18.3-1.2 27.7q-.4 14-1.2 28-.3 14.1-1 28.1-.4 14-1 28.1 0 13.7-.4 27.9-.5 14-.7 28-.3 14.1-.5 28.1l-.2 28.1q-.1 13.6-.3 27.6v56.2l.3 28 .2 27.9q.2 14 .5 28t.7 28.1q.5 14.1.5 28.1.4 13.8 1 27.9l1 27.8q.7 14 1.1 28c.3 9.4 1 18.8 1.2 28.2q1 13.6 1.4 27.8 1 14 1.7 28l1.7 28.2 1.7 28q.8 13.8 2 27.9l1.6 23.8c0 1.4.5 2.8.5 4.3 1.4 3.3 10.8 199.3 13.5 253.9-14.2.2.6.7-13.5 1.2q-39.3 1.2-78.7 2.1-39 1.5-78.3 2.2-39.1 1.7-78.5 2.4l-78.4 2q-39 .7-78.3 1.6-39.1 1-78.5 1.7c-26.1.2-52 .7-78.5 1.2q-39 .4-78.2.5-39.6.6-78.5.5h-8.6q-38.9.1-78.5-.5c-26.2 0-52-.3-78.2-.5q-39.5-.8-78.5-1.2-39.2-.7-78.5-1.7l-78.2-1.7q-39.6-.8-78.5-2-39.5-.8-78.5-2.3-39.2-.7-78.2-2.2-39.5-.9-78.8-2.1c-14.1-.5 4.7-1-9.4-1.2 0 0 8.3-250.6 9.4-254 0-1.4.5-2.8.5-4.2q.7-12 1.7-23.8l2-27.9q.7-14 1.6-28l1.7-28.1q1-14 1.7-28c.2-9.5 1-18.8 1.4-28 .2-9.3 1-18.7 1.2-28q.5-14 1.2-28.1.3-14 1-27.8.4-14.1 1-27.9 0-14 .4-28 .6-14.1.7-28.1.3-14.1.5-28.1.1-14.1.3-27.9l.2-28v-56.2l-.2-27.6q-.1-14-.3-28t-.5-28.2q-.1-14-.7-28-.4-14.2-.5-27.9-.4-14-1-28l-.9-28.1q-.8-14.1-1.2-28.1c-.2-9.4-1-18.7-1.2-27.6q-1-14-1.4-28-.7-14.2-1.7-28.2l-1.7-28-1.7-27.9q-.8-14-1.9-28-1-12-1.7-23.9c0-1.4-.5-2.8-.5-4.3h4.4c22.8-.2 46.5-4.7 65.7-16.5a115 115 0 0 0 40.8-45.8 206 206 0 0 0 20-69.7 556 556 0 0 0 3-89.2c-1.4-34.6-5-69.2-9.5-103.7a2941 2941 0 0 0-23-141.6h0q-8.4-45.6-17.3-91c135-67.4 270.2-135.3 405-202.8v4.1c.8 23.5 5.1 46.8 11.1 69.6 6.3 24.2 14.2 48 26.7 69.4a205 205 0 0 0 111.8 91.2c9.3 2.8 19.4 4.7 29 7 12.7 1.3 25.7 2.6 38.4 1.6q2.1 0 4.1-.3 2 .4 4 .3c12.8 1 25.8-.3 38.5-1.7 9.6-2.2 19.7-4 29-7 22.1-6.7 42.7-18.2 61-32.6 20.6-16 38-36.2 50.9-58.5a271 271 0 0 0 26.6-69.4c6-22.8 10.3-46 11-69.6v-4c135 67.4 270 135.3 405.2 202.7q-.4 2.3-1 4.1l-16.4 86.9"/><path fill="#d9d9d9" stroke="#000" stroke-linecap="round" stroke-linejoin="round" stroke-miterlimit="10" stroke-width="2.8" d="M12795.7 570.9h-86.5v462h86.5Zm0 0"/><path fill="#d9d9d9" stroke="#000" stroke-linecap="round" stroke-linejoin="round" stroke-miterlimit="10" stroke-width="2.8" d="M12795.7 570.9v490h-86.4V1023h86.4Zm0 0"/><path fill="#d9d9d9" d="M12752.5 745.8a17 17 0 0 1 17 17 17 17 0 0 1-17 16.9 17 17 0 1 1 0-33.9"/><path fill="none" stroke="#000" stroke-linecap="round" stroke-linejoin="round" stroke-miterlimit="10" stroke-width="2.8" d="M12752.5 745.8a17 17 0 0 1 17 17 17 17 0 0 1-17 16.9 17 17 0 1 1 0-33.9m0 0"/><path fill="#d9d9d9" d="M12752.5 845.6a17 17 0 0 1 17 17 17 17 0 0 1-17 16.9 17 17 0 0 1-17-17 17 17 0 0 1 17-16.9"/><path fill="none" stroke="#000" stroke-linecap="round" stroke-linejoin="round" stroke-miterlimit="10" stroke-width="2.8" d="M12752.5 845.6a17 17 0 0 1 17 17 17 17 0 0 1-17 16.9 17 17 0 0 1-17-17 17 17 0 0 1 17-16.9m0 0"/><path fill="#d9d9d9" d="M12752.5 944.6a17 17 0 0 1 17 16.9 17 17 0 0 1-17 17 17 17 0 1 1 0-33.9"/><path fill="none" stroke="#000" stroke-linecap="round" stroke-linejoin="round" stroke-miterlimit="10" stroke-width="2.8" d="M12752.5 944.6a17 17 0 0 1 17 16.9 17 17 0 0 1-17 17 17 17 0 1 1 0-33.9m0 0"/><path fill="#d9d9d9" d="M12611.8 462.9c92.1 8.4 189.3 8.4 281.4 0 29.6-39 45-73.5 62.6-116.3a2589 2589 0 0 1-406.7 0c18.4 44.3 33.1 77.4 62.7 116.3"/><path fill="none" stroke="#000" stroke-linecap="round" stroke-linejoin="round" stroke-miterlimit="10" stroke-width="2.8" d="M12611.8 462.9c92.1 8.4 189.3 8.4 281.4 0 29.6-39 45-73.5 62.6-116.3a2589 2589 0 0 1-406.7 0c18.4 44.3 33.1 77.4 62.7 116.3m0 0"/><path fill="#d9d9d9" d="M12752.5 570.1c-40.3 34.6-109.4 90.5-202.6 126.5-41.2-49.5-125.4-164.9-140.6-218.3 52.3-36.7 106.9-88 139.8-131.7 34.9 84.5 76.9 167 203.4 223.5"/><path fill="none" stroke="#000" stroke-linecap="round" stroke-linejoin="round" stroke-miterlimit="10" stroke-width="2.8" d="M12752.5 570.1c-40.3 34.6-109.4 90.5-202.6 126.5-41.2-49.5-125.4-164.9-140.6-218.3 52.3-36.7 106.9-88 139.8-131.7 34.9 84.5 76.9 167 203.4 223.5m0 0"/><path fill="#d9d9d9" d="M12752.5 570.1c40.3 34.6 109.4 90.5 202.6 126.5 41.2-49.5 125.4-164.9 140.6-218.3-52.3-36.7-107-88-139.9-131.7-34.8 84.5-76.8 167-203.3 223.5"/><path fill="none" stroke="#000" stroke-linecap="round" stroke-linejoin="round" stroke-miterlimit="10" stroke-width="2.8" d="M12752.5 570.1c40.3 34.6 109.4 90.5 202.6 126.5 41.2-49.5 125.4-164.9 140.6-218.3-52.3-36.7-107-88-139.9-131.7-34.8 84.5-76.8 167-203.3 223.5m0 0"/><path fill="none" stroke="#000" stroke-dasharray="10 10" stroke-linecap="round" stroke-linejoin="round" stroke-miterlimit="10" stroke-width="2.9" d="m12033 2274.3 69.4 2c23.8.5 47.8 1.5 71.8 2 23.8 1 47.9 1.4 71.9 2.1 23.8.5 47.8 1.5 71.9 2 23.8.4 48 1.1 71.8 1.6l71.9 1.5q35.9.4 71.9 1.2l71.8 1c23.8 0 48.1.4 72 .6h151.7c23.8-.2 47.9-.7 71.9-.7q35.9-.3 71.9-1c23.8-.4 48-.9 71.8-1.1l72-1.5 71.8-1.7c23.8-.4 48-1.4 71.9-1.9 23.8-.7 48-1.2 71.8-2.1 24-.5 48-1.5 71.9-2l68.8-2M12035.3 2255.2l67 2.2c23.9.5 47.9 1.4 72 1.9 23.7 1 47.8 1.4 71.8 2.2 23.8.4 47.8 1.4 71.9 1.9l71.8 1.7 71.9 1.4q35.9.4 71.9 1.2c23.8.5 48 .7 71.8 1 23.8 0 48.1.4 72 .7h151.7q35.8-.6 71.9-.7 35.9-.4 71.9-1c23.8-.5 48-1 71.8-1.2l72-1.4 71.8-1.7c23.8-.5 48-1.5 71.9-2 23.8-.7 48-1.1 71.8-2.1q36-1 71.9-2l68.8-2"/><path fill="none" stroke="#000" stroke-linecap="round" stroke-linejoin="round" stroke-miterlimit="10" stroke-width=".8" d="M12709.2 662v52.6M12794.2 714.6V662M12751.7 749.1v28.4M12765.9 763.3h-28.3M12751.7 848.5v28.3M12765.9 862.7h-28.3M12751.7 947.6V976M12765.9 961.8h-28.3M12709.2 714.6v346.3M12709.2 1060.9h85M12794.2 1060.9V714.6"/><path fill="#d9d9d9" d="m13031.4 1334 141.9-42.5V994h-283.5v297.5z"/><path fill="none" stroke="#000" stroke-linecap="round" stroke-linejoin="round" stroke-miterlimit="10" stroke-width="2.8" d="m13031.4 1334 141.9-42.5V994h-283.5v297.5zm0 0"/><path fill="none" stroke="#000" stroke-dasharray="10 10" stroke-linecap="round" stroke-linejoin="round" stroke-miterlimit="10" stroke-width="2.9" d="m13172.5 1053.1-282.7 1.7M13173.3 1038.5l-282.7 1.6"/><path fill="#d9d9d9" d="M4425.7 2198.7q-.5 0-.8-.3l-204.3-158.9q-.8-.7-.4-1.8l81.2-148.4a1.4 1.4 0 0 1 2-.4l263.9 188q.5.3.6 1 0 .8-.5 1.2l-140.7 119.2q-.4.4-1 .4"/><path d="M4302.6 1887.2h-.6q-1.3.3-1.8 1.5L4219 2037c-.7 1.2-.4 2.7.7 3.6l204.3 158.8a3 3 0 0 0 3.6 0l140.7-119.3a2.8 2.8 0 0 0-.2-4.5l-263.8-188q-.7-.5-1.7-.5m0 2.8 263.8 188-140.7 119.2-204.2-158.8Zm0 0"/><g clip-path="url(#aq)"><g clip-path="url(#ar)"><path fill="none" stroke="#868686" stroke-linecap="round" stroke-linejoin="round" stroke-miterlimit="10" stroke-width="2" d="m4332 1868.9-136.2 240.8"/></g></g><g clip-path="url(#as)"><g clip-path="url(#at)"><path fill="none" stroke="#868686" stroke-linecap="round" stroke-linejoin="round" stroke-miterlimit="10" stroke-width="2" d="M4346.8 1880.2 4205.7 2118"/></g></g><g clip-path="url(#au)"><g clip-path="url(#av)"><path fill="none" stroke="#868686" stroke-linecap="round" stroke-linejoin="round" stroke-miterlimit="10" stroke-width="2" d="m4361.7 1891.6-146.1 234.8"/></g></g><g clip-path="url(#aw)"><g clip-path="url(#ax)"><path fill="none" stroke="#868686" stroke-linecap="round" stroke-linejoin="round" stroke-miterlimit="10" stroke-width="2" d="m4376.5 1903-151 231.7"/></g></g><g clip-path="url(#ay)"><g clip-path="url(#az)"><path fill="none" stroke="#868686" stroke-linecap="round" stroke-linejoin="round" stroke-miterlimit="10" stroke-width="2" d="m4391.3 1914.4-156 228.6"/></g></g><g clip-path="url(#aA)"><g clip-path="url(#aB)"><path fill="none" stroke="#868686" stroke-linecap="round" stroke-linejoin="round" stroke-miterlimit="10" stroke-width="2" d="m4406.1 1925.8-160.8 225.5"/></g></g><g clip-path="url(#aC)"><g clip-path="url(#aD)"><path fill="none" stroke="#868686" stroke-linecap="round" stroke-linejoin="round" stroke-miterlimit="10" stroke-width="2" d="m4421 1937.1-165.8 222.6"/></g></g><g clip-path="url(#aE)"><g clip-path="url(#aF)"><path fill="none" stroke="#868686" stroke-linecap="round" stroke-linejoin="round" stroke-miterlimit="10" stroke-width="2" d="M4435.8 1948.5 4265 2168"/></g></g><g clip-path="url(#aG)"><g clip-path="url(#aH)"><path fill="none" stroke="#868686" stroke-linecap="round" stroke-linejoin="round" stroke-miterlimit="10" stroke-width="2" d="M4450.6 1960 4275 2176.2"/></g></g><g clip-path="url(#aI)"><g clip-path="url(#aJ)"><path fill="none" stroke="#868686" stroke-linecap="round" stroke-linejoin="round" stroke-miterlimit="10" stroke-width="2" d="M4465.4 1971.3 4285 2184.6"/></g></g><g clip-path="url(#aK)"><g clip-path="url(#aL)"><path fill="none" stroke="#868686" stroke-linecap="round" stroke-linejoin="round" stroke-miterlimit="10" stroke-width="2" d="M4480.3 1982.7 4294.8 2193"/></g></g><g clip-path="url(#aM)"><g clip-path="url(#aN)"><path fill="none" stroke="#868686" stroke-linecap="round" stroke-linejoin="round" stroke-miterlimit="10" stroke-width="2" d="m4495 1994-190.3 207.3"/></g></g><g clip-path="url(#aO)"><g clip-path="url(#aP)"><path fill="none" stroke="#868686" stroke-linecap="round" stroke-linejoin="round" stroke-miterlimit="10" stroke-width="2" d="m4509.9 2005.4-195.3 204.2"/></g></g><g clip-path="url(#aQ)"><g clip-path="url(#aR)"><path fill="none" stroke="#868686" stroke-linecap="round" stroke-linejoin="round" stroke-miterlimit="10" stroke-width="2" d="M4524.7 2016.8 4324.5 2218"/></g></g><g clip-path="url(#aS)"><g clip-path="url(#aT)"><path fill="none" stroke="#868686" stroke-linecap="round" stroke-linejoin="round" stroke-miterlimit="10" stroke-width="2" d="m4539.5 2028.2-205.1 198"/></g></g><g clip-path="url(#aU)"><g clip-path="url(#aV)"><path fill="none" stroke="#868686" stroke-linecap="round" stroke-linejoin="round" stroke-miterlimit="10" stroke-width="2" d="m4554.4 2039.6-210.1 195"/></g></g><g clip-path="url(#aW)"><g clip-path="url(#aX)"><path fill="none" stroke="#868686" stroke-linecap="round" stroke-linejoin="round" stroke-miterlimit="10" stroke-width="2" d="m4569.2 2051-215 192"/></g></g><path fill="#d9d9d9" stroke="#000" stroke-linecap="round" stroke-linejoin="round" stroke-miterlimit="10" stroke-width="2.8" d="m5184.4 626.6 2.7 2.4q13.5 9.5 26.3 19.4a227 227 0 0 1 33.4 34.5 259 259 0 0 1 38 68.5c9.8 26 16 53.3 21.6 80.7 5.6 28.5 10.7 57 14.2 85.7 3 25 4.7 49.8 6.3 74.8v-.8l.6 8.4c2 27.4 4 54.6 9.8 81.1 5.7 26 14.8 51 26.2 75.2 10.2 22 22.8 43.2 39.7 60l2.5 3c-271.7 285.7-544 571.4-816 856.8a21 21 0 0 1-27.2 2.6l-257.7-184.5a19.3 19.3 0 0 1-4.5-26.9Zm0 0"/><path fill="#d9d9d9" d="M7270.4 2198q-.5 0-.9-.4l-140.7-119.2q-.5-.4-.5-1.2t.6-1l263.8-188a1.4 1.4 0 0 1 2 .4L7476 2037q.4 1-.4 1.8l-204.3 158.8q-.3.3-.9.3"/><path d="M7393.5 1886.4q-.8 0-1.6.6l-263.8 188a2.8 2.8 0 0 0-.2 4.4l140.7 119.3a3 3 0 0 0 3.6 0l204.3-158.8c1-.8 1.4-2.4.7-3.6L7396 1888a3 3 0 0 0-2.5-1.5m0 2.9 81.2 148.4-204.3 158.8-140.6-119.2Zm0 0"/><g clip-path="url(#aY)"><g clip-path="url(#aZ)"><path fill="none" stroke="#868686" stroke-linecap="round" stroke-linejoin="round" stroke-miterlimit="10" stroke-width="2" d="m7364.2 1868.1 136.2 240.9"/></g></g><g clip-path="url(#ba)"><g clip-path="url(#bb)"><path fill="none" stroke="#868686" stroke-linecap="round" stroke-linejoin="round" stroke-miterlimit="10" stroke-width="2" d="m7349.4 1879.5 141.1 237.8"/></g></g><g clip-path="url(#bc)"><g clip-path="url(#bd)"><path fill="none" stroke="#868686" stroke-linecap="round" stroke-linejoin="round" stroke-miterlimit="10" stroke-width="2" d="m7334.5 1890.9 146.1 234.7"/></g></g><g clip-path="url(#be)"><g clip-path="url(#bf)"><path fill="none" stroke="#868686" stroke-linecap="round" stroke-linejoin="round" stroke-miterlimit="10" stroke-width="2" d="m7319.7 1902.3 151 231.6"/></g></g><g clip-path="url(#bg)"><g clip-path="url(#bh)"><path fill="none" stroke="#868686" stroke-linecap="round" stroke-linejoin="round" stroke-miterlimit="10" stroke-width="2" d="m7304.9 1913.6 155.9 228.7"/></g></g><g clip-path="url(#bi)"><g clip-path="url(#bj)"><path fill="none" stroke="#868686" stroke-linecap="round" stroke-linejoin="round" stroke-miterlimit="10" stroke-width="2" d="m7290 1925 160.9 225.6"/></g></g><g clip-path="url(#bk)"><g clip-path="url(#bl)"><path fill="none" stroke="#868686" stroke-linecap="round" stroke-linejoin="round" stroke-miterlimit="10" stroke-width="2" d="m7275.2 1936.4 165.8 222.5"/></g></g><g clip-path="url(#bm)"><g clip-path="url(#bn)"><path fill="none" stroke="#868686" stroke-linecap="round" stroke-linejoin="round" stroke-miterlimit="10" stroke-width="2" d="m7260.4 1947.8 170.7 219.4"/></g></g><g clip-path="url(#bo)"><g clip-path="url(#bp)"><path fill="none" stroke="#868686" stroke-linecap="round" stroke-linejoin="round" stroke-miterlimit="10" stroke-width="2" d="m7245.6 1959.2 175.6 216.4"/></g></g><g clip-path="url(#bq)"><g clip-path="url(#br)"><path fill="none" stroke="#868686" stroke-linecap="round" stroke-linejoin="round" stroke-miterlimit="10" stroke-width="2" d="m7230.8 1970.5 180.5 213.4"/></g></g><g clip-path="url(#bs)"><g clip-path="url(#bt)"><path fill="none" stroke="#868686" stroke-linecap="round" stroke-linejoin="round" stroke-miterlimit="10" stroke-width="2" d="m7216 1982 185.4 210.2"/></g></g><g clip-path="url(#bu)"><g clip-path="url(#bv)"><path fill="none" stroke="#868686" stroke-linecap="round" stroke-linejoin="round" stroke-miterlimit="10" stroke-width="2" d="m7201.1 1993.3 190.4 207.2"/></g></g><g clip-path="url(#bw)"><g clip-path="url(#bx)"><path fill="none" stroke="#868686" stroke-linecap="round" stroke-linejoin="round" stroke-miterlimit="10" stroke-width="2" d="m7186.3 2004.7 195.3 204.2"/></g></g><g clip-path="url(#by)"><g clip-path="url(#bz)"><path fill="none" stroke="#868686" stroke-linecap="round" stroke-linejoin="round" stroke-miterlimit="10" stroke-width="2" d="m7171.5 2016 200.2 201.2"/></g></g><g clip-path="url(#bA)"><g clip-path="url(#bB)"><path fill="none" stroke="#868686" stroke-linecap="round" stroke-linejoin="round" stroke-miterlimit="10" stroke-width="2" d="m7156.6 2027.4 205.2 198.1"/></g></g><g clip-path="url(#bC)"><g clip-path="url(#bD)"><path fill="none" stroke="#868686" stroke-linecap="round" stroke-linejoin="round" stroke-miterlimit="10" stroke-width="2" d="m7141.8 2038.8 210.1 195"/></g></g><g clip-path="url(#bE)"><g clip-path="url(#bF)"><path fill="none" stroke="#868686" stroke-linecap="round" stroke-linejoin="round" stroke-miterlimit="10" stroke-width="2" d="m7127 2050.2 215 192"/></g></g><path fill="#d9d9d9" stroke="#000" stroke-linecap="round" stroke-linejoin="round" stroke-miterlimit="10" stroke-width="2.8" d="M6511.8 625.9q-1.5 1.2-2.7 2.3-13.5 9.5-26.3 19.4a227 227 0 0 0-33.4 34.5 259 259 0 0 0-38 68.6c-9.8 25.9-16 53.3-21.6 80.7a1241 1241 0 0 0-14.2 85.7c-3 25-4.7 49.8-6.3 74.7v-.7l-.6 8.4c-2 27.3-4 54.5-9.8 81-5.7 26-14.8 51.1-26.2 75.2a204 204 0 0 1-39.7 60q-1.5 2-2.5 3c271.7 285.8 544 571.4 816 856.9a21 21 0 0 0 27.2 2.5l257.7-184.5a19.3 19.3 0 0 0 4.5-26.8Zm0 0"/><path fill="#d9d9d9" stroke="#000" stroke-linecap="round" stroke-linejoin="round" stroke-miterlimit="10" stroke-width="2.8" d="m6538.7 1832.2.3 5.7 1 27.8q.7 14.2 1.1 27.9c.3 9.3 1 18.7 1.2 28l1.4 28.1q.7 13.8 1.7 27.9.7 14 1.7 28l1.7 28.2q.8 14 2 28l1.6 23.5c0 1.5 10 207.4 10 259.5h-1425c0-52.1 7-258 7-259.5q.6-11.9 1.6-23.5l2-28q.7-14.1 1.6-28.1t1.7-28.1q1-14.1 1.7-27.9c.2-9.3 1-18.7 1.4-28 .2-9.4 1-18.8 1.2-28.1q.4-13.7 1.2-27.9.3-14 1-27.8l.2-5.7h0l.7-23q.1-14.1.5-28.2t.7-28q.3-14.2.5-27.7l.2-28q.2-14.1.3-28.1v-56q-.2-14-.3-28l-.2-28q-.2-14.1-.5-28.2t-.7-27.6q-.4-14-.5-28-.3-14.1-1-28.1l-.9-28.1q-.8-14.1-1.2-27.8c-.2-9.4-1-18.8-1.2-28.1q-1-14-1.4-28.1-.7-14-1.7-28-.7-14.2-1.7-28l-1.7-27.8q-.8-14-1.9-28-1-12-1.7-24l-.2-4.1h4c18-1 36.3-4.4 52.6-12.5a103 103 0 0 0 36-30.5 135 135 0 0 0 21-45.8c5-19.2 7.1-39.1 7.6-59.3.4-23.5-1.5-46.8-3.2-70.3-1.9-26.7-3.3-53.3-7.4-79.2-4-28.8-11-57-17.3-85-7.6-34.5-14.6-69.1-24.4-102.7-7.7-26.4-17-52.3-26.7-77.8l-1.4-4.3c141.6-52 283-104.6 424.8-157 7.2 9.7 14.4 19.3 23 27.7 12 11.5 26.9 20.8 42.7 27.6 13.7 5.7 28.1 9.5 42.8 12.2 18.4 3.1 37.4 4.5 56.1 4.8 23.3.7 46.6 0 69.9 0h8.4c23.2 0 46.5.7 69.8 0a369 369 0 0 0 56.2-4.8c14.6-2.7 29-6.5 42.7-12.2a143 143 0 0 0 42.7-27.6c8.6-8.4 15.8-18 23-27.7 141.9 52.4 283.2 105 424.8 157-9.8 27.4-19.9 54.3-28 82-9.9 33.7-16.8 68.3-24.5 102.8-6.3 28-13.2 56.2-17.3 85-4 25.9-5.5 52.5-7.4 79.2-1.7 23.5-3.6 46.8-3.2 70.3.5 20.2 2.7 40 7.7 59.3a135 135 0 0 0 21 45.8 103 103 0 0 0 36 30.5c16.5 8.1 35 11.5 53.2 12.5h3.3l-.2 4q-.7 12-1.7 24l-2 28.1q-.6 14.1-1.6 27.9t-1.7 27.8q-1 14-1.6 28.1l-1.5 28c-.2 9.4-1 18.8-1.2 28.2q-.4 13.6-1.2 27.8-.3 14-1 28l-.9 28.1q0 14.1-.5 28.1c-.2 9-.7 18.3-.7 27.6q-.2 14.1-.5 28.1l-.2 28.1q-.1 14-.3 28v56l.3 28 .2 28.1q.3 13.5.5 27.7.2 14 .7 28t.5 28.1z"/><path fill="none" stroke="#000" stroke-dasharray="10 10" stroke-linecap="round" stroke-linejoin="round" stroke-miterlimit="10" stroke-width="2.9" d="M5141.4 2294.7H6561M5141.4 2276.7H6561"/><path fill="#d9d9d9" d="M6023.7 348.1a325 325 0 0 1-176.5 52.8 325 325 0 0 1-173.8-51.3c-20 46.3-59 91.7-95 125.3a482 482 0 0 0 270.5 84.2c135.9-.1 232.7-59 269.6-84.2-36-33.6-74.9-80.5-94.8-126.8"/><path fill="none" stroke="#000" stroke-linecap="round" stroke-linejoin="round" stroke-miterlimit="10" stroke-width="2.8" d="M6023.7 348.1a325 325 0 0 1-176.5 52.8 325 325 0 0 1-173.8-51.3c-20 46.3-59 91.7-95 125.3a482 482 0 0 0 270.5 84.2c135.9-.1 232.7-59 269.6-84.2-36-33.6-74.9-80.5-94.8-126.8m0 0"/><path fill="none" stroke="#000" stroke-dasharray="10 10" stroke-linecap="round" stroke-linejoin="round" stroke-miterlimit="10" stroke-width="2.9" d="m8045.6 2050.3-257.7-252.8M8056.6 2040.6l-257.7-252.8"/></svg>