<svg xmlns="http://www.w3.org/2000/svg" viewBox="0 0 3099 2693"><path fill="#d9d9d9" d="m1307.8 462.8-287.1 544.6s165.2 177.3 321 166.4l97.7-164.1c17-28.7 26-61.4 26-94.7V785.4q0-24.9-6.6-49l-33.1-120.8a185 185 0 0 0-47.2-81.5Zm0 0"/><path fill="none" stroke="#000" stroke-linecap="round" stroke-linejoin="round" stroke-miterlimit="10" stroke-width="2.8" d="m1307.8 462.8-287.1 544.6s165.2 177.3 321 166.4l97.7-164.1c17-28.7 26-61.4 26-94.7V785.4q0-24.9-6.6-49l-33.1-120.8a185 185 0 0 0-47.2-81.5z"/><path fill="none" stroke="#000" stroke-dasharray="10 10" stroke-linecap="round" stroke-linejoin="round" stroke-miterlimit="10" stroke-width="2.9" d="M1048.5 956.5s165.2 177.3 321.1 166.3"/><path fill="none" stroke="#000" stroke-dasharray="10 10" stroke-linecap="round" stroke-linejoin="round" stroke-miterlimit="10" stroke-width="2.9" d="M1041.7 969.5s165.2 177.2 321 166.3"/><path fill="#d9d9d9" d="m2620.7 462.8 287.1 544.6s-165.2 177.3-321 166.4l-97.7-164.1c-17-28.7-26-61.4-26-94.7V785.4q0-24.9 6.6-49l33.1-120.8A185 185 0 0 1 2550 534Zm0 0"/><path fill="none" stroke="#000" stroke-linecap="round" stroke-linejoin="round" stroke-miterlimit="10" stroke-width="2.8" d="m2620.7 462.8 287.1 544.6s-165.2 177.3-321 166.4l-97.7-164.1c-17-28.7-26-61.4-26-94.7V785.4q0-24.9 6.6-49l33.1-120.8A185 185 0 0 1 2550 534z"/><path fill="none" stroke="#000" stroke-dasharray="10 10" stroke-linecap="round" stroke-linejoin="round" stroke-miterlimit="10" stroke-width="2.9" d="M2880 956.5s-165.2 177.3-321.1 166.3"/><path fill="none" stroke="#000" stroke-dasharray="10 10" stroke-linecap="round" stroke-linejoin="round" stroke-miterlimit="10" stroke-width="2.9" d="M2886.8 969.5s-165.2 177.2-321 166.3"/><path fill="#d9d9d9" stroke="#000" stroke-linecap="round" stroke-linejoin="round" stroke-miterlimit="10" stroke-width="2.8" d="M1308 1064.5c20.5-8.9 36.5-27 50.4-44 5.6-7 10.4-14.7 15.2-22.2 8.4-19 16.3-37.9 21-57.8 9.5-38 5.6-78.7 2-118.8-3.1-32.2-6.2-63.6-12.2-94.8-5.3-28-13-55.7-20.7-83.3a3966 3966 0 0 0-28-95q-13-41.2-28.1-81.9-.9-1.8-1.5-4 185.5-63 371.3-126.3c5.5 19.7 10.8 39.6 17 58.8a875 875 0 0 0 21 59.5A298 298 0 0 0 1753 528a228.7 228.7 0 0 0 123.8 80.6c27 6.6 54.8 8.7 82.1 8.5h9.2c27.6.2 55.2-2 82.3-8.4 27.6-7 54.7-19.5 78.2-36.5a221 221 0 0 0 45.6-44.2c16.3-22 27.6-47.5 37.7-73.2a871 871 0 0 0 20.6-59.5c6.3-19.2 11.6-39.1 17-58.8q186 63.4 371.4 126.3-.5 2.2-1.5 4-14.7 40.6-28 81.9c-10 31.4-19 63.1-28.1 95-7.7 27.6-15.2 55.2-20.7 83.3-6 31.2-9.1 62.6-12.2 94.8-3.6 40-7.2 80.9 2.1 118.8 4.8 20 12.8 38.9 21 57.8q7.2 11.2 15.3 22.1c21 28.7 51.8 39.6 53.3 39.6-3.4 26.4 17.7 616.8 17.5 642.7q.2 39.9 1.2 80.4 1 40 3.6 80 2.2 39.8 5.5 80.1c2.2 26.7 4.3 53.3 7.2 80a4792 4792 0 0 0 8.6 80.1l9.6 80q5.1 39.8 10.1 80.3c3.9 26.7 7.2 53.3 10.8 80h-4c-27.2 0-53.8.2-80.7.7q-40.2.7-80.4 1.9l-80.6 3.1-80.4 3.6q-40.2 1.8-80.2 3.8-40.7 1.9-80.6 3.4-40.3 2-80.4 3.1c-27 1-53.6 1.5-80.7 2.2q-40.2.7-80.4.7h-8.6c-27 0-53.5-.2-80.4-.7-27-.7-53.5-1.2-80.4-2.2-27.2-.7-53.8-1.9-80.7-3q-40-1.6-80.4-3.5-40-2-80.1-3.8l-80.7-3.6q-40.1-1.6-80.4-3.1-40.4-1.1-80.6-2-40.2-.7-80.4-.7h-4.3l10.8-79.9q5-40.5 10.3-80.4 5-40 9.6-79.9 4.6-40.2 8.4-80.2c2.9-26.6 5-53.2 7.4-79.9q3.1-40.3 5.3-80.1 2.5-40 3.8-80 .7-40.4 1-80.4Zm0 0"/><path fill="none" stroke="#000" stroke-dasharray="10 10" stroke-linecap="round" stroke-linejoin="round" stroke-miterlimit="10" stroke-width="2.9" d="M2687.7 2287.5c-27.1 0-49.5.2-76.4.7q-40.2.8-80.4 2-40.4 1.4-80.6 3l-80.4 3.7q-40.2 1.8-80.2 3.8-40.7 1.9-80.6 3.4-40.3 2-80.4 3c-27 1-53.6 1.5-80.7 2.2q-40.2.8-80.4.8h-8.6q-40.2 0-80.4-.8t-80.4-2.1c-27.1-.7-53.8-2-80.7-3.1q-40-1.5-80.4-3.4-40-2-80.1-3.8l-80.7-3.6-80.4-3.2q-40.4-1.1-80.6-1.9c-26.9-.5-50.3-.7-77.2-.7"/><path fill="none" stroke="#000" stroke-dasharray="10 10" stroke-linecap="round" stroke-linejoin="round" stroke-miterlimit="10" stroke-width="2.9" d="M2687.7 2301.3c-27.1 0-49.5.3-76.4.7q-40.2.8-80.4 2l-80.6 3-80.4 3.7q-40.2 1.8-80.2 3.8-40.7 1.9-80.6 3.4-40.3 2-80.4 3c-27 1-53.6 1.5-80.7 2.3q-40.2.7-80.4.7h-8.6q-40.2 0-80.4-.7c-26.9-.8-53.5-1.2-80.4-2.2-27.1-.7-53.8-2-80.7-3.1q-40-1.5-80.4-3.4-40-2-80.1-3.8l-80.7-3.6q-40.1-1.6-80.4-3.1-40.4-1.2-80.6-2c-26.9-.4-50.3-.7-77.2-.7"/><path fill="#d9d9d9" d="M1887.5 372.7c-61.5-5.3-147-15.9-210.1-36.3 0 0 6.6 35 35.8 113.6 29.7 79.6 80.7 167 250.3 167v-.5.5c169.5 0 220.6-87.4 250.2-167 29.3-78.5 35.9-113.6 35.9-113.6-62.5 20.2-145.4 30.8-205.5 36.1a896 896 0 0 1-156.6.2"/><path fill="none" stroke="#000" stroke-linecap="round" stroke-linejoin="round" stroke-miterlimit="10" stroke-width="2.8" d="M1887.5 372.7c-61.5-5.3-147-15.9-210.1-36.3 0 0 6.6 35 35.8 113.6 29.7 79.6 80.7 167 250.3 167v-.5.5c169.5 0 220.6-87.4 250.2-167 29.3-78.5 35.9-113.6 35.9-113.6-62.5 20.2-145.4 30.8-205.5 36.1a896 896 0 0 1-156.6.2m0 0"/><path fill="none" stroke="#000" stroke-linecap="round" stroke-linejoin="round" stroke-miterlimit="10" stroke-width="2.8" d="M2220 347.4c-5.3 16.5-23.8 70.3-33.4 96.2-26.8 72-72.6 145-228 145h0c-155.3 0-196.8-76.6-223.6-148.5-9.6-26-28-80.1-33.2-96.5"/><path fill="none" stroke="#000" stroke-linecap="round" stroke-linejoin="round" stroke-miterlimit="10" stroke-width="2.8" d="M1712.9 377a1204.2 1204.2 0 0 0 497.9-1.9"/><path fill="none" stroke="#000" stroke-dasharray="10 10" stroke-linecap="round" stroke-linejoin="round" stroke-miterlimit="10" stroke-width="2.9" d="M1718.8 392.7c101.6 22.8 225.6 27.9 241.3 28.4h2c6.1-.2 138.3-6.4 242.7-30.2"/><path fill="none" stroke="#000" stroke-dasharray="10.14 10.14" stroke-linecap="round" stroke-linejoin="round" stroke-miterlimit="10" stroke-width="2.9" d="M2274.3 344.5c-4.4 17.7-14.1 48.8-34 103.6-30.5 84.3-86.6 180.4-249.6 190v.3l-9.7.2q-8.5.3-17.5.3l-28.4-.9c-162.1-10-218-105.8-248.4-189.9a1043 1043 0 0 1-33-103.6"/><path fill="#d9d9d9" d="m3463.3 504.2-287.1 544.6s165.2 177.3 321 166.4l97.7-164c17-28.7 26-61.4 26-94.8V827q0-25-6.6-49L3581.2 657a185 185 0 0 0-47.2-81.5Zm0 0"/><path fill="none" stroke="#000" stroke-linecap="round" stroke-linejoin="round" stroke-miterlimit="10" stroke-width="2.8" d="m3463.3 504.2-287.1 544.6s165.2 177.3 321 166.4l97.7-164c17-28.7 26-61.4 26-94.8V827q0-25-6.6-49L3581.2 657a185 185 0 0 0-47.2-81.5z"/><path fill="none" stroke="#000" stroke-dasharray="10.14 10.14" stroke-linecap="round" stroke-linejoin="round" stroke-miterlimit="10" stroke-width="2.9" d="M3204 998s165.2 177.2 321.1 166.3"/><path fill="none" stroke="#000" stroke-dasharray="10.14 10.14" stroke-linecap="round" stroke-linejoin="round" stroke-miterlimit="10" stroke-width="2.9" d="M3197.2 1011s165.2 177.2 321 166.3"/><path fill="#d9d9d9" d="m4689.3 504.2 287.1 544.6s-165.2 177.3-321 166.4l-97.7-164c-17-28.7-26-61.4-26-94.8V827q0-25 6.6-49l33.1-120.9a185 185 0 0 1 47.1-81.5Zm0 0"/><path fill="none" stroke="#000" stroke-linecap="round" stroke-linejoin="round" stroke-miterlimit="10" stroke-width="2.8" d="m4689.3 504.2 287.1 544.6s-165.2 177.3-321 166.4l-97.7-164c-17-28.7-26-61.4-26-94.8V827q0-25 6.6-49l33.1-120.9a185 185 0 0 1 47.1-81.5z"/><path fill="none" stroke="#000" stroke-dasharray="10.14 10.14" stroke-linecap="round" stroke-linejoin="round" stroke-miterlimit="10" stroke-width="2.9" d="M4948.6 998s-165.3 177.2-321.1 166.3"/><path fill="none" stroke="#000" stroke-dasharray="10.14 10.14" stroke-linecap="round" stroke-linejoin="round" stroke-miterlimit="10" stroke-width="2.9" d="M4955.4 1011s-165.2 177.2-321.1 166.3"/><path fill="#d9d9d9" d="M4809.1 2366.1H3343.7q5.6-40 10.8-80.2 5.2-39.9 10.3-79.9 5-40 9.6-80 4.7-40.2 8.4-80 4.3-39.9 7.5-80.5c1.9-26.6 4-53.2 5.2-79.9 2-26.6 31.3-801.3 31.3-801.3a144 144 0 0 0 47.5-39.6 259 259 0 0 0 36.7-71.8c10.3-29.8 18-60 20.4-91 2.6-32.8-1.2-65.7-5.1-98.6-4.3-33.4-9.1-67-15.6-99.8-6.4-31.5-14.4-62.7-23-93.9q-10.7-41-23.3-81.8c-.5-1.2-.7-2.7-1.2-3.6l352.8-169a173 173 0 0 0 49.9 47.8 238.3 238.3 0 0 0 125.6 38.6h170.1a237 237 0 0 0 125.5-38.6 186 186 0 0 0 47.3-44.4q1.3-1.8 2.7-3.4l352.8 169c-.5.9-.8 2.4-1.5 3.6q-12.1 40.7-23.3 81.8a1625 1625 0 0 0-22.8 93.9c-6.4 32.8-11.2 66.4-15.6 99.8-4 32.9-7.6 65.8-5 98.6 2.4 31 10.1 61.2 20.4 91a246 246 0 0 0 36.7 71.8 138 138 0 0 0 47.7 39.7s34.2 854.5 36.3 881.1a4821 4821 0 0 0 15.9 160.4q4.6 40 9.6 80.1t10.3 80q5.3 40 10.5 80.1"/><path fill="none" stroke="#000" stroke-linecap="round" stroke-linejoin="round" stroke-miterlimit="10" stroke-width="2.8" d="M4809.1 2366.1H3343.7q5.6-40 10.8-80.2 5.2-39.9 10.3-79.9 5-40 9.6-80 4.7-40.2 8.4-80 4.3-39.9 7.5-80.5c1.9-26.6 4-53.2 5.2-79.9 2-26.6 31.3-801.3 31.3-801.3a144 144 0 0 0 47.5-39.6 259 259 0 0 0 36.7-71.8c10.3-29.8 18-60 20.4-91 2.6-32.8-1.2-65.7-5.1-98.6-4.3-33.4-9.1-67-15.6-99.8-6.4-31.5-14.4-62.7-23-93.9q-10.7-41-23.3-81.8c-.5-1.2-.7-2.7-1.2-3.6l352.8-169a173 173 0 0 0 49.9 47.8 238.3 238.3 0 0 0 125.6 38.6h170.1a237 237 0 0 0 125.5-38.6 186 186 0 0 0 47.3-44.4q1.3-1.8 2.7-3.4l352.8 169c-.5.9-.8 2.4-1.5 3.6q-12.1 40.8-23.3 81.8a1625 1625 0 0 0-22.8 93.9c-6.4 32.8-11.2 66.4-15.6 99.8-4 32.9-7.6 65.8-5 98.6 2.4 31 10.1 61.2 20.4 91a246 246 0 0 0 36.7 71.8 138 138 0 0 0 47.7 39.7s34.2 854.5 36.3 881.1a4821 4821 0 0 0 15.9 160.4q4.6 40 9.6 80.1t10.3 80q5.3 40 10.5 80.1m0 0"/><path fill="none" stroke="#000" stroke-dasharray="10 10" stroke-linecap="round" stroke-linejoin="round" stroke-miterlimit="10" stroke-width="2.9" d="M4801.2 2287.5c-27.1 0-49.6.2-76.4.7q-40.4.8-80.4 2-40.4 1.4-80.7 3l-80.4 3.7q-40 1.8-80.1 3.8-40.7 1.9-80.7 3.4-40.2 2-80.4 3-40.1 1.3-80.6 2.2-40.2.8-80.4.8h-8.7q-40.1 0-80.4-.8-40.1-.9-80.4-2.1c-27-.7-53.7-2-80.6-3.1q-40-1.5-80.4-3.4-40-2-80.2-3.8l-80.6-3.6-80.4-3.2q-40.5-1.1-80.6-1.9c-27-.5-50.3-.7-77.2-.7"/><path fill="none" stroke="#000" stroke-dasharray="10 10" stroke-linecap="round" stroke-linejoin="round" stroke-miterlimit="10" stroke-width="2.9" d="M4801.2 2301.3c-27.1 0-49.6.3-76.4.7q-40.4.8-80.4 2l-80.7 3-80.4 3.7q-40 1.8-80.1 3.8-40.7 1.9-80.7 3.4-40.2 2-80.4 3c-26.9 1-53.5 1.5-80.6 2.3q-40.2.7-80.4.7h-8.7q-40.1 0-80.4-.7c-26.8-.8-53.5-1.2-80.4-2.2-27-.7-53.7-2-80.6-3.1q-40-1.5-80.4-3.4-40-2-80.2-3.8l-80.6-3.6q-40.2-1.6-80.4-3.1-40.5-1.2-80.6-2c-27-.4-50.3-.7-77.2-.7"/><path fill="none" stroke="#000" stroke-dasharray="10.14 10.14" stroke-linecap="round" stroke-linejoin="round" stroke-miterlimit="10" stroke-width="2.9" d="M4358.5 344.6a214 214 0 0 1-54.2 51 265.3 265.3 0 0 1-141 43.4H3989a266 266 0 0 1-141.2-43.4q-33.5-22.5-54.2-51"/><path fill="#d9d9d9" stroke="#000" stroke-linecap="round" stroke-linejoin="round" stroke-miterlimit="10" stroke-width="2.8" d="M4317.7 326.8a119 119 0 0 1-29.2 29.1 237 237 0 0 1-125.5 38.6h-174a237 237 0 0 1-125.5-38.6c-12.4-8.3-21-18.2-29.2-29.1l-21.9 9.7 3.8 4.9c12.7 17.5 29 32.1 47.3 44.4a237 237 0 0 0 125.5 38.6h174a237 237 0 0 0 125.5-38.6 185 185 0 0 0 47.3-44.4l3.8-4.9Zm0 0"/></svg>